G04*
G04 #@! TF.GenerationSoftware,Altium Limited,Altium Designer,23.2.1 (34)*
G04*
G04 Layer_Color=8388736*
%FSLAX44Y44*%
%MOMM*%
G71*
G04*
G04 #@! TF.SameCoordinates,68E4E8A6-7446-48DA-AA85-862DCAE7E0FD*
G04*
G04*
G04 #@! TF.FilePolarity,Negative*
G04*
G01*
G75*
G04:AMPARAMS|DCode=19|XSize=1.55mm|YSize=0.6mm|CornerRadius=0.051mm|HoleSize=0mm|Usage=FLASHONLY|Rotation=90.000|XOffset=0mm|YOffset=0mm|HoleType=Round|Shape=RoundedRectangle|*
%AMROUNDEDRECTD19*
21,1,1.5500,0.4980,0,0,90.0*
21,1,1.4480,0.6000,0,0,90.0*
1,1,0.1020,0.2490,0.7240*
1,1,0.1020,0.2490,-0.7240*
1,1,0.1020,-0.2490,-0.7240*
1,1,0.1020,-0.2490,0.7240*
%
%ADD19ROUNDEDRECTD19*%
G04:AMPARAMS|DCode=23|XSize=1.55mm|YSize=0.6mm|CornerRadius=0.051mm|HoleSize=0mm|Usage=FLASHONLY|Rotation=0.000|XOffset=0mm|YOffset=0mm|HoleType=Round|Shape=RoundedRectangle|*
%AMROUNDEDRECTD23*
21,1,1.5500,0.4980,0,0,0.0*
21,1,1.4480,0.6000,0,0,0.0*
1,1,0.1020,0.7240,-0.2490*
1,1,0.1020,-0.7240,-0.2490*
1,1,0.1020,-0.7240,0.2490*
1,1,0.1020,0.7240,0.2490*
%
%ADD23ROUNDEDRECTD23*%
%ADD26R,1.7582X1.3055*%
G04:AMPARAMS|DCode=33|XSize=1.5052mm|YSize=0.5721mm|CornerRadius=0.2861mm|HoleSize=0mm|Usage=FLASHONLY|Rotation=180.000|XOffset=0mm|YOffset=0mm|HoleType=Round|Shape=RoundedRectangle|*
%AMROUNDEDRECTD33*
21,1,1.5052,0.0000,0,0,180.0*
21,1,0.9331,0.5721,0,0,180.0*
1,1,0.5721,-0.4666,0.0000*
1,1,0.5721,0.4666,0.0000*
1,1,0.5721,0.4666,0.0000*
1,1,0.5721,-0.4666,0.0000*
%
%ADD33ROUNDEDRECTD33*%
%ADD34R,1.5052X0.5721*%
%ADD36R,1.3055X1.7582*%
%ADD40R,1.8582X1.5057*%
G04:AMPARAMS|DCode=41|XSize=1.0043mm|YSize=3.1821mm|CornerRadius=0.4369mm|HoleSize=0mm|Usage=FLASHONLY|Rotation=90.000|XOffset=0mm|YOffset=0mm|HoleType=Round|Shape=RoundedRectangle|*
%AMROUNDEDRECTD41*
21,1,1.0043,2.3084,0,0,90.0*
21,1,0.1306,3.1821,0,0,90.0*
1,1,0.8737,1.1542,0.0653*
1,1,0.8737,1.1542,-0.0653*
1,1,0.8737,-1.1542,-0.0653*
1,1,0.8737,-1.1542,0.0653*
%
%ADD41ROUNDEDRECTD41*%
G04:AMPARAMS|DCode=42|XSize=1.0043mm|YSize=0.8721mm|CornerRadius=0.4361mm|HoleSize=0mm|Usage=FLASHONLY|Rotation=90.000|XOffset=0mm|YOffset=0mm|HoleType=Round|Shape=RoundedRectangle|*
%AMROUNDEDRECTD42*
21,1,1.0043,0.0000,0,0,90.0*
21,1,0.1322,0.8721,0,0,90.0*
1,1,0.8721,0.0000,0.0661*
1,1,0.8721,0.0000,-0.0661*
1,1,0.8721,0.0000,-0.0661*
1,1,0.8721,0.0000,0.0661*
%
%ADD42ROUNDEDRECTD42*%
%ADD43R,0.8721X1.0043*%
G04:AMPARAMS|DCode=49|XSize=0.7mm|YSize=1.4mm|CornerRadius=0.1245mm|HoleSize=0mm|Usage=FLASHONLY|Rotation=180.000|XOffset=0mm|YOffset=0mm|HoleType=Round|Shape=RoundedRectangle|*
%AMROUNDEDRECTD49*
21,1,0.7000,1.1510,0,0,180.0*
21,1,0.4510,1.4000,0,0,180.0*
1,1,0.2490,-0.2255,0.5755*
1,1,0.2490,0.2255,0.5755*
1,1,0.2490,0.2255,-0.5755*
1,1,0.2490,-0.2255,-0.5755*
%
%ADD49ROUNDEDRECTD49*%
%ADD50R,1.5500X1.1000*%
%ADD51R,1.1000X1.5500*%
%ADD52R,1.6000X1.3500*%
%ADD53R,1.2500X1.8500*%
%ADD54R,1.8500X1.2500*%
%ADD55R,1.3500X1.6000*%
%ADD56R,2.0500X1.6500*%
%ADD57R,1.6500X2.0500*%
%ADD58R,1.3500X2.1500*%
%ADD59R,1.8500X1.2500*%
%ADD60R,0.7500X1.7000*%
G04:AMPARAMS|DCode=61|XSize=0.8mm|YSize=1.8mm|CornerRadius=0.1238mm|HoleSize=0mm|Usage=FLASHONLY|Rotation=270.000|XOffset=0mm|YOffset=0mm|HoleType=Round|Shape=RoundedRectangle|*
%AMROUNDEDRECTD61*
21,1,0.8000,1.5525,0,0,270.0*
21,1,0.5525,1.8000,0,0,270.0*
1,1,0.2475,-0.7763,-0.2763*
1,1,0.2475,-0.7763,0.2763*
1,1,0.2475,0.7763,0.2763*
1,1,0.2475,0.7763,-0.2763*
%
%ADD61ROUNDEDRECTD61*%
%ADD62R,1.2000X1.5000*%
%ADD63R,1.1000X1.0500*%
%ADD64R,1.0500X1.1000*%
G04:AMPARAMS|DCode=65|XSize=2.05mm|YSize=3.35mm|CornerRadius=0mm|HoleSize=0mm|Usage=FLASHONLY|Rotation=180.000|XOffset=0mm|YOffset=0mm|HoleType=Round|Shape=Octagon|*
%AMOCTAGOND65*
4,1,8,0.5125,-1.6750,-0.5125,-1.6750,-1.0250,-1.1625,-1.0250,1.1625,-0.5125,1.6750,0.5125,1.6750,1.0250,1.1625,1.0250,-1.1625,0.5125,-1.6750,0.0*
%
%ADD65OCTAGOND65*%

%ADD66R,0.7500X1.5500*%
%ADD67R,0.7500X1.9500*%
G04:AMPARAMS|DCode=68|XSize=0.8mm|YSize=1.8mm|CornerRadius=0.1238mm|HoleSize=0mm|Usage=FLASHONLY|Rotation=0.000|XOffset=0mm|YOffset=0mm|HoleType=Round|Shape=RoundedRectangle|*
%AMROUNDEDRECTD68*
21,1,0.8000,1.5525,0,0,0.0*
21,1,0.5525,1.8000,0,0,0.0*
1,1,0.2475,0.2763,-0.7763*
1,1,0.2475,-0.2763,-0.7763*
1,1,0.2475,-0.2763,0.7763*
1,1,0.2475,0.2763,0.7763*
%
%ADD68ROUNDEDRECTD68*%
%ADD69R,1.5000X1.2000*%
%ADD70C,1.1000*%
%ADD71C,1.4000*%
%ADD72R,1.4000X1.4000*%
%ADD73R,1.4000X1.4000*%
%ADD74O,2.1500X1.1500*%
%ADD75C,3.2900*%
%ADD76C,1.6200*%
%ADD77C,1.2000*%
%ADD78R,1.2000X1.2000*%
%ADD79C,1.3500*%
%ADD80R,1.3500X1.3500*%
%ADD81C,1.5500*%
%ADD82R,1.5500X1.5500*%
%ADD83C,1.6500*%
%ADD84R,1.6500X1.6500*%
%ADD85O,2.1500X1.1500*%
%ADD86C,0.7500*%
D19*
X344170Y438480D02*
D03*
X356870D02*
D03*
X369570D02*
D03*
X382270D02*
D03*
Y384480D02*
D03*
X369570D02*
D03*
X356870D02*
D03*
X344170D02*
D03*
X322580Y314020D02*
D03*
X335280D02*
D03*
X347980D02*
D03*
X360680D02*
D03*
Y260020D02*
D03*
X347980D02*
D03*
X335280D02*
D03*
X322580D02*
D03*
D23*
X599440Y422910D02*
D03*
Y410210D02*
D03*
Y397510D02*
D03*
Y384810D02*
D03*
X545440D02*
D03*
Y397510D02*
D03*
Y410210D02*
D03*
Y422910D02*
D03*
D26*
X617220Y493617D02*
D03*
Y466090D02*
D03*
X645160Y403654D02*
D03*
Y376126D02*
D03*
Y456787D02*
D03*
Y429260D02*
D03*
X184150Y439833D02*
D03*
Y467360D02*
D03*
X429260Y246586D02*
D03*
Y274114D02*
D03*
X430530Y194516D02*
D03*
Y222044D02*
D03*
X433070Y169974D02*
D03*
Y142446D02*
D03*
X397510Y138224D02*
D03*
Y110696D02*
D03*
X406400Y433276D02*
D03*
Y460804D02*
D03*
X235030Y57356D02*
D03*
Y84884D02*
D03*
X285750Y85090D02*
D03*
Y57563D02*
D03*
X311230Y58420D02*
D03*
Y85947D02*
D03*
X336630Y58420D02*
D03*
Y85947D02*
D03*
X260350Y85090D02*
D03*
Y57563D02*
D03*
X208280Y57150D02*
D03*
Y84677D02*
D03*
D33*
X225215Y163220D02*
D03*
Y182220D02*
D03*
X247225D02*
D03*
Y172720D02*
D03*
D34*
Y163220D02*
D03*
D36*
X236014Y464820D02*
D03*
X208486D02*
D03*
X410004Y308610D02*
D03*
X382476D02*
D03*
X534257Y203200D02*
D03*
X506730D02*
D03*
X456136Y201930D02*
D03*
X483664D02*
D03*
X458676Y171450D02*
D03*
X486204D02*
D03*
X363426Y80010D02*
D03*
X390954D02*
D03*
X391160Y53340D02*
D03*
X363633D02*
D03*
X374650Y167640D02*
D03*
X347123D02*
D03*
X361744Y196850D02*
D03*
X334216D02*
D03*
X373380Y113030D02*
D03*
X345853D02*
D03*
X374650Y139700D02*
D03*
X347123D02*
D03*
X283416Y196850D02*
D03*
X310944D02*
D03*
D40*
X271780Y319248D02*
D03*
Y348772D02*
D03*
D41*
X299720Y172650D02*
D03*
D42*
X322620Y106750D02*
D03*
X299720D02*
D03*
D43*
X276820D02*
D03*
D49*
X95250Y46140D02*
D03*
X107950D02*
D03*
X120650D02*
D03*
X133350D02*
D03*
X146050D02*
D03*
X158750D02*
D03*
X171450D02*
D03*
X184150D02*
D03*
X95250Y98640D02*
D03*
X107950D02*
D03*
X120650D02*
D03*
X133350D02*
D03*
X146050D02*
D03*
X158750D02*
D03*
X171450D02*
D03*
X184150D02*
D03*
D50*
X257810Y243790D02*
D03*
Y224790D02*
D03*
X279400Y246990D02*
D03*
Y227990D02*
D03*
X607060Y258470D02*
D03*
Y277470D02*
D03*
D51*
X508050Y443230D02*
D03*
X527050D02*
D03*
X529590Y464820D02*
D03*
X510590D02*
D03*
D52*
X521970Y387670D02*
D03*
Y407670D02*
D03*
X499110Y422750D02*
D03*
Y402750D02*
D03*
D53*
X575010Y360680D02*
D03*
X601010D02*
D03*
X559100D02*
D03*
X533100D02*
D03*
X612440Y444500D02*
D03*
X586440D02*
D03*
X80310Y184150D02*
D03*
X54310D02*
D03*
X509570Y300990D02*
D03*
X483570D02*
D03*
X379730Y360680D02*
D03*
X353730D02*
D03*
X380030Y337820D02*
D03*
X354030D02*
D03*
X298150Y469900D02*
D03*
X324150D02*
D03*
X161590Y184150D02*
D03*
X135590D02*
D03*
X283510Y467590D02*
D03*
X257510D02*
D03*
X458170Y326390D02*
D03*
X484170D02*
D03*
X338120Y337820D02*
D03*
X312120D02*
D03*
X338120Y360680D02*
D03*
X312120D02*
D03*
X527050Y300990D02*
D03*
X553050D02*
D03*
X498810Y326390D02*
D03*
X524810D02*
D03*
X467660Y300990D02*
D03*
X441660D02*
D03*
X565450Y326390D02*
D03*
X539450D02*
D03*
X347680Y464820D02*
D03*
X373680D02*
D03*
X207980Y383540D02*
D03*
X233980D02*
D03*
X39370Y184150D02*
D03*
X13370D02*
D03*
X121250D02*
D03*
X95250D02*
D03*
D54*
X499110Y360380D02*
D03*
Y386380D02*
D03*
X621030Y354030D02*
D03*
Y380030D02*
D03*
Y396910D02*
D03*
Y422910D02*
D03*
X607060Y240030D02*
D03*
X382270Y286050D02*
D03*
Y260050D02*
D03*
X571500Y260350D02*
D03*
Y234350D02*
D03*
X320040Y407970D02*
D03*
Y381970D02*
D03*
Y421640D02*
D03*
Y447640D02*
D03*
X300990Y277160D02*
D03*
Y251160D02*
D03*
X575310Y301290D02*
D03*
Y275290D02*
D03*
X567690Y188930D02*
D03*
Y214930D02*
D03*
X626110Y155910D02*
D03*
Y181910D02*
D03*
X549910Y257140D02*
D03*
Y231140D02*
D03*
X607060Y214030D02*
D03*
X434340Y78070D02*
D03*
Y52070D02*
D03*
X432840Y98460D02*
D03*
Y124460D02*
D03*
X401320Y366060D02*
D03*
Y340060D02*
D03*
X300990Y318100D02*
D03*
Y292100D02*
D03*
X421640Y366060D02*
D03*
Y340060D02*
D03*
D55*
X567530Y444500D02*
D03*
X547530D02*
D03*
D56*
X270510Y270510D02*
D03*
Y300510D02*
D03*
X184150Y386320D02*
D03*
Y416320D02*
D03*
D57*
X332500Y231140D02*
D03*
X383300D02*
D03*
X353300D02*
D03*
X302500D02*
D03*
D58*
X58270Y210750D02*
D03*
X78270D02*
D03*
X98270D02*
D03*
X118270D02*
D03*
X138270D02*
D03*
X158270D02*
D03*
X178270D02*
D03*
X198270D02*
D03*
Y360750D02*
D03*
X178270D02*
D03*
X158270D02*
D03*
X138270D02*
D03*
X118270D02*
D03*
X98270D02*
D03*
X78270D02*
D03*
X58270D02*
D03*
D59*
X213270Y235750D02*
D03*
Y255750D02*
D03*
Y275750D02*
D03*
Y295750D02*
D03*
Y315750D02*
D03*
Y335750D02*
D03*
D60*
X530860Y279885D02*
D03*
X518160D02*
D03*
X505460D02*
D03*
X492760D02*
D03*
X480060D02*
D03*
X467360D02*
D03*
X454660D02*
D03*
X530860Y225885D02*
D03*
X518160D02*
D03*
X505460D02*
D03*
X492760D02*
D03*
X480060D02*
D03*
X467360D02*
D03*
X454660D02*
D03*
D61*
X459430Y147320D02*
D03*
Y134620D02*
D03*
Y121920D02*
D03*
Y109220D02*
D03*
Y96520D02*
D03*
Y83820D02*
D03*
Y71120D02*
D03*
Y58420D02*
D03*
X515930Y147320D02*
D03*
Y134620D02*
D03*
Y121920D02*
D03*
Y109220D02*
D03*
Y96520D02*
D03*
Y83820D02*
D03*
Y71120D02*
D03*
Y58420D02*
D03*
D62*
X594480Y303530D02*
D03*
X609480D02*
D03*
X596900Y326390D02*
D03*
X581900D02*
D03*
X520460Y171450D02*
D03*
X505460D02*
D03*
D63*
X600960Y156970D02*
D03*
X600960Y188470D02*
D03*
X581660Y115060D02*
D03*
X581660Y146560D02*
D03*
X561340Y115570D02*
D03*
X561340Y147070D02*
D03*
X539750Y146560D02*
D03*
X539750Y115060D02*
D03*
D64*
X543050Y171450D02*
D03*
X574550Y171450D02*
D03*
D65*
X231140Y133730D02*
D03*
D66*
X246140Y106730D02*
D03*
X216140D02*
D03*
D67*
X231140Y108730D02*
D03*
D68*
X256540Y383230D02*
D03*
X269240D02*
D03*
X281940D02*
D03*
X294640D02*
D03*
X256540Y439730D02*
D03*
X269240D02*
D03*
X281940D02*
D03*
X294640D02*
D03*
D69*
X195580Y142120D02*
D03*
Y127120D02*
D03*
D70*
X698820Y458430D02*
D03*
X173080Y154620D02*
D03*
X697550Y135380D02*
D03*
Y277220D02*
D03*
X507240Y494520D02*
D03*
X660080Y53850D02*
D03*
X597460Y88410D02*
D03*
X72750Y86040D02*
D03*
D71*
X718820Y317430D02*
D03*
Y342430D02*
D03*
Y367430D02*
D03*
Y392430D02*
D03*
Y417430D02*
D03*
X132080Y134620D02*
D03*
X107080D02*
D03*
X82080D02*
D03*
X57080D02*
D03*
X32080D02*
D03*
X717550Y119380D02*
D03*
Y94380D02*
D03*
Y186220D02*
D03*
Y211220D02*
D03*
Y236220D02*
D03*
X523240Y514520D02*
D03*
X548240D02*
D03*
X640080Y69850D02*
D03*
Y94850D02*
D03*
D72*
X718820Y442430D02*
D03*
X717550Y69380D02*
D03*
Y261220D02*
D03*
X640080Y119850D02*
D03*
D73*
X157080Y134620D02*
D03*
X573240Y514520D02*
D03*
D74*
X219710Y434340D02*
D03*
Y408940D02*
D03*
D75*
X92710Y500380D02*
D03*
Y398780D02*
D03*
D76*
X143510Y449580D02*
D03*
Y424180D02*
D03*
D77*
X466090Y507950D02*
D03*
X440690D02*
D03*
X252730Y506730D02*
D03*
X227330D02*
D03*
X355600D02*
D03*
X330200D02*
D03*
D78*
X415290Y507950D02*
D03*
X201930Y506730D02*
D03*
X304800D02*
D03*
D79*
X411480Y412750D02*
D03*
D80*
Y387350D02*
D03*
D81*
X556460Y68410D02*
D03*
X31750Y66040D02*
D03*
D82*
X581460Y68410D02*
D03*
X56750Y66040D02*
D03*
D83*
X459740Y433940D02*
D03*
Y408940D02*
D03*
D84*
Y383940D02*
D03*
D85*
X219710Y421640D02*
D03*
D86*
X184150Y45720D02*
D03*
M02*
