G04*
G04 #@! TF.GenerationSoftware,Altium Limited,Altium Designer,23.2.1 (34)*
G04*
G04 Layer_Physical_Order=2*
G04 Layer_Color=16711680*
%FSLAX44Y44*%
%MOMM*%
G71*
G04*
G04 #@! TF.SameCoordinates,68E4E8A6-7446-48DA-AA85-862DCAE7E0FD*
G04*
G04*
G04 #@! TF.FilePolarity,Positive*
G04*
G01*
G75*
%ADD13C,0.1270*%
%ADD70C,1.1000*%
%ADD71C,1.4000*%
%ADD72R,1.4000X1.4000*%
%ADD73R,1.4000X1.4000*%
%ADD77C,1.2000*%
%ADD78R,1.2000X1.2000*%
%ADD79C,1.3500*%
%ADD80R,1.3500X1.3500*%
%ADD81C,1.5500*%
%ADD82R,1.5500X1.5500*%
%ADD87C,0.2032*%
%ADD89O,2.0000X1.0000*%
%ADD90C,3.1400*%
%ADD91C,1.4700*%
%ADD92C,1.5000*%
%ADD93R,1.5000X1.5000*%
%ADD94O,2.0000X1.0000*%
%ADD95C,0.6000*%
G36*
X469613Y502983D02*
X468008Y501143D01*
X467616Y500598D01*
X467295Y500087D01*
X467046Y499610D01*
X466868Y499167D01*
X466761Y498758D01*
X466725Y498384D01*
X465455D01*
X465419Y498758D01*
X465312Y499167D01*
X465134Y499610D01*
X464885Y500087D01*
X464564Y500598D01*
X464172Y501143D01*
X463173Y502336D01*
X462567Y502983D01*
X461890Y503665D01*
X470290D01*
X469613Y502983D01*
D02*
G37*
G36*
X324402Y489063D02*
X323933Y488511D01*
X323742Y488244D01*
X323581Y487982D01*
X323449Y487726D01*
X323347Y487476D01*
X323274Y487231D01*
X323230Y486992D01*
X323215Y486758D01*
X321945D01*
X321930Y486992D01*
X321886Y487231D01*
X321813Y487476D01*
X321711Y487726D01*
X321579Y487982D01*
X321418Y488244D01*
X321227Y488511D01*
X321007Y488784D01*
X320480Y489348D01*
X324680D01*
X324402Y489063D01*
D02*
G37*
G36*
X516777Y483152D02*
X517329Y482683D01*
X517596Y482492D01*
X517858Y482331D01*
X518114Y482199D01*
X518364Y482097D01*
X518609Y482024D01*
X518848Y481980D01*
X519082Y481965D01*
Y480695D01*
X518848Y480680D01*
X518609Y480636D01*
X518364Y480563D01*
X518114Y480461D01*
X517858Y480329D01*
X517596Y480168D01*
X517329Y479977D01*
X517056Y479757D01*
X516492Y479230D01*
Y483430D01*
X516777Y483152D01*
D02*
G37*
G36*
X486297Y476802D02*
X486849Y476333D01*
X487116Y476142D01*
X487378Y475981D01*
X487634Y475849D01*
X487884Y475747D01*
X488129Y475674D01*
X488368Y475630D01*
X488602Y475615D01*
Y474345D01*
X488368Y474330D01*
X488129Y474286D01*
X487884Y474213D01*
X487634Y474111D01*
X487378Y473979D01*
X487116Y473818D01*
X486849Y473627D01*
X486576Y473407D01*
X486012Y472880D01*
Y477080D01*
X486297Y476802D01*
D02*
G37*
G36*
X594758Y466530D02*
X594473Y466808D01*
X593921Y467277D01*
X593654Y467468D01*
X593392Y467629D01*
X593136Y467761D01*
X592886Y467863D01*
X592641Y467936D01*
X592402Y467980D01*
X592168Y467995D01*
Y469265D01*
X592402Y469280D01*
X592641Y469324D01*
X592886Y469397D01*
X593136Y469499D01*
X593392Y469631D01*
X593654Y469792D01*
X593921Y469983D01*
X594194Y470203D01*
X594758Y470730D01*
Y466530D01*
D02*
G37*
G36*
X576467Y470452D02*
X577019Y469983D01*
X577286Y469792D01*
X577548Y469631D01*
X577804Y469499D01*
X578054Y469397D01*
X578299Y469324D01*
X578539Y469280D01*
X578772Y469265D01*
Y467995D01*
X578539Y467980D01*
X578299Y467936D01*
X578054Y467863D01*
X577804Y467761D01*
X577548Y467629D01*
X577286Y467468D01*
X577019Y467277D01*
X576745Y467057D01*
X576182Y466530D01*
Y470730D01*
X576467Y470452D01*
D02*
G37*
G36*
X327333Y467832D02*
X327200Y467590D01*
X327106Y467354D01*
X327050Y467122D01*
X327033Y466897D01*
X327055Y466676D01*
X327115Y466462D01*
X327214Y466252D01*
X327351Y466049D01*
X327528Y465850D01*
X326373Y465209D01*
X326149Y465426D01*
X325402Y466071D01*
X324842Y466495D01*
X323907Y467124D01*
X323571Y467331D01*
X327505Y468080D01*
X327333Y467832D01*
D02*
G37*
G36*
X550998Y467190D02*
X551199Y467052D01*
X551424Y466931D01*
X551673Y466826D01*
X551948Y466738D01*
X552247Y466667D01*
X552570Y466613D01*
X552919Y466575D01*
X553690Y466550D01*
X550720Y463580D01*
X550716Y463978D01*
X550657Y464700D01*
X550603Y465023D01*
X550532Y465322D01*
X550444Y465597D01*
X550339Y465846D01*
X550218Y466071D01*
X550080Y466272D01*
X549925Y466447D01*
X550823Y467345D01*
X550998Y467190D01*
D02*
G37*
G36*
X491871Y453842D02*
X491848Y453489D01*
X491848Y453157D01*
X491871Y452846D01*
X491917Y452557D01*
X491986Y452289D01*
X492079Y452042D01*
X492194Y451816D01*
X492332Y451611D01*
X492494Y451427D01*
X491468Y450658D01*
X491304Y450803D01*
X491112Y450938D01*
X490892Y451064D01*
X490644Y451181D01*
X490368Y451289D01*
X490064Y451387D01*
X489370Y451554D01*
X488982Y451624D01*
X488565Y451685D01*
X491917Y454215D01*
X491871Y453842D01*
D02*
G37*
G36*
X152255Y457427D02*
X151979Y457087D01*
X151733Y456649D01*
X151517Y456115D01*
X151332Y455483D01*
X151177Y454754D01*
X151053Y453928D01*
X150895Y451985D01*
X150860Y449654D01*
X143583Y456930D01*
X144798Y456932D01*
X147858Y457123D01*
X148684Y457247D01*
X149413Y457402D01*
X150045Y457587D01*
X150579Y457803D01*
X151017Y458049D01*
X151357Y458325D01*
X152255Y457427D01*
D02*
G37*
G36*
X548020Y448998D02*
X548064Y448759D01*
X548137Y448514D01*
X548239Y448264D01*
X548371Y448008D01*
X548532Y447746D01*
X548723Y447479D01*
X548943Y447206D01*
X549470Y446642D01*
X545270D01*
X545548Y446927D01*
X546017Y447479D01*
X546208Y447746D01*
X546369Y448008D01*
X546501Y448264D01*
X546603Y448514D01*
X546676Y448759D01*
X546720Y448998D01*
X546735Y449232D01*
X548005D01*
X548020Y448998D01*
D02*
G37*
G36*
X341032Y448768D02*
X340808Y448586D01*
X340607Y448393D01*
X340430Y448188D01*
X340277Y447972D01*
X340147Y447745D01*
X340041Y447506D01*
X339958Y447255D01*
X339899Y446993D01*
X339864Y446720D01*
X339852Y446436D01*
X337820Y446728D01*
X337811Y447002D01*
X337782Y447273D01*
X337734Y447542D01*
X337668Y447807D01*
X337582Y448068D01*
X337478Y448327D01*
X337354Y448582D01*
X337212Y448834D01*
X337050Y449084D01*
X336870Y449329D01*
X341032Y448768D01*
D02*
G37*
G36*
X569424Y444072D02*
X569483Y443350D01*
X569537Y443027D01*
X569608Y442728D01*
X569696Y442453D01*
X569801Y442204D01*
X569922Y441979D01*
X570060Y441778D01*
X570215Y441603D01*
X569317Y440705D01*
X569142Y440860D01*
X568941Y440998D01*
X568716Y441119D01*
X568467Y441224D01*
X568192Y441312D01*
X567893Y441383D01*
X567570Y441437D01*
X567221Y441475D01*
X566450Y441500D01*
X569420Y444470D01*
X569424Y444072D01*
D02*
G37*
G36*
X566390Y441500D02*
X565992Y441496D01*
X565270Y441437D01*
X564947Y441383D01*
X564648Y441312D01*
X564373Y441224D01*
X564124Y441119D01*
X563899Y440998D01*
X563699Y440860D01*
X563523Y440705D01*
X562625Y441603D01*
X562780Y441778D01*
X562918Y441979D01*
X563039Y442204D01*
X563144Y442453D01*
X563232Y442728D01*
X563303Y443027D01*
X563357Y443350D01*
X563395Y443699D01*
X563420Y444470D01*
X566390Y441500D01*
D02*
G37*
G36*
X266518Y443370D02*
X266719Y443232D01*
X266944Y443111D01*
X267193Y443006D01*
X267468Y442918D01*
X267767Y442847D01*
X268090Y442793D01*
X268439Y442755D01*
X269210Y442730D01*
X266240Y439760D01*
X266236Y440158D01*
X266177Y440880D01*
X266123Y441203D01*
X266052Y441502D01*
X265964Y441777D01*
X265859Y442026D01*
X265738Y442251D01*
X265600Y442452D01*
X265445Y442627D01*
X266343Y443525D01*
X266518Y443370D01*
D02*
G37*
G36*
X530054Y442802D02*
X530113Y442080D01*
X530167Y441757D01*
X530238Y441458D01*
X530326Y441183D01*
X530431Y440934D01*
X530552Y440709D01*
X530690Y440508D01*
X530845Y440333D01*
X529947Y439435D01*
X529771Y439590D01*
X529571Y439728D01*
X529346Y439849D01*
X529097Y439954D01*
X528822Y440042D01*
X528523Y440113D01*
X528200Y440167D01*
X527851Y440205D01*
X527080Y440230D01*
X530050Y443200D01*
X530054Y442802D01*
D02*
G37*
G36*
X527020Y440230D02*
X526622Y440226D01*
X525900Y440167D01*
X525577Y440113D01*
X525278Y440042D01*
X525003Y439954D01*
X524754Y439849D01*
X524529Y439728D01*
X524328Y439590D01*
X524153Y439435D01*
X523255Y440333D01*
X523410Y440508D01*
X523548Y440709D01*
X523669Y440934D01*
X523774Y441183D01*
X523862Y441458D01*
X523933Y441757D01*
X523987Y442080D01*
X524025Y442429D01*
X524050Y443200D01*
X527020Y440230D01*
D02*
G37*
G36*
X259544Y439302D02*
X259603Y438580D01*
X259657Y438257D01*
X259728Y437958D01*
X259816Y437683D01*
X259921Y437434D01*
X260042Y437209D01*
X260180Y437009D01*
X260335Y436833D01*
X259437Y435935D01*
X259261Y436090D01*
X259061Y436228D01*
X258836Y436349D01*
X258587Y436454D01*
X258312Y436542D01*
X258013Y436613D01*
X257690Y436667D01*
X257341Y436705D01*
X256570Y436730D01*
X259540Y439700D01*
X259544Y439302D01*
D02*
G37*
G36*
X529477Y431082D02*
X530029Y430613D01*
X530296Y430422D01*
X530558Y430261D01*
X530814Y430129D01*
X531064Y430027D01*
X531309Y429954D01*
X531549Y429910D01*
X531782Y429895D01*
Y428625D01*
X531549Y428610D01*
X531309Y428566D01*
X531064Y428493D01*
X530814Y428391D01*
X530558Y428259D01*
X530296Y428098D01*
X530029Y427907D01*
X529756Y427687D01*
X529192Y427160D01*
Y431360D01*
X529477Y431082D01*
D02*
G37*
G36*
X150361Y426956D02*
X150653Y426507D01*
X150964Y426110D01*
X151294Y425767D01*
X151642Y425476D01*
X152010Y425238D01*
X152397Y425053D01*
X152802Y424921D01*
X153227Y424841D01*
X153670Y424815D01*
Y423545D01*
X153227Y423519D01*
X152802Y423439D01*
X152397Y423307D01*
X152010Y423122D01*
X151642Y422884D01*
X151294Y422593D01*
X150964Y422250D01*
X150653Y421853D01*
X150361Y421404D01*
X150088Y420902D01*
Y427458D01*
X150361Y426956D01*
D02*
G37*
G36*
X597298Y420810D02*
X597013Y421088D01*
X596461Y421557D01*
X596194Y421748D01*
X595932Y421909D01*
X595676Y422041D01*
X595426Y422143D01*
X595181Y422216D01*
X594941Y422260D01*
X594708Y422275D01*
Y423545D01*
X594941Y423560D01*
X595181Y423604D01*
X595426Y423677D01*
X595676Y423779D01*
X595932Y423911D01*
X596194Y424072D01*
X596461Y424263D01*
X596735Y424483D01*
X597298Y425010D01*
Y420810D01*
D02*
G37*
G36*
X317898Y419540D02*
X317613Y419818D01*
X317061Y420287D01*
X316794Y420478D01*
X316532Y420639D01*
X316276Y420771D01*
X316026Y420873D01*
X315781Y420946D01*
X315541Y420990D01*
X315308Y421005D01*
Y422275D01*
X315541Y422290D01*
X315781Y422334D01*
X316026Y422407D01*
X316276Y422509D01*
X316532Y422641D01*
X316794Y422802D01*
X317061Y422993D01*
X317334Y423213D01*
X317898Y423740D01*
Y419540D01*
D02*
G37*
G36*
X368187Y419652D02*
X368739Y419183D01*
X369006Y418992D01*
X369268Y418831D01*
X369524Y418699D01*
X369774Y418597D01*
X370019Y418524D01*
X370258Y418480D01*
X370492Y418465D01*
Y417195D01*
X370258Y417180D01*
X370019Y417136D01*
X369774Y417063D01*
X369524Y416961D01*
X369268Y416829D01*
X369006Y416668D01*
X368739Y416477D01*
X368465Y416257D01*
X367902Y415730D01*
Y419930D01*
X368187Y419652D01*
D02*
G37*
G36*
X575774Y414862D02*
X575833Y414140D01*
X575887Y413817D01*
X575958Y413518D01*
X576046Y413243D01*
X576151Y412994D01*
X576272Y412769D01*
X576410Y412569D01*
X576565Y412393D01*
X575667Y411495D01*
X575491Y411650D01*
X575291Y411788D01*
X575066Y411909D01*
X574817Y412014D01*
X574542Y412102D01*
X574243Y412173D01*
X573920Y412227D01*
X573571Y412265D01*
X572800Y412290D01*
X575770Y415260D01*
X575774Y414862D01*
D02*
G37*
G36*
X274718Y410650D02*
X274433Y410928D01*
X273881Y411397D01*
X273614Y411588D01*
X273352Y411749D01*
X273096Y411881D01*
X272846Y411983D01*
X272601Y412056D01*
X272362Y412100D01*
X272128Y412115D01*
Y413385D01*
X272362Y413400D01*
X272601Y413444D01*
X272846Y413517D01*
X273096Y413619D01*
X273352Y413751D01*
X273614Y413912D01*
X273881Y414103D01*
X274154Y414323D01*
X274718Y414850D01*
Y410650D01*
D02*
G37*
G36*
X543298Y408110D02*
X543013Y408388D01*
X542461Y408857D01*
X542194Y409048D01*
X541932Y409209D01*
X541676Y409341D01*
X541426Y409443D01*
X541181Y409516D01*
X540942Y409560D01*
X540708Y409575D01*
Y410845D01*
X540942Y410860D01*
X541181Y410904D01*
X541426Y410977D01*
X541676Y411079D01*
X541932Y411211D01*
X542194Y411372D01*
X542461Y411563D01*
X542734Y411783D01*
X543298Y412310D01*
Y408110D01*
D02*
G37*
G36*
X495118Y406230D02*
X495319Y406092D01*
X495544Y405971D01*
X495793Y405866D01*
X496068Y405778D01*
X496367Y405707D01*
X496690Y405653D01*
X497039Y405615D01*
X497810Y405590D01*
X494840Y402620D01*
X494836Y403018D01*
X494777Y403740D01*
X494723Y404063D01*
X494652Y404362D01*
X494564Y404637D01*
X494459Y404886D01*
X494338Y405111D01*
X494200Y405312D01*
X494045Y405487D01*
X494943Y406385D01*
X495118Y406230D01*
D02*
G37*
G36*
X244210Y400792D02*
X244084Y400651D01*
X243958Y400477D01*
X243829Y400270D01*
X243700Y400031D01*
X243438Y399454D01*
X243172Y398748D01*
X242901Y397911D01*
X240957Y401633D01*
X241295Y401535D01*
X241618Y401467D01*
X241924Y401428D01*
X242213Y401418D01*
X242486Y401438D01*
X242742Y401488D01*
X242982Y401567D01*
X243205Y401675D01*
X243412Y401813D01*
X243602Y401980D01*
X244210Y400792D01*
D02*
G37*
G36*
X624034Y397082D02*
X624093Y396360D01*
X624147Y396037D01*
X624218Y395738D01*
X624306Y395463D01*
X624411Y395214D01*
X624532Y394989D01*
X624670Y394789D01*
X624825Y394613D01*
X623927Y393715D01*
X623751Y393870D01*
X623551Y394008D01*
X623326Y394129D01*
X623077Y394234D01*
X622802Y394322D01*
X622503Y394393D01*
X622180Y394447D01*
X621831Y394485D01*
X621060Y394510D01*
X624030Y397480D01*
X624034Y397082D01*
D02*
G37*
G36*
X379925Y388277D02*
X380141Y388107D01*
X380368Y387957D01*
X380604Y387828D01*
X380851Y387719D01*
X381108Y387631D01*
X381376Y387562D01*
X381654Y387514D01*
X381942Y387487D01*
X382240Y387480D01*
X379270Y384510D01*
X379263Y384808D01*
X379235Y385097D01*
X379188Y385374D01*
X379119Y385642D01*
X379031Y385899D01*
X378922Y386146D01*
X378793Y386382D01*
X378643Y386609D01*
X378473Y386825D01*
X378283Y387030D01*
X379720Y388467D01*
X379925Y388277D01*
D02*
G37*
G36*
X467192Y385089D02*
X467231Y384981D01*
X467296Y384886D01*
X467387Y384804D01*
X467504Y384734D01*
X467647Y384677D01*
X467816Y384632D01*
X468011Y384600D01*
X468232Y384581D01*
X468479Y384575D01*
Y383305D01*
X468232Y383299D01*
X468011Y383280D01*
X467816Y383248D01*
X467647Y383203D01*
X467504Y383146D01*
X467387Y383076D01*
X467296Y382994D01*
X467231Y382899D01*
X467192Y382791D01*
X467179Y382670D01*
Y385210D01*
X467192Y385089D01*
D02*
G37*
G36*
X267098Y381130D02*
X266813Y381408D01*
X266261Y381877D01*
X265994Y382068D01*
X265732Y382229D01*
X265476Y382361D01*
X265226Y382463D01*
X264981Y382536D01*
X264741Y382580D01*
X264508Y382595D01*
Y383865D01*
X264741Y383880D01*
X264981Y383924D01*
X265226Y383997D01*
X265476Y384099D01*
X265732Y384231D01*
X265994Y384392D01*
X266261Y384583D01*
X266535Y384803D01*
X267098Y385330D01*
Y381130D01*
D02*
G37*
G36*
X385277Y384152D02*
X385304Y383863D01*
X385352Y383586D01*
X385420Y383318D01*
X385509Y383061D01*
X385618Y382814D01*
X385747Y382578D01*
X385897Y382351D01*
X386067Y382135D01*
X386257Y381930D01*
X384820Y380493D01*
X384615Y380683D01*
X384399Y380853D01*
X384172Y381003D01*
X383936Y381132D01*
X383689Y381241D01*
X383432Y381329D01*
X383164Y381398D01*
X382887Y381446D01*
X382598Y381473D01*
X382300Y381480D01*
X385270Y384450D01*
X385277Y384152D01*
D02*
G37*
G36*
X618888Y377930D02*
X618603Y378208D01*
X618051Y378677D01*
X617784Y378868D01*
X617522Y379029D01*
X617266Y379161D01*
X617016Y379263D01*
X616771Y379336D01*
X616531Y379380D01*
X616298Y379395D01*
Y380665D01*
X616531Y380680D01*
X616771Y380724D01*
X617016Y380797D01*
X617266Y380899D01*
X617522Y381031D01*
X617784Y381192D01*
X618051Y381383D01*
X618325Y381603D01*
X618888Y382130D01*
Y377930D01*
D02*
G37*
G36*
X572589Y378290D02*
X572789Y378152D01*
X573014Y378031D01*
X573263Y377926D01*
X573538Y377838D01*
X573837Y377767D01*
X574160Y377713D01*
X574509Y377675D01*
X575280Y377650D01*
X572310Y374680D01*
X572306Y375078D01*
X572247Y375800D01*
X572193Y376123D01*
X572122Y376422D01*
X572034Y376697D01*
X571929Y376946D01*
X571808Y377171D01*
X571670Y377371D01*
X571515Y377547D01*
X572413Y378445D01*
X572589Y378290D01*
D02*
G37*
G36*
X725825Y367772D02*
X725868Y367636D01*
X725932Y367516D01*
X726018Y367412D01*
X726125Y367324D01*
X726254Y367252D01*
X726404Y367196D01*
X726575Y367156D01*
X726767Y367132D01*
X726981Y367124D01*
Y365854D01*
X726733Y365846D01*
X726505Y365824D01*
X726297Y365785D01*
X726110Y365732D01*
X725944Y365664D01*
X725798Y365580D01*
X725672Y365481D01*
X725567Y365367D01*
X725482Y365238D01*
X725418Y365093D01*
X725803Y367924D01*
X725825Y367772D01*
D02*
G37*
G36*
X400654Y363960D02*
X400369Y364238D01*
X399817Y364707D01*
X399550Y364898D01*
X399288Y365059D01*
X399032Y365191D01*
X398782Y365293D01*
X398537Y365366D01*
X398298Y365410D01*
X398064Y365425D01*
Y366695D01*
X398298Y366710D01*
X398537Y366754D01*
X398782Y366827D01*
X399032Y366929D01*
X399288Y367061D01*
X399550Y367222D01*
X399817Y367413D01*
X400090Y367633D01*
X400654Y368160D01*
Y363960D01*
D02*
G37*
G36*
X560220Y364168D02*
X560233Y363953D01*
X560272Y363723D01*
X560337Y363479D01*
X560428Y363220D01*
X560545Y362947D01*
X560687Y362659D01*
X561051Y362038D01*
X561272Y361706D01*
X561519Y361360D01*
X557374Y362039D01*
X557673Y362262D01*
X557941Y362487D01*
X558178Y362715D01*
X558383Y362946D01*
X558556Y363179D01*
X558698Y363414D01*
X558808Y363652D01*
X558887Y363893D01*
X558934Y364136D01*
X558950Y364381D01*
X560220Y364168D01*
D02*
G37*
G36*
X383525Y363577D02*
X383370Y363401D01*
X383232Y363201D01*
X383111Y362976D01*
X383006Y362727D01*
X382918Y362452D01*
X382847Y362153D01*
X382793Y361830D01*
X382755Y361481D01*
X382730Y360710D01*
X379760Y363680D01*
X380158Y363684D01*
X380880Y363743D01*
X381203Y363797D01*
X381502Y363868D01*
X381777Y363956D01*
X382026Y364061D01*
X382251Y364182D01*
X382452Y364320D01*
X382627Y364475D01*
X383525Y363577D01*
D02*
G37*
G36*
X531451Y358174D02*
X531084Y358409D01*
X530090Y358965D01*
X529795Y359101D01*
X529256Y359299D01*
X529014Y359361D01*
X528789Y359398D01*
X528582Y359410D01*
X528300Y360680D01*
X528548Y360696D01*
X528792Y360744D01*
X529030Y360824D01*
X529264Y360936D01*
X529493Y361080D01*
X529716Y361256D01*
X529935Y361464D01*
X530149Y361703D01*
X530358Y361975D01*
X530562Y362279D01*
X531451Y358174D01*
D02*
G37*
G36*
X502396Y361681D02*
X503390Y361125D01*
X503685Y360989D01*
X504224Y360791D01*
X504466Y360729D01*
X504691Y360692D01*
X504898Y360680D01*
X505180Y359410D01*
X504932Y359394D01*
X504688Y359346D01*
X504450Y359266D01*
X504216Y359154D01*
X503987Y359010D01*
X503764Y358834D01*
X503545Y358627D01*
X503331Y358387D01*
X503122Y358115D01*
X502918Y357811D01*
X502029Y361916D01*
X502396Y361681D01*
D02*
G37*
G36*
X160484Y360252D02*
X160543Y359530D01*
X160597Y359207D01*
X160668Y358908D01*
X160756Y358633D01*
X160861Y358384D01*
X160982Y358159D01*
X161120Y357958D01*
X161275Y357783D01*
X160377Y356885D01*
X160201Y357040D01*
X160001Y357178D01*
X159776Y357299D01*
X159527Y357404D01*
X159252Y357492D01*
X158953Y357563D01*
X158630Y357617D01*
X158281Y357655D01*
X157510Y357680D01*
X160480Y360650D01*
X160484Y360252D01*
D02*
G37*
G36*
X339642Y358253D02*
X339173Y357701D01*
X338982Y357434D01*
X338821Y357172D01*
X338689Y356916D01*
X338587Y356666D01*
X338514Y356421D01*
X338470Y356181D01*
X338455Y355948D01*
X337185D01*
X337170Y356181D01*
X337126Y356421D01*
X337053Y356666D01*
X336951Y356916D01*
X336819Y357172D01*
X336658Y357434D01*
X336467Y357701D01*
X336247Y357975D01*
X335720Y358538D01*
X339920D01*
X339642Y358253D01*
D02*
G37*
G36*
X523638Y343340D02*
X523353Y343618D01*
X522801Y344087D01*
X522534Y344278D01*
X522272Y344439D01*
X522016Y344571D01*
X521766Y344673D01*
X521521Y344746D01*
X521282Y344790D01*
X521048Y344805D01*
Y346075D01*
X521282Y346090D01*
X521521Y346134D01*
X521766Y346207D01*
X522016Y346309D01*
X522272Y346441D01*
X522534Y346602D01*
X522801Y346793D01*
X523074Y347013D01*
X523638Y347540D01*
Y343340D01*
D02*
G37*
G36*
X423545Y344478D02*
X423554Y344314D01*
X423581Y344120D01*
X423625Y343894D01*
X423768Y343350D01*
X423982Y342682D01*
X424436Y341448D01*
X420644Y343190D01*
X420954Y343312D01*
X421231Y343450D01*
X421476Y343602D01*
X421688Y343770D01*
X421867Y343952D01*
X422014Y344150D01*
X422128Y344363D01*
X422210Y344591D01*
X422259Y344834D01*
X422275Y345092D01*
X423545Y344478D01*
D02*
G37*
G36*
X338470Y342318D02*
X338514Y342079D01*
X338587Y341834D01*
X338689Y341584D01*
X338821Y341328D01*
X338982Y341066D01*
X339173Y340799D01*
X339393Y340526D01*
X339920Y339962D01*
X335720D01*
X335998Y340247D01*
X336467Y340799D01*
X336658Y341066D01*
X336819Y341328D01*
X336951Y341584D01*
X337053Y341834D01*
X337126Y342079D01*
X337170Y342318D01*
X337185Y342552D01*
X338455D01*
X338470Y342318D01*
D02*
G37*
G36*
X78710Y336090D02*
X78312Y336086D01*
X77590Y336027D01*
X77267Y335973D01*
X76968Y335902D01*
X76693Y335814D01*
X76444Y335709D01*
X76219Y335588D01*
X76019Y335450D01*
X75843Y335295D01*
X74945Y336193D01*
X75100Y336368D01*
X75238Y336569D01*
X75359Y336794D01*
X75464Y337043D01*
X75552Y337318D01*
X75623Y337617D01*
X75677Y337940D01*
X75715Y338289D01*
X75740Y339060D01*
X78710Y336090D01*
D02*
G37*
G36*
X339642Y335393D02*
X339173Y334841D01*
X338982Y334574D01*
X338821Y334312D01*
X338689Y334056D01*
X338587Y333806D01*
X338514Y333561D01*
X338470Y333321D01*
X338455Y333088D01*
X337185D01*
X337170Y333321D01*
X337126Y333561D01*
X337053Y333806D01*
X336951Y334056D01*
X336819Y334312D01*
X336658Y334574D01*
X336467Y334841D01*
X336247Y335115D01*
X335720Y335678D01*
X339920D01*
X339642Y335393D01*
D02*
G37*
G36*
X99612Y334123D02*
X99143Y333571D01*
X98952Y333304D01*
X98791Y333042D01*
X98659Y332786D01*
X98557Y332536D01*
X98484Y332291D01*
X98440Y332052D01*
X98425Y331818D01*
X97155D01*
X97140Y332052D01*
X97096Y332291D01*
X97023Y332536D01*
X96921Y332786D01*
X96789Y333042D01*
X96628Y333304D01*
X96437Y333571D01*
X96217Y333844D01*
X95690Y334408D01*
X99890D01*
X99612Y334123D01*
D02*
G37*
G36*
X584664Y325962D02*
X584723Y325240D01*
X584777Y324917D01*
X584848Y324618D01*
X584936Y324343D01*
X585041Y324094D01*
X585162Y323869D01*
X585300Y323669D01*
X585455Y323493D01*
X584557Y322595D01*
X584381Y322750D01*
X584181Y322888D01*
X583956Y323009D01*
X583707Y323114D01*
X583432Y323202D01*
X583133Y323273D01*
X582810Y323327D01*
X582461Y323365D01*
X581690Y323390D01*
X584660Y326360D01*
X584664Y325962D01*
D02*
G37*
G36*
X473922Y325118D02*
X473853Y324796D01*
X473814Y324491D01*
X473804Y324202D01*
X473823Y323930D01*
X473872Y323674D01*
X473951Y323434D01*
X474059Y323211D01*
X474197Y323004D01*
X474365Y322814D01*
X473174Y322208D01*
X473033Y322333D01*
X472859Y322460D01*
X472653Y322588D01*
X472414Y322717D01*
X471838Y322980D01*
X471131Y323248D01*
X470294Y323521D01*
X474021Y325456D01*
X473922Y325118D01*
D02*
G37*
G36*
X526632Y323963D02*
X526163Y323411D01*
X525972Y323144D01*
X525811Y322882D01*
X525679Y322626D01*
X525577Y322376D01*
X525504Y322131D01*
X525460Y321892D01*
X525445Y321658D01*
X524175D01*
X524160Y321892D01*
X524116Y322131D01*
X524043Y322376D01*
X523941Y322626D01*
X523809Y322882D01*
X523648Y323144D01*
X523457Y323411D01*
X523237Y323685D01*
X522710Y324248D01*
X526910D01*
X526632Y323963D01*
D02*
G37*
G36*
X500932Y322693D02*
X500463Y322141D01*
X500272Y321874D01*
X500111Y321612D01*
X499979Y321356D01*
X499877Y321106D01*
X499804Y320861D01*
X499760Y320621D01*
X499745Y320388D01*
X498475D01*
X498460Y320621D01*
X498416Y320861D01*
X498343Y321106D01*
X498241Y321356D01*
X498109Y321612D01*
X497948Y321874D01*
X497757Y322141D01*
X497537Y322415D01*
X497010Y322978D01*
X501210D01*
X500932Y322693D01*
D02*
G37*
G36*
X88870Y314500D02*
X88472Y314496D01*
X87750Y314437D01*
X87427Y314383D01*
X87128Y314312D01*
X86853Y314224D01*
X86604Y314119D01*
X86379Y313998D01*
X86179Y313860D01*
X86003Y313705D01*
X85105Y314603D01*
X85260Y314778D01*
X85398Y314979D01*
X85519Y315204D01*
X85624Y315453D01*
X85712Y315728D01*
X85783Y316027D01*
X85837Y316350D01*
X85875Y316699D01*
X85900Y317470D01*
X88870Y314500D01*
D02*
G37*
G36*
X325584Y313262D02*
X325643Y312540D01*
X325697Y312217D01*
X325768Y311918D01*
X325856Y311643D01*
X325961Y311394D01*
X326082Y311169D01*
X326220Y310968D01*
X326375Y310793D01*
X325477Y309895D01*
X325302Y310050D01*
X325101Y310188D01*
X324876Y310309D01*
X324627Y310414D01*
X324352Y310502D01*
X324053Y310573D01*
X323730Y310627D01*
X323381Y310665D01*
X322610Y310690D01*
X325580Y313660D01*
X325584Y313262D01*
D02*
G37*
G36*
X384092Y306183D02*
X383623Y305631D01*
X383432Y305364D01*
X383271Y305102D01*
X383139Y304846D01*
X383037Y304596D01*
X382964Y304351D01*
X382920Y304111D01*
X382905Y303878D01*
X381635D01*
X381620Y304111D01*
X381576Y304351D01*
X381503Y304596D01*
X381401Y304846D01*
X381269Y305102D01*
X381108Y305364D01*
X380917Y305631D01*
X380697Y305905D01*
X380170Y306468D01*
X384370D01*
X384092Y306183D01*
D02*
G37*
G36*
X525450Y304777D02*
X525826Y304469D01*
X526012Y304344D01*
X526195Y304237D01*
X526377Y304150D01*
X526557Y304081D01*
X526735Y304032D01*
X526912Y304001D01*
X527086Y303990D01*
X524575Y302686D01*
X524658Y302824D01*
X524718Y302961D01*
X524754Y303099D01*
X524768Y303237D01*
X524758Y303374D01*
X524725Y303512D01*
X524669Y303649D01*
X524589Y303786D01*
X524487Y303924D01*
X524361Y304061D01*
X525259Y304959D01*
X525450Y304777D01*
D02*
G37*
G36*
X607338Y301430D02*
X607053Y301708D01*
X606501Y302177D01*
X606234Y302368D01*
X605972Y302529D01*
X605716Y302661D01*
X605466Y302763D01*
X605221Y302836D01*
X604981Y302880D01*
X604748Y302895D01*
Y304165D01*
X604981Y304180D01*
X605221Y304224D01*
X605466Y304297D01*
X605716Y304399D01*
X605972Y304531D01*
X606234Y304692D01*
X606501Y304883D01*
X606774Y305103D01*
X607338Y305630D01*
Y301430D01*
D02*
G37*
G36*
X465518Y298890D02*
X465233Y299168D01*
X464681Y299637D01*
X464414Y299828D01*
X464152Y299989D01*
X463896Y300121D01*
X463646Y300223D01*
X463401Y300296D01*
X463162Y300340D01*
X462928Y300355D01*
Y301625D01*
X463162Y301640D01*
X463401Y301684D01*
X463646Y301757D01*
X463896Y301859D01*
X464152Y301991D01*
X464414Y302152D01*
X464681Y302343D01*
X464954Y302563D01*
X465518Y303090D01*
Y298890D01*
D02*
G37*
G36*
X512574Y300562D02*
X512633Y299840D01*
X512687Y299517D01*
X512758Y299218D01*
X512846Y298943D01*
X512951Y298694D01*
X513072Y298469D01*
X513210Y298269D01*
X513365Y298093D01*
X512467Y297195D01*
X512291Y297350D01*
X512091Y297488D01*
X511866Y297609D01*
X511617Y297714D01*
X511342Y297802D01*
X511043Y297873D01*
X510720Y297927D01*
X510371Y297965D01*
X509600Y297990D01*
X512570Y300960D01*
X512574Y300562D01*
D02*
G37*
G36*
X382920Y290249D02*
X382964Y290009D01*
X383037Y289764D01*
X383139Y289514D01*
X383271Y289258D01*
X383432Y288996D01*
X383623Y288729D01*
X383843Y288456D01*
X384370Y287892D01*
X380170D01*
X380448Y288177D01*
X380917Y288729D01*
X381108Y288996D01*
X381269Y289258D01*
X381401Y289514D01*
X381503Y289764D01*
X381576Y290009D01*
X381620Y290249D01*
X381635Y290482D01*
X382905D01*
X382920Y290249D01*
D02*
G37*
G36*
X594758Y287460D02*
X594473Y287738D01*
X593921Y288207D01*
X593654Y288398D01*
X593392Y288559D01*
X593136Y288691D01*
X592886Y288793D01*
X592641Y288866D01*
X592402Y288910D01*
X592168Y288925D01*
Y290195D01*
X592402Y290210D01*
X592641Y290254D01*
X592886Y290327D01*
X593136Y290429D01*
X593392Y290561D01*
X593654Y290722D01*
X593921Y290913D01*
X594194Y291133D01*
X594758Y291660D01*
Y287460D01*
D02*
G37*
G36*
X449299Y287111D02*
X449137Y286926D01*
X448998Y286722D01*
X448883Y286496D01*
X448792Y286249D01*
X448723Y285981D01*
X448679Y285692D01*
X448657Y285383D01*
X448659Y285052D01*
X448685Y284701D01*
X448733Y284328D01*
X445361Y286832D01*
X445779Y286896D01*
X446862Y287141D01*
X447167Y287241D01*
X447443Y287349D01*
X447691Y287467D01*
X447911Y287593D01*
X448102Y287728D01*
X448265Y287873D01*
X449299Y287111D01*
D02*
G37*
G36*
X189782Y283323D02*
X189313Y282771D01*
X189122Y282504D01*
X188961Y282242D01*
X188829Y281986D01*
X188727Y281736D01*
X188654Y281491D01*
X188610Y281252D01*
X188595Y281018D01*
X187325D01*
X187310Y281252D01*
X187266Y281491D01*
X187193Y281736D01*
X187091Y281986D01*
X186959Y282242D01*
X186798Y282504D01*
X186607Y282771D01*
X186387Y283044D01*
X185860Y283608D01*
X190060D01*
X189782Y283323D01*
D02*
G37*
G36*
X483855Y282782D02*
X483700Y282607D01*
X483562Y282406D01*
X483441Y282181D01*
X483336Y281932D01*
X483248Y281657D01*
X483177Y281358D01*
X483123Y281035D01*
X483085Y280686D01*
X483060Y279915D01*
X480090Y282885D01*
X480488Y282889D01*
X481210Y282948D01*
X481533Y283002D01*
X481832Y283073D01*
X482107Y283161D01*
X482356Y283266D01*
X482581Y283387D01*
X482781Y283525D01*
X482957Y283680D01*
X483855Y282782D01*
D02*
G37*
G36*
X471155D02*
X471000Y282607D01*
X470862Y282406D01*
X470741Y282181D01*
X470636Y281932D01*
X470548Y281657D01*
X470477Y281358D01*
X470423Y281035D01*
X470385Y280686D01*
X470360Y279915D01*
X467390Y282885D01*
X467788Y282889D01*
X468510Y282948D01*
X468833Y283002D01*
X469132Y283073D01*
X469407Y283161D01*
X469656Y283266D01*
X469881Y283387D01*
X470081Y283525D01*
X470257Y283680D01*
X471155Y282782D01*
D02*
G37*
G36*
X332559Y283040D02*
X332759Y282902D01*
X332984Y282781D01*
X333233Y282676D01*
X333508Y282588D01*
X333807Y282517D01*
X334130Y282463D01*
X334479Y282425D01*
X335250Y282400D01*
X332280Y279430D01*
X332276Y279828D01*
X332217Y280550D01*
X332163Y280873D01*
X332092Y281172D01*
X332004Y281447D01*
X331899Y281696D01*
X331778Y281921D01*
X331640Y282122D01*
X331485Y282297D01*
X332383Y283195D01*
X332559Y283040D01*
D02*
G37*
G36*
X343328Y282433D02*
X343535Y282295D01*
X343758Y282187D01*
X343998Y282108D01*
X344254Y282058D01*
X344527Y282038D01*
X344817Y282048D01*
X345122Y282087D01*
X345445Y282155D01*
X345783Y282253D01*
X343839Y278531D01*
X343703Y278965D01*
X343170Y280379D01*
X343040Y280651D01*
X342782Y281097D01*
X342656Y281271D01*
X342530Y281412D01*
X343138Y282600D01*
X343328Y282433D01*
D02*
G37*
G36*
X287644Y279582D02*
X287460Y279358D01*
X287297Y279128D01*
X287156Y278891D01*
X287037Y278646D01*
X286939Y278395D01*
X286864Y278136D01*
X286809Y277870D01*
X286777Y277597D01*
X286766Y277317D01*
X284734D01*
X284723Y277597D01*
X284691Y277870D01*
X284636Y278136D01*
X284561Y278395D01*
X284463Y278646D01*
X284344Y278891D01*
X284203Y279128D01*
X284040Y279358D01*
X283856Y279582D01*
X283650Y279798D01*
X287850D01*
X287644Y279582D01*
D02*
G37*
G36*
X549895Y279757D02*
X549740Y279582D01*
X549602Y279381D01*
X549481Y279156D01*
X549376Y278907D01*
X549288Y278632D01*
X549217Y278333D01*
X549163Y278010D01*
X549125Y277661D01*
X549100Y276890D01*
X546130Y279860D01*
X546528Y279864D01*
X547250Y279923D01*
X547573Y279977D01*
X547872Y280048D01*
X548147Y280136D01*
X548396Y280241D01*
X548621Y280362D01*
X548821Y280500D01*
X548997Y280655D01*
X549895Y279757D01*
D02*
G37*
G36*
X492730Y276885D02*
X492332Y276881D01*
X491610Y276822D01*
X491287Y276768D01*
X490988Y276697D01*
X490713Y276609D01*
X490464Y276504D01*
X490239Y276383D01*
X490038Y276245D01*
X489863Y276090D01*
X488965Y276988D01*
X489120Y277164D01*
X489258Y277364D01*
X489379Y277589D01*
X489484Y277838D01*
X489572Y278113D01*
X489643Y278412D01*
X489697Y278735D01*
X489735Y279084D01*
X489760Y279855D01*
X492730Y276885D01*
D02*
G37*
G36*
X58972Y271893D02*
X58503Y271341D01*
X58312Y271074D01*
X58151Y270812D01*
X58019Y270556D01*
X57917Y270306D01*
X57844Y270061D01*
X57800Y269821D01*
X57785Y269588D01*
X56515D01*
X56500Y269821D01*
X56456Y270061D01*
X56383Y270306D01*
X56281Y270556D01*
X56149Y270812D01*
X55988Y271074D01*
X55797Y271341D01*
X55577Y271614D01*
X55050Y272178D01*
X59250D01*
X58972Y271893D01*
D02*
G37*
G36*
X432264Y272622D02*
X432323Y271900D01*
X432377Y271577D01*
X432448Y271278D01*
X432536Y271003D01*
X432641Y270754D01*
X432762Y270529D01*
X432900Y270329D01*
X433055Y270153D01*
X432157Y269255D01*
X431982Y269410D01*
X431781Y269548D01*
X431556Y269669D01*
X431307Y269774D01*
X431032Y269862D01*
X430733Y269933D01*
X430410Y269987D01*
X430061Y270025D01*
X429290Y270050D01*
X432260Y273020D01*
X432264Y272622D01*
D02*
G37*
G36*
X401497Y264170D02*
X401307Y263965D01*
X401137Y263749D01*
X400987Y263522D01*
X400858Y263286D01*
X400749Y263039D01*
X400661Y262782D01*
X400592Y262514D01*
X400545Y262236D01*
X400517Y261948D01*
X400510Y261650D01*
X397540Y264620D01*
X397838Y264627D01*
X398126Y264655D01*
X398404Y264702D01*
X398672Y264771D01*
X398929Y264859D01*
X399176Y264968D01*
X399412Y265097D01*
X399639Y265247D01*
X399855Y265417D01*
X400060Y265607D01*
X401497Y264170D01*
D02*
G37*
G36*
X532100Y261160D02*
X531702Y261156D01*
X530980Y261097D01*
X530657Y261043D01*
X530358Y260972D01*
X530083Y260884D01*
X529834Y260779D01*
X529609Y260658D01*
X529408Y260520D01*
X529233Y260365D01*
X528335Y261263D01*
X528490Y261439D01*
X528628Y261639D01*
X528749Y261864D01*
X528854Y262113D01*
X528942Y262388D01*
X529013Y262687D01*
X529067Y263010D01*
X529105Y263359D01*
X529130Y264130D01*
X532100Y261160D01*
D02*
G37*
G36*
X376348Y263383D02*
X376555Y263245D01*
X376778Y263137D01*
X377018Y263058D01*
X377275Y263008D01*
X377547Y262988D01*
X377836Y262998D01*
X378142Y263037D01*
X378465Y263105D01*
X378803Y263203D01*
X376859Y259481D01*
X376723Y259916D01*
X376190Y261329D01*
X376060Y261601D01*
X375802Y262047D01*
X375676Y262221D01*
X375550Y262362D01*
X376158Y263550D01*
X376348Y263383D01*
D02*
G37*
G36*
X350984Y259922D02*
X351043Y259200D01*
X351097Y258877D01*
X351168Y258578D01*
X351256Y258303D01*
X351361Y258054D01*
X351482Y257829D01*
X351620Y257628D01*
X351775Y257453D01*
X350877Y256555D01*
X350701Y256710D01*
X350501Y256848D01*
X350276Y256969D01*
X350027Y257074D01*
X349752Y257162D01*
X349453Y257233D01*
X349130Y257287D01*
X348781Y257325D01*
X348010Y257350D01*
X350980Y260320D01*
X350984Y259922D01*
D02*
G37*
G36*
X298645Y254957D02*
X298861Y254787D01*
X299088Y254637D01*
X299324Y254508D01*
X299571Y254399D01*
X299828Y254310D01*
X300096Y254242D01*
X300373Y254195D01*
X300662Y254167D01*
X300960Y254160D01*
X297990Y251190D01*
X297983Y251488D01*
X297955Y251777D01*
X297908Y252054D01*
X297840Y252322D01*
X297751Y252579D01*
X297642Y252826D01*
X297513Y253062D01*
X297363Y253289D01*
X297193Y253505D01*
X297003Y253710D01*
X298440Y255147D01*
X298645Y254957D01*
D02*
G37*
G36*
X390890Y249738D02*
X390904Y249518D01*
X390944Y249285D01*
X391011Y249040D01*
X391105Y248783D01*
X391226Y248513D01*
X391374Y248231D01*
X391549Y247937D01*
X391979Y247312D01*
X392235Y246981D01*
X388066Y247492D01*
X388362Y247730D01*
X388626Y247969D01*
X388859Y248208D01*
X389061Y248448D01*
X389232Y248688D01*
X389371Y248929D01*
X389480Y249170D01*
X389558Y249412D01*
X389604Y249655D01*
X389620Y249898D01*
X390890Y249738D01*
D02*
G37*
G36*
X361612Y248886D02*
X361739Y248789D01*
X361863Y248714D01*
X361987Y248660D01*
X362109Y248627D01*
X362229Y248616D01*
X362348Y248626D01*
X362466Y248658D01*
X362582Y248711D01*
X362696Y248785D01*
X361491Y246464D01*
X361486Y246609D01*
X361461Y246759D01*
X361418Y246913D01*
X361356Y247071D01*
X361275Y247233D01*
X361175Y247399D01*
X361056Y247570D01*
X360918Y247744D01*
X360586Y248106D01*
X361484Y249004D01*
X361612Y248886D01*
D02*
G37*
G36*
X514335Y245467D02*
X514180Y245292D01*
X514042Y245091D01*
X513921Y244866D01*
X513816Y244617D01*
X513728Y244342D01*
X513657Y244043D01*
X513603Y243720D01*
X513565Y243371D01*
X513540Y242600D01*
X510570Y245570D01*
X510968Y245574D01*
X511690Y245633D01*
X512013Y245687D01*
X512312Y245758D01*
X512587Y245846D01*
X512836Y245951D01*
X513061Y246072D01*
X513261Y246210D01*
X513437Y246365D01*
X514335Y245467D01*
D02*
G37*
G36*
X147290Y242110D02*
X146892Y242106D01*
X146170Y242047D01*
X145847Y241993D01*
X145548Y241922D01*
X145273Y241834D01*
X145024Y241729D01*
X144799Y241608D01*
X144599Y241470D01*
X144423Y241315D01*
X143525Y242213D01*
X143680Y242388D01*
X143818Y242589D01*
X143939Y242814D01*
X144044Y243063D01*
X144132Y243338D01*
X144203Y243637D01*
X144257Y243960D01*
X144295Y244309D01*
X144320Y245080D01*
X147290Y242110D01*
D02*
G37*
G36*
X725898Y243670D02*
X725631Y243343D01*
X725394Y242924D01*
X725185Y242414D01*
X725006Y241813D01*
X724857Y241121D01*
X724737Y240337D01*
X724585Y238496D01*
X724550Y236290D01*
X717620Y243220D01*
X718769Y243222D01*
X721667Y243407D01*
X722451Y243527D01*
X723143Y243676D01*
X723745Y243855D01*
X724254Y244064D01*
X724673Y244301D01*
X725000Y244568D01*
X725898Y243670D01*
D02*
G37*
G36*
X195550Y231950D02*
X195152Y231946D01*
X194430Y231887D01*
X194107Y231833D01*
X193808Y231762D01*
X193533Y231674D01*
X193284Y231569D01*
X193059Y231448D01*
X192859Y231310D01*
X192683Y231155D01*
X191785Y232053D01*
X191940Y232229D01*
X192078Y232429D01*
X192199Y232654D01*
X192304Y232903D01*
X192392Y233178D01*
X192463Y233477D01*
X192517Y233800D01*
X192555Y234149D01*
X192580Y234920D01*
X195550Y231950D01*
D02*
G37*
G36*
X107144Y229442D02*
X107203Y228720D01*
X107257Y228397D01*
X107328Y228098D01*
X107416Y227823D01*
X107521Y227574D01*
X107642Y227349D01*
X107780Y227148D01*
X107935Y226973D01*
X107037Y226075D01*
X106861Y226230D01*
X106661Y226368D01*
X106436Y226489D01*
X106187Y226594D01*
X105912Y226682D01*
X105613Y226753D01*
X105290Y226807D01*
X104941Y226845D01*
X104170Y226870D01*
X107140Y229840D01*
X107144Y229442D01*
D02*
G37*
G36*
X477338Y229525D02*
X477539Y229387D01*
X477764Y229266D01*
X478013Y229161D01*
X478288Y229073D01*
X478587Y229002D01*
X478910Y228948D01*
X479259Y228910D01*
X480030Y228885D01*
X477060Y225915D01*
X477056Y226313D01*
X476997Y227035D01*
X476943Y227358D01*
X476872Y227657D01*
X476784Y227932D01*
X476679Y228181D01*
X476558Y228406D01*
X476420Y228606D01*
X476265Y228782D01*
X477163Y229680D01*
X477338Y229525D01*
D02*
G37*
G36*
X414879Y229481D02*
X415472Y229032D01*
X415755Y228850D01*
X416028Y228696D01*
X416292Y228570D01*
X416547Y228472D01*
X416792Y228402D01*
X417028Y228360D01*
X417255Y228346D01*
X417344Y227076D01*
X417105Y227061D01*
X416864Y227015D01*
X416620Y226939D01*
X416375Y226833D01*
X416127Y226696D01*
X415877Y226529D01*
X415625Y226332D01*
X415371Y226104D01*
X415115Y225846D01*
X414856Y225557D01*
X414568Y229747D01*
X414879Y229481D01*
D02*
G37*
G36*
X384780Y225600D02*
X384382Y225596D01*
X383660Y225537D01*
X383337Y225483D01*
X383038Y225412D01*
X382763Y225324D01*
X382514Y225219D01*
X382289Y225098D01*
X382089Y224960D01*
X381913Y224805D01*
X381015Y225703D01*
X381170Y225879D01*
X381308Y226079D01*
X381429Y226304D01*
X381534Y226553D01*
X381622Y226828D01*
X381693Y227127D01*
X381747Y227450D01*
X381785Y227799D01*
X381810Y228570D01*
X384780Y225600D01*
D02*
G37*
G36*
X399404Y225147D02*
X399220Y224923D01*
X399057Y224693D01*
X398916Y224456D01*
X398797Y224211D01*
X398699Y223960D01*
X398624Y223701D01*
X398569Y223435D01*
X398537Y223162D01*
X398526Y222882D01*
X396494D01*
X396483Y223162D01*
X396451Y223435D01*
X396396Y223701D01*
X396321Y223960D01*
X396223Y224211D01*
X396104Y224456D01*
X395963Y224693D01*
X395800Y224923D01*
X395616Y225147D01*
X395410Y225363D01*
X399610D01*
X399404Y225147D01*
D02*
G37*
G36*
X457664Y225457D02*
X457723Y224735D01*
X457777Y224412D01*
X457848Y224113D01*
X457936Y223838D01*
X458041Y223589D01*
X458162Y223364D01*
X458300Y223164D01*
X458455Y222988D01*
X457557Y222090D01*
X457382Y222245D01*
X457181Y222383D01*
X456956Y222504D01*
X456707Y222609D01*
X456432Y222697D01*
X456133Y222768D01*
X455810Y222822D01*
X455461Y222860D01*
X454690Y222885D01*
X457660Y225855D01*
X457664Y225457D01*
D02*
G37*
G36*
X406952Y213473D02*
X406483Y212921D01*
X406292Y212654D01*
X406131Y212392D01*
X405999Y212136D01*
X405897Y211886D01*
X405824Y211641D01*
X405780Y211402D01*
X405765Y211168D01*
X404495D01*
X404480Y211402D01*
X404436Y211641D01*
X404363Y211886D01*
X404261Y212136D01*
X404129Y212392D01*
X403968Y212654D01*
X403777Y212921D01*
X403557Y213195D01*
X403030Y213758D01*
X407230D01*
X406952Y213473D01*
D02*
G37*
G36*
X456580Y207698D02*
X456624Y207459D01*
X456697Y207214D01*
X456799Y206964D01*
X456931Y206708D01*
X457092Y206446D01*
X457283Y206179D01*
X457503Y205905D01*
X458030Y205342D01*
X455043D01*
X452930Y203230D01*
X452926Y203628D01*
X452867Y204350D01*
X452813Y204673D01*
X452742Y204972D01*
X452654Y205247D01*
X452549Y205496D01*
X452428Y205721D01*
X452290Y205921D01*
X452135Y206097D01*
X453033Y206995D01*
X453209Y206840D01*
X453409Y206702D01*
X453634Y206581D01*
X453883Y206476D01*
X454158Y206388D01*
X454457Y206317D01*
X454652Y206284D01*
X454768Y206446D01*
X454929Y206708D01*
X455061Y206964D01*
X455163Y207214D01*
X455236Y207459D01*
X455280Y207698D01*
X455295Y207932D01*
X456565D01*
X456580Y207698D01*
D02*
G37*
G36*
X80562Y208393D02*
X80093Y207841D01*
X79902Y207574D01*
X79741Y207312D01*
X79609Y207056D01*
X79507Y206806D01*
X79434Y206561D01*
X79390Y206322D01*
X79375Y206088D01*
X78105D01*
X78090Y206322D01*
X78046Y206561D01*
X77973Y206806D01*
X77871Y207056D01*
X77739Y207312D01*
X77578Y207574D01*
X77387Y207841D01*
X77167Y208114D01*
X76640Y208678D01*
X80840D01*
X80562Y208393D01*
D02*
G37*
G36*
X590368Y204300D02*
X590569Y204162D01*
X590794Y204041D01*
X591043Y203936D01*
X591318Y203848D01*
X591617Y203777D01*
X591940Y203723D01*
X592289Y203685D01*
X593060Y203660D01*
X590090Y200690D01*
X590086Y201088D01*
X590027Y201810D01*
X589973Y202133D01*
X589902Y202432D01*
X589814Y202707D01*
X589709Y202956D01*
X589588Y203181D01*
X589450Y203382D01*
X589295Y203557D01*
X590193Y204455D01*
X590368Y204300D01*
D02*
G37*
G36*
X508552Y200773D02*
X508083Y200221D01*
X507892Y199954D01*
X507731Y199692D01*
X507599Y199436D01*
X507497Y199186D01*
X507424Y198941D01*
X507380Y198701D01*
X507365Y198468D01*
X506095D01*
X506080Y198701D01*
X506036Y198941D01*
X505963Y199186D01*
X505861Y199436D01*
X505729Y199692D01*
X505568Y199954D01*
X505377Y200221D01*
X505157Y200494D01*
X504630Y201058D01*
X508830D01*
X508552Y200773D01*
D02*
G37*
G36*
X431175Y198660D02*
X431204Y198432D01*
X431253Y198216D01*
X431322Y198013D01*
X431410Y197821D01*
X431517Y197642D01*
X431645Y197474D01*
X431792Y197319D01*
X431958Y197176D01*
X432144Y197045D01*
X428916D01*
X429102Y197176D01*
X429268Y197319D01*
X429415Y197474D01*
X429543Y197642D01*
X429650Y197821D01*
X429738Y198013D01*
X429807Y198216D01*
X429856Y198432D01*
X429885Y198660D01*
X429895Y198900D01*
X431165D01*
X431175Y198660D01*
D02*
G37*
G36*
X67961Y199193D02*
X68010Y198949D01*
X68091Y198713D01*
X68204Y198486D01*
X68350Y198266D01*
X68528Y198054D01*
X68739Y197850D01*
X68982Y197654D01*
X69257Y197467D01*
X69565Y197287D01*
X65526Y196134D01*
X65744Y196527D01*
X66388Y197878D01*
X66491Y198161D01*
X66629Y198661D01*
X66663Y198877D01*
X66675Y199072D01*
X67945Y199444D01*
X67961Y199193D01*
D02*
G37*
G36*
X242540Y193850D02*
X242142Y193846D01*
X241420Y193787D01*
X241097Y193733D01*
X240798Y193662D01*
X240523Y193574D01*
X240274Y193469D01*
X240049Y193348D01*
X239848Y193210D01*
X239673Y193055D01*
X238775Y193953D01*
X238930Y194128D01*
X239068Y194329D01*
X239189Y194554D01*
X239294Y194803D01*
X239382Y195078D01*
X239453Y195377D01*
X239507Y195700D01*
X239545Y196049D01*
X239570Y196820D01*
X242540Y193850D01*
D02*
G37*
G36*
X336038Y194423D02*
X335569Y193871D01*
X335379Y193604D01*
X335218Y193342D01*
X335086Y193086D01*
X334983Y192836D01*
X334910Y192591D01*
X334866Y192351D01*
X334851Y192118D01*
X333581D01*
X333567Y192351D01*
X333523Y192591D01*
X333450Y192836D01*
X333347Y193086D01*
X333215Y193342D01*
X333054Y193604D01*
X332864Y193871D01*
X332644Y194144D01*
X332116Y194708D01*
X336316D01*
X336038Y194423D01*
D02*
G37*
G36*
X433534Y194088D02*
X433593Y193367D01*
X433647Y193043D01*
X433718Y192744D01*
X433806Y192470D01*
X433911Y192220D01*
X434032Y191995D01*
X434170Y191795D01*
X434325Y191619D01*
X433427Y190721D01*
X433251Y190876D01*
X433051Y191014D01*
X432826Y191136D01*
X432577Y191240D01*
X432302Y191328D01*
X432003Y191399D01*
X431680Y191454D01*
X431331Y191491D01*
X430560Y191516D01*
X433530Y194486D01*
X433534Y194088D01*
D02*
G37*
G36*
X468448Y194140D02*
X468649Y194002D01*
X468874Y193881D01*
X469123Y193776D01*
X469398Y193688D01*
X469697Y193617D01*
X470020Y193563D01*
X470369Y193525D01*
X471140Y193500D01*
X468170Y190530D01*
X468166Y190928D01*
X468107Y191650D01*
X468053Y191973D01*
X467982Y192272D01*
X467894Y192547D01*
X467789Y192796D01*
X467668Y193021D01*
X467530Y193221D01*
X467375Y193397D01*
X468273Y194295D01*
X468448Y194140D01*
D02*
G37*
G36*
X226030Y191310D02*
X225632Y191306D01*
X224910Y191247D01*
X224587Y191193D01*
X224288Y191122D01*
X224013Y191034D01*
X223764Y190929D01*
X223539Y190808D01*
X223339Y190670D01*
X223163Y190515D01*
X222265Y191413D01*
X222420Y191588D01*
X222558Y191789D01*
X222679Y192014D01*
X222784Y192263D01*
X222872Y192538D01*
X222943Y192837D01*
X222997Y193160D01*
X223035Y193509D01*
X223060Y194280D01*
X226030Y191310D01*
D02*
G37*
G36*
X598386Y190866D02*
X598541Y190736D01*
X598610Y190689D01*
X598674Y190654D01*
X598732Y190631D01*
X598784Y190620D01*
X598831Y190620D01*
X598872Y190633D01*
X598907Y190658D01*
X598046Y189181D01*
X598047Y189223D01*
X598034Y189274D01*
X598006Y189336D01*
X597964Y189408D01*
X597907Y189490D01*
X597835Y189582D01*
X597648Y189796D01*
X597402Y190051D01*
X598300Y190949D01*
X598386Y190866D01*
D02*
G37*
G36*
X136240Y188648D02*
X136284Y188409D01*
X136357Y188164D01*
X136459Y187914D01*
X136591Y187658D01*
X136752Y187396D01*
X136943Y187129D01*
X137163Y186856D01*
X137690Y186292D01*
X133490D01*
X133768Y186577D01*
X134237Y187129D01*
X134428Y187396D01*
X134589Y187658D01*
X134721Y187914D01*
X134823Y188164D01*
X134896Y188409D01*
X134940Y188648D01*
X134955Y188882D01*
X136225D01*
X136240Y188648D01*
D02*
G37*
G36*
X121900D02*
X121944Y188409D01*
X122017Y188164D01*
X122119Y187914D01*
X122251Y187658D01*
X122412Y187396D01*
X122603Y187129D01*
X122823Y186856D01*
X123350Y186292D01*
X119150D01*
X119428Y186577D01*
X119897Y187129D01*
X120088Y187396D01*
X120249Y187658D01*
X120381Y187914D01*
X120483Y188164D01*
X120556Y188409D01*
X120600Y188648D01*
X120615Y188882D01*
X121885D01*
X121900Y188648D01*
D02*
G37*
G36*
X449223Y182425D02*
X448833Y182440D01*
X448124Y182412D01*
X447805Y182370D01*
X447509Y182308D01*
X447236Y182227D01*
X446987Y182127D01*
X446761Y182008D01*
X446559Y181870D01*
X446380Y181712D01*
X445529Y182657D01*
X445680Y182828D01*
X445818Y183026D01*
X445941Y183250D01*
X446050Y183499D01*
X446145Y183775D01*
X446226Y184076D01*
X446293Y184404D01*
X446345Y184757D01*
X446408Y185542D01*
X449223Y182425D01*
D02*
G37*
G36*
X623388Y185550D02*
X623589Y185412D01*
X623814Y185291D01*
X624063Y185186D01*
X624338Y185098D01*
X624637Y185027D01*
X624960Y184973D01*
X625309Y184935D01*
X626080Y184910D01*
X623110Y181940D01*
X623106Y182338D01*
X623047Y183060D01*
X622993Y183383D01*
X622922Y183682D01*
X622834Y183957D01*
X622729Y184206D01*
X622608Y184431D01*
X622470Y184632D01*
X622315Y184807D01*
X623213Y185705D01*
X623388Y185550D01*
D02*
G37*
G36*
X591102Y182993D02*
X590633Y182441D01*
X590442Y182174D01*
X590281Y181912D01*
X590149Y181656D01*
X590047Y181406D01*
X589974Y181161D01*
X589930Y180921D01*
X589915Y180688D01*
X588645D01*
X588630Y180921D01*
X588586Y181161D01*
X588513Y181406D01*
X588411Y181656D01*
X588279Y181912D01*
X588118Y182174D01*
X587927Y182441D01*
X587707Y182715D01*
X587180Y183278D01*
X591380D01*
X591102Y182993D01*
D02*
G37*
G36*
X57001Y182766D02*
X56926Y182486D01*
X56880Y182220D01*
X56861Y181968D01*
X56870Y181729D01*
X56908Y181504D01*
X56974Y181292D01*
X57068Y181094D01*
X57190Y180909D01*
X57340Y180738D01*
X56314Y179968D01*
X56144Y180124D01*
X55950Y180274D01*
X55735Y180417D01*
X55497Y180553D01*
X55236Y180683D01*
X54647Y180924D01*
X54319Y181035D01*
X53595Y181236D01*
X57105Y183059D01*
X57001Y182766D01*
D02*
G37*
G36*
X417717Y183432D02*
X418269Y182963D01*
X418536Y182772D01*
X418798Y182611D01*
X419054Y182479D01*
X419304Y182377D01*
X419549Y182304D01*
X419789Y182260D01*
X420022Y182245D01*
Y180975D01*
X419789Y180960D01*
X419549Y180916D01*
X419304Y180843D01*
X419054Y180741D01*
X418798Y180609D01*
X418536Y180448D01*
X418269Y180257D01*
X417995Y180037D01*
X417432Y179510D01*
Y183710D01*
X417717Y183432D01*
D02*
G37*
G36*
X164382Y181723D02*
X163913Y181171D01*
X163722Y180904D01*
X163561Y180642D01*
X163429Y180386D01*
X163327Y180136D01*
X163254Y179891D01*
X163210Y179652D01*
X163195Y179418D01*
X161925D01*
X161910Y179652D01*
X161866Y179891D01*
X161793Y180136D01*
X161691Y180386D01*
X161559Y180642D01*
X161398Y180904D01*
X161207Y181171D01*
X160987Y181444D01*
X160460Y182008D01*
X164660D01*
X164382Y181723D01*
D02*
G37*
G36*
X459326Y175949D02*
X459370Y175709D01*
X459443Y175464D01*
X459546Y175214D01*
X459678Y174958D01*
X459839Y174696D01*
X460029Y174429D01*
X460249Y174156D01*
X460776Y173592D01*
X456576D01*
X456855Y173877D01*
X457323Y174429D01*
X457514Y174696D01*
X457675Y174958D01*
X457807Y175214D01*
X457910Y175464D01*
X457983Y175709D01*
X458027Y175949D01*
X458041Y176182D01*
X459311D01*
X459326Y175949D01*
D02*
G37*
G36*
X489403Y175022D02*
X489236Y174832D01*
X489098Y174625D01*
X488990Y174402D01*
X488911Y174162D01*
X488862Y173906D01*
X488842Y173633D01*
X488851Y173344D01*
X488890Y173038D01*
X488959Y172715D01*
X489057Y172377D01*
X485334Y174321D01*
X485769Y174457D01*
X487182Y174990D01*
X487454Y175120D01*
X487900Y175378D01*
X488074Y175504D01*
X488216Y175630D01*
X489403Y175022D01*
D02*
G37*
G36*
X484061Y169350D02*
X483777Y169628D01*
X483225Y170097D01*
X482958Y170288D01*
X482696Y170449D01*
X482440Y170581D01*
X482189Y170683D01*
X481944Y170756D01*
X481705Y170800D01*
X481472Y170815D01*
Y172085D01*
X481705Y172100D01*
X481944Y172144D01*
X482189Y172217D01*
X482440Y172319D01*
X482696Y172451D01*
X482958Y172612D01*
X483225Y172803D01*
X483498Y173023D01*
X484061Y173550D01*
Y169350D01*
D02*
G37*
G36*
X70206Y166497D02*
X70392Y166363D01*
X70609Y166236D01*
X70855Y166114D01*
X71130Y165998D01*
X71770Y165784D01*
X72134Y165686D01*
X72952Y165507D01*
X69455Y163181D01*
X69521Y163543D01*
X69561Y163886D01*
X69576Y164209D01*
X69566Y164512D01*
X69529Y164796D01*
X69468Y165061D01*
X69380Y165306D01*
X69268Y165531D01*
X69129Y165737D01*
X68966Y165923D01*
X70049Y166636D01*
X70206Y166497D01*
D02*
G37*
G36*
X583328Y160460D02*
X583043Y160738D01*
X582491Y161207D01*
X582224Y161398D01*
X581962Y161559D01*
X581706Y161691D01*
X581456Y161793D01*
X581211Y161866D01*
X580971Y161910D01*
X580738Y161925D01*
Y163195D01*
X580971Y163210D01*
X581211Y163254D01*
X581456Y163327D01*
X581706Y163429D01*
X581962Y163561D01*
X582224Y163722D01*
X582491Y163913D01*
X582765Y164133D01*
X583328Y164660D01*
Y160460D01*
D02*
G37*
G36*
X85740Y161978D02*
X85784Y161739D01*
X85857Y161494D01*
X85959Y161244D01*
X86091Y160988D01*
X86252Y160726D01*
X86443Y160459D01*
X86663Y160186D01*
X87190Y159622D01*
X82990D01*
X83268Y159907D01*
X83737Y160459D01*
X83928Y160726D01*
X84089Y160988D01*
X84221Y161244D01*
X84323Y161494D01*
X84396Y161739D01*
X84440Y161978D01*
X84455Y162212D01*
X85725D01*
X85740Y161978D01*
D02*
G37*
G36*
X543545Y160377D02*
X543390Y160201D01*
X543252Y160001D01*
X543131Y159776D01*
X543026Y159527D01*
X542938Y159252D01*
X542867Y158953D01*
X542813Y158630D01*
X542775Y158281D01*
X542750Y157510D01*
X539780Y160480D01*
X540178Y160484D01*
X540900Y160543D01*
X541223Y160597D01*
X541522Y160668D01*
X541797Y160756D01*
X542046Y160861D01*
X542271Y160982D01*
X542472Y161120D01*
X542647Y161275D01*
X543545Y160377D01*
D02*
G37*
G36*
X516018Y155380D02*
X515733Y155658D01*
X515181Y156127D01*
X514914Y156318D01*
X514652Y156479D01*
X514396Y156611D01*
X514146Y156713D01*
X513901Y156786D01*
X513661Y156830D01*
X513428Y156845D01*
Y158115D01*
X513661Y158130D01*
X513901Y158174D01*
X514146Y158247D01*
X514396Y158349D01*
X514652Y158481D01*
X514914Y158642D01*
X515181Y158833D01*
X515454Y159053D01*
X516018Y159580D01*
Y155380D01*
D02*
G37*
G36*
X406864Y153242D02*
X406923Y152520D01*
X406977Y152197D01*
X407048Y151898D01*
X407136Y151623D01*
X407241Y151374D01*
X407362Y151149D01*
X407500Y150948D01*
X407655Y150773D01*
X406757Y149875D01*
X406581Y150030D01*
X406381Y150168D01*
X406156Y150289D01*
X405907Y150394D01*
X405632Y150482D01*
X405333Y150553D01*
X405010Y150607D01*
X404661Y150645D01*
X403890Y150670D01*
X406860Y153640D01*
X406864Y153242D01*
D02*
G37*
G36*
X97677Y152952D02*
X98229Y152483D01*
X98496Y152292D01*
X98758Y152131D01*
X99014Y151999D01*
X99264Y151897D01*
X99509Y151824D01*
X99748Y151780D01*
X99982Y151765D01*
Y150495D01*
X99748Y150480D01*
X99509Y150436D01*
X99264Y150363D01*
X99014Y150261D01*
X98758Y150129D01*
X98496Y149968D01*
X98229Y149777D01*
X97956Y149557D01*
X97392Y149030D01*
Y153230D01*
X97677Y152952D01*
D02*
G37*
G36*
X483855Y150217D02*
X483700Y150042D01*
X483562Y149841D01*
X483441Y149616D01*
X483336Y149367D01*
X483248Y149092D01*
X483177Y148793D01*
X483123Y148470D01*
X483085Y148121D01*
X483060Y147350D01*
X480090Y150320D01*
X480488Y150324D01*
X481210Y150383D01*
X481533Y150437D01*
X481832Y150508D01*
X482107Y150596D01*
X482356Y150701D01*
X482581Y150822D01*
X482781Y150960D01*
X482957Y151115D01*
X483855Y150217D01*
D02*
G37*
G36*
X585455Y148947D02*
X585300Y148771D01*
X585162Y148571D01*
X585041Y148346D01*
X584936Y148097D01*
X584848Y147822D01*
X584777Y147523D01*
X584723Y147200D01*
X584685Y146851D01*
X584660Y146080D01*
X581690Y149050D01*
X582088Y149054D01*
X582810Y149113D01*
X583133Y149167D01*
X583432Y149238D01*
X583707Y149326D01*
X583956Y149431D01*
X584181Y149552D01*
X584381Y149690D01*
X584557Y149845D01*
X585455Y148947D01*
D02*
G37*
G36*
X140428Y142070D02*
X140161Y141743D01*
X139924Y141324D01*
X139715Y140815D01*
X139536Y140213D01*
X139387Y139521D01*
X139267Y138737D01*
X139115Y136896D01*
X139080Y134690D01*
X132150Y141620D01*
X133299Y141622D01*
X136197Y141807D01*
X136981Y141927D01*
X137673Y142076D01*
X138274Y142255D01*
X138784Y142464D01*
X139203Y142701D01*
X139530Y142968D01*
X140428Y142070D01*
D02*
G37*
G36*
X518047Y136442D02*
X518599Y135973D01*
X518866Y135782D01*
X519128Y135621D01*
X519384Y135489D01*
X519634Y135387D01*
X519879Y135314D01*
X520118Y135270D01*
X520352Y135255D01*
Y133985D01*
X520118Y133970D01*
X519879Y133926D01*
X519634Y133853D01*
X519384Y133751D01*
X519128Y133619D01*
X518866Y133458D01*
X518599Y133267D01*
X518326Y133047D01*
X517762Y132520D01*
Y136720D01*
X518047Y136442D01*
D02*
G37*
G36*
X478072Y130923D02*
X477603Y130371D01*
X477412Y130104D01*
X477251Y129842D01*
X477119Y129586D01*
X477017Y129336D01*
X476944Y129091D01*
X476900Y128851D01*
X476885Y128618D01*
X475615D01*
X475600Y128851D01*
X475556Y129091D01*
X475483Y129336D01*
X475381Y129586D01*
X475249Y129842D01*
X475088Y130104D01*
X474897Y130371D01*
X474677Y130645D01*
X474150Y131208D01*
X478350D01*
X478072Y130923D01*
D02*
G37*
G36*
X192168Y124900D02*
X191883Y125178D01*
X191331Y125647D01*
X191064Y125838D01*
X190802Y125999D01*
X190546Y126131D01*
X190296Y126233D01*
X190051Y126306D01*
X189811Y126350D01*
X189578Y126365D01*
Y127635D01*
X189811Y127650D01*
X190051Y127694D01*
X190296Y127767D01*
X190546Y127869D01*
X190802Y128001D01*
X191064Y128162D01*
X191331Y128353D01*
X191604Y128573D01*
X192168Y129100D01*
Y124900D01*
D02*
G37*
G36*
X303515Y123372D02*
X303360Y123196D01*
X303222Y122996D01*
X303101Y122771D01*
X302996Y122522D01*
X302908Y122247D01*
X302837Y121948D01*
X302783Y121625D01*
X302745Y121276D01*
X302720Y120505D01*
X299750Y123475D01*
X300148Y123479D01*
X300870Y123538D01*
X301193Y123592D01*
X301492Y123663D01*
X301767Y123751D01*
X302016Y123856D01*
X302241Y123977D01*
X302442Y124115D01*
X302617Y124270D01*
X303515Y123372D01*
D02*
G37*
G36*
X103959Y123020D02*
X104159Y122882D01*
X104384Y122761D01*
X104633Y122656D01*
X104908Y122568D01*
X105207Y122497D01*
X105530Y122443D01*
X105879Y122405D01*
X106650Y122380D01*
X103680Y119410D01*
X103676Y119808D01*
X103617Y120530D01*
X103563Y120853D01*
X103492Y121152D01*
X103404Y121427D01*
X103299Y121676D01*
X103178Y121901D01*
X103040Y122101D01*
X102885Y122277D01*
X103783Y123175D01*
X103959Y123020D01*
D02*
G37*
G36*
X605205Y121325D02*
X605228Y120618D01*
X605269Y120299D01*
X605329Y120004D01*
X605409Y119731D01*
X605508Y119482D01*
X605627Y119257D01*
X605765Y119054D01*
X605923Y118875D01*
X604971Y118031D01*
X604800Y118182D01*
X604603Y118319D01*
X604379Y118443D01*
X604130Y118553D01*
X603854Y118649D01*
X603552Y118731D01*
X603224Y118800D01*
X602870Y118855D01*
X602083Y118924D01*
X605223Y121713D01*
X605205Y121325D01*
D02*
G37*
G36*
X56874Y117076D02*
X56815Y117208D01*
X56741Y117325D01*
X56651Y117429D01*
X56546Y117519D01*
X56425Y117595D01*
X56288Y117658D01*
X56136Y117706D01*
X55969Y117741D01*
X55785Y117761D01*
X55587Y117768D01*
Y119038D01*
X55810Y119045D01*
X56018Y119064D01*
X56211Y119095D01*
X56388Y119140D01*
X56550Y119197D01*
X56697Y119266D01*
X56828Y119349D01*
X56943Y119444D01*
X57044Y119552D01*
X57129Y119672D01*
X56874Y117076D01*
D02*
G37*
G36*
X121300Y118799D02*
X121344Y118559D01*
X121417Y118314D01*
X121519Y118064D01*
X121651Y117808D01*
X121812Y117546D01*
X122003Y117279D01*
X122223Y117006D01*
X122750Y116442D01*
X118550D01*
X118828Y116727D01*
X119297Y117279D01*
X119488Y117546D01*
X119649Y117808D01*
X119781Y118064D01*
X119883Y118314D01*
X119956Y118559D01*
X120000Y118799D01*
X120015Y119032D01*
X121285D01*
X121300Y118799D01*
D02*
G37*
G36*
X537608Y113470D02*
X537323Y113748D01*
X536771Y114217D01*
X536504Y114408D01*
X536242Y114569D01*
X535986Y114701D01*
X535736Y114803D01*
X535491Y114876D01*
X535252Y114920D01*
X535018Y114935D01*
Y116205D01*
X535252Y116220D01*
X535491Y116264D01*
X535736Y116337D01*
X535986Y116439D01*
X536242Y116571D01*
X536504Y116732D01*
X536771Y116923D01*
X537044Y117143D01*
X537608Y117670D01*
Y113470D01*
D02*
G37*
G36*
X398537Y114833D02*
X398569Y114560D01*
X398624Y114294D01*
X398699Y114035D01*
X398797Y113784D01*
X398916Y113539D01*
X399057Y113302D01*
X399220Y113072D01*
X399404Y112849D01*
X399610Y112632D01*
X395410D01*
X395616Y112849D01*
X395800Y113072D01*
X395963Y113302D01*
X396104Y113539D01*
X396223Y113784D01*
X396321Y114035D01*
X396396Y114294D01*
X396451Y114560D01*
X396483Y114833D01*
X396494Y115113D01*
X398526D01*
X398537Y114833D01*
D02*
G37*
G36*
X724552Y118161D02*
X724737Y115263D01*
X724857Y114479D01*
X725006Y113787D01*
X725185Y113186D01*
X725394Y112676D01*
X725631Y112257D01*
X725898Y111930D01*
X725000Y111032D01*
X724673Y111299D01*
X724254Y111536D01*
X723745Y111745D01*
X723143Y111924D01*
X722451Y112073D01*
X721667Y112193D01*
X719826Y112346D01*
X717620Y112380D01*
X724550Y119310D01*
X724552Y118161D01*
D02*
G37*
G36*
X457288Y107120D02*
X457003Y107398D01*
X456451Y107867D01*
X456184Y108058D01*
X455922Y108219D01*
X455666Y108351D01*
X455416Y108453D01*
X455171Y108526D01*
X454932Y108570D01*
X454698Y108585D01*
Y109855D01*
X454932Y109870D01*
X455171Y109914D01*
X455416Y109987D01*
X455666Y110089D01*
X455922Y110221D01*
X456184Y110382D01*
X456451Y110573D01*
X456725Y110793D01*
X457288Y111320D01*
Y107120D01*
D02*
G37*
G36*
X20784Y104982D02*
X20843Y104260D01*
X20897Y103937D01*
X20968Y103638D01*
X21056Y103363D01*
X21161Y103114D01*
X21282Y102889D01*
X21420Y102689D01*
X21575Y102513D01*
X20677Y101615D01*
X20501Y101770D01*
X20301Y101908D01*
X20076Y102029D01*
X19827Y102134D01*
X19552Y102222D01*
X19253Y102293D01*
X18930Y102347D01*
X18581Y102385D01*
X17810Y102410D01*
X20780Y105380D01*
X20784Y104982D01*
D02*
G37*
G36*
X435267Y100282D02*
X435819Y99813D01*
X436086Y99622D01*
X436348Y99461D01*
X436604Y99329D01*
X436854Y99227D01*
X437099Y99154D01*
X437338Y99110D01*
X437572Y99095D01*
Y97825D01*
X437338Y97810D01*
X437099Y97766D01*
X436854Y97693D01*
X436604Y97591D01*
X436348Y97459D01*
X436086Y97298D01*
X435819Y97107D01*
X435546Y96887D01*
X434982Y96360D01*
Y100560D01*
X435267Y100282D01*
D02*
G37*
G36*
X173272Y96213D02*
X172803Y95661D01*
X172612Y95394D01*
X172451Y95132D01*
X172319Y94876D01*
X172217Y94626D01*
X172144Y94381D01*
X172100Y94142D01*
X172085Y93908D01*
X170815D01*
X170800Y94142D01*
X170756Y94381D01*
X170683Y94626D01*
X170581Y94876D01*
X170449Y95132D01*
X170288Y95394D01*
X170097Y95661D01*
X169877Y95934D01*
X169350Y96498D01*
X173550D01*
X173272Y96213D01*
D02*
G37*
G36*
X160572D02*
X160103Y95661D01*
X159912Y95394D01*
X159751Y95132D01*
X159619Y94876D01*
X159517Y94626D01*
X159444Y94381D01*
X159400Y94142D01*
X159385Y93908D01*
X158115D01*
X158100Y94142D01*
X158056Y94381D01*
X157983Y94626D01*
X157881Y94876D01*
X157749Y95132D01*
X157588Y95394D01*
X157397Y95661D01*
X157177Y95934D01*
X156650Y96498D01*
X160850D01*
X160572Y96213D01*
D02*
G37*
G36*
X147872D02*
X147403Y95661D01*
X147212Y95394D01*
X147051Y95132D01*
X146919Y94876D01*
X146817Y94626D01*
X146744Y94381D01*
X146700Y94142D01*
X146685Y93908D01*
X145415D01*
X145400Y94142D01*
X145356Y94381D01*
X145283Y94626D01*
X145181Y94876D01*
X145049Y95132D01*
X144888Y95394D01*
X144697Y95661D01*
X144477Y95934D01*
X143950Y96498D01*
X148150D01*
X147872Y96213D01*
D02*
G37*
G36*
X195909Y95252D02*
X195605Y95048D01*
X195333Y94839D01*
X195093Y94625D01*
X194886Y94406D01*
X194710Y94183D01*
X194566Y93954D01*
X194454Y93720D01*
X194374Y93482D01*
X194326Y93238D01*
X194310Y92990D01*
X193040Y93272D01*
X193028Y93479D01*
X192991Y93704D01*
X192929Y93946D01*
X192842Y94207D01*
X192731Y94485D01*
X192434Y95094D01*
X192249Y95425D01*
X191804Y96141D01*
X195909Y95252D01*
D02*
G37*
G36*
X178888Y81110D02*
X179089Y80972D01*
X179314Y80851D01*
X179563Y80746D01*
X179838Y80658D01*
X180137Y80587D01*
X180460Y80533D01*
X180809Y80495D01*
X181580Y80470D01*
X178610Y77500D01*
X178606Y77898D01*
X178547Y78620D01*
X178493Y78943D01*
X178422Y79242D01*
X178334Y79517D01*
X178229Y79766D01*
X178108Y79991D01*
X177970Y80191D01*
X177815Y80367D01*
X178713Y81265D01*
X178888Y81110D01*
D02*
G37*
G36*
X122364Y75324D02*
X122071Y75599D01*
X121506Y76062D01*
X121234Y76249D01*
X120968Y76409D01*
X120710Y76539D01*
X120458Y76640D01*
X120213Y76712D01*
X119974Y76755D01*
X119743Y76770D01*
X119715Y78040D01*
X119950Y78055D01*
X120190Y78099D01*
X120435Y78173D01*
X120684Y78277D01*
X120937Y78411D01*
X121195Y78574D01*
X121458Y78767D01*
X121725Y78989D01*
X121996Y79241D01*
X122273Y79523D01*
X122364Y75324D01*
D02*
G37*
G36*
X210707Y72942D02*
X211259Y72473D01*
X211526Y72282D01*
X211788Y72121D01*
X212044Y71989D01*
X212294Y71887D01*
X212539Y71814D01*
X212778Y71770D01*
X213012Y71755D01*
Y70485D01*
X212778Y70470D01*
X212539Y70426D01*
X212294Y70353D01*
X212044Y70251D01*
X211788Y70119D01*
X211526Y69958D01*
X211259Y69767D01*
X210986Y69547D01*
X210422Y69020D01*
Y73220D01*
X210707Y72942D01*
D02*
G37*
G36*
X194310Y68018D02*
X194322Y67811D01*
X194359Y67586D01*
X194421Y67344D01*
X194508Y67083D01*
X194619Y66805D01*
X194916Y66196D01*
X195101Y65865D01*
X195546Y65149D01*
X191441Y66038D01*
X191745Y66242D01*
X192017Y66451D01*
X192257Y66665D01*
X192464Y66884D01*
X192640Y67107D01*
X192784Y67336D01*
X192896Y67570D01*
X192976Y67808D01*
X193024Y68052D01*
X193040Y68300D01*
X194310Y68018D01*
D02*
G37*
G36*
X168038Y61400D02*
X167753Y61678D01*
X167201Y62147D01*
X166934Y62338D01*
X166672Y62499D01*
X166416Y62631D01*
X166166Y62733D01*
X165921Y62806D01*
X165681Y62850D01*
X165448Y62865D01*
Y64135D01*
X165681Y64150D01*
X165921Y64194D01*
X166166Y64267D01*
X166416Y64369D01*
X166672Y64501D01*
X166934Y64662D01*
X167201Y64853D01*
X167474Y65073D01*
X168038Y65600D01*
Y61400D01*
D02*
G37*
G36*
X39502Y64673D02*
X39699Y61427D01*
X39828Y60553D01*
X39989Y59783D01*
X40181Y59116D01*
X40406Y58553D01*
X40661Y58095D01*
X40949Y57739D01*
X40051Y56841D01*
X39695Y57129D01*
X39237Y57384D01*
X38674Y57608D01*
X38007Y57801D01*
X37237Y57962D01*
X36363Y58091D01*
X34303Y58254D01*
X31827Y58290D01*
X39500Y65963D01*
X39502Y64673D01*
D02*
G37*
G36*
X363311Y50357D02*
X363020Y50377D01*
X362738Y50374D01*
X362466Y50347D01*
X362202Y50296D01*
X361948Y50222D01*
X361703Y50124D01*
X361467Y50002D01*
X361240Y49857D01*
X361022Y49689D01*
X360813Y49497D01*
X359526Y51083D01*
X359714Y51285D01*
X359885Y51498D01*
X360040Y51723D01*
X360177Y51958D01*
X360297Y52204D01*
X360401Y52462D01*
X360487Y52730D01*
X360556Y53010D01*
X360609Y53300D01*
X360644Y53602D01*
X363311Y50357D01*
D02*
G37*
G36*
X92537Y49366D02*
X92737Y49228D01*
X92962Y49106D01*
X93211Y49002D01*
X93486Y48913D01*
X93785Y48841D01*
X94109Y48786D01*
X94458Y48748D01*
X95230Y48720D01*
X92250Y45760D01*
X92247Y46157D01*
X92191Y46878D01*
X92137Y47202D01*
X92066Y47501D01*
X91979Y47775D01*
X91875Y48025D01*
X91754Y48250D01*
X91615Y48450D01*
X91461Y48626D01*
X92361Y49521D01*
X92537Y49366D01*
D02*
G37*
G36*
X202580Y43868D02*
X202624Y43629D01*
X202697Y43384D01*
X202799Y43134D01*
X202931Y42878D01*
X203092Y42616D01*
X203283Y42349D01*
X203503Y42076D01*
X204030Y41512D01*
X199830D01*
X200108Y41797D01*
X200577Y42349D01*
X200768Y42616D01*
X200929Y42878D01*
X201061Y43134D01*
X201163Y43384D01*
X201236Y43629D01*
X201280Y43868D01*
X201295Y44102D01*
X202565D01*
X202580Y43868D01*
D02*
G37*
G36*
X185972Y43293D02*
X185503Y42741D01*
X185312Y42474D01*
X185151Y42212D01*
X185019Y41956D01*
X184917Y41706D01*
X184844Y41461D01*
X184800Y41221D01*
X184785Y40988D01*
X183515D01*
X183500Y41221D01*
X183456Y41461D01*
X183383Y41706D01*
X183281Y41956D01*
X183149Y42212D01*
X182988Y42474D01*
X182797Y42741D01*
X182577Y43014D01*
X182050Y43578D01*
X186250D01*
X185972Y43293D01*
D02*
G37*
G36*
X229688Y41264D02*
X229912Y41080D01*
X230142Y40917D01*
X230379Y40776D01*
X230624Y40657D01*
X230875Y40559D01*
X231134Y40484D01*
X231400Y40429D01*
X231673Y40397D01*
X231953Y40386D01*
Y38354D01*
X231673Y38343D01*
X231400Y38311D01*
X231134Y38256D01*
X230875Y38181D01*
X230624Y38083D01*
X230379Y37964D01*
X230142Y37823D01*
X229912Y37660D01*
X229688Y37476D01*
X229472Y37270D01*
Y41470D01*
X229688Y41264D01*
D02*
G37*
G36*
X210707Y33572D02*
X211259Y33103D01*
X211526Y32912D01*
X211788Y32751D01*
X212044Y32619D01*
X212294Y32517D01*
X212539Y32444D01*
X212778Y32400D01*
X213012Y32385D01*
Y31115D01*
X212778Y31100D01*
X212539Y31056D01*
X212294Y30983D01*
X212044Y30881D01*
X211788Y30749D01*
X211526Y30588D01*
X211259Y30397D01*
X210986Y30177D01*
X210422Y29650D01*
Y33850D01*
X210707Y33572D01*
D02*
G37*
D13*
X175265Y30480D02*
X184150Y39365D01*
X67310Y30480D02*
X175265D01*
X184150Y39365D02*
Y45720D01*
X201930Y39370D02*
Y156210D01*
X242570Y196850D01*
X158750Y89952D02*
Y98640D01*
X153670Y80010D02*
X165100D01*
X202438Y22860D02*
X702310D01*
X190500D02*
Y54610D01*
X165100Y80010D02*
X190500Y54610D01*
X158750Y89952D02*
X193040Y55662D01*
Y32258D02*
X202438Y22860D01*
X190500D02*
X194310Y19050D01*
X193040Y32258D02*
Y55662D01*
X194310Y19050D02*
X706120D01*
X31750Y66040D02*
X67310Y30480D01*
X726981Y366489D02*
X737870Y355600D01*
Y50800D02*
Y355600D01*
X718820Y367430D02*
X719761Y366489D01*
X726981D01*
X706120Y19050D02*
X737870Y50800D01*
X702310Y22860D02*
X734060Y54610D01*
Y102870D01*
X676910Y299720D02*
Y464820D01*
X54610Y553720D02*
X588010D01*
X676910Y464820D01*
X67310Y195473D02*
Y327660D01*
Y195473D02*
X68133Y194650D01*
X85090Y313690D02*
X88900Y317500D01*
X85090Y157480D02*
Y313690D01*
X65289Y75695D02*
X95250Y45734D01*
Y45720D02*
Y45734D01*
X47495Y75695D02*
X65289D01*
X17780Y105410D02*
X47495Y75695D01*
X55115Y78235D02*
X68343D01*
X69173Y77405D01*
X124395D01*
X16510Y116840D02*
X55115Y78235D01*
X16510Y116840D02*
Y176302D01*
X154940Y63500D02*
X170180D01*
X92710Y125730D02*
X154940Y63500D01*
X124395Y77405D02*
X124460Y77470D01*
X95250Y151130D02*
X123190D01*
X150456Y178396D01*
X96520Y129540D02*
Y142022D01*
X90345Y148197D02*
X96520Y142022D01*
X90345Y148197D02*
Y238462D01*
X150456Y178396D02*
Y206336D01*
X154940Y175260D02*
Y194310D01*
X120650Y140970D02*
X154940Y175260D01*
X120650Y114300D02*
Y140970D01*
X96520Y129540D02*
X106680Y119380D01*
X92710Y125730D02*
Y139700D01*
X78740Y153670D02*
X92710Y139700D01*
X78740Y153670D02*
Y210820D01*
X90345Y238462D02*
X97790Y245907D01*
Y336550D01*
X44837Y194160D02*
X57150Y206473D01*
Y274320D01*
X171450Y87630D02*
Y98640D01*
Y87630D02*
X181610Y77470D01*
X39370Y374530D02*
Y538480D01*
Y374530D02*
X45079Y368821D01*
Y204871D02*
Y368821D01*
X16510Y176302D02*
X45079Y204871D01*
X39370Y538480D02*
X54610Y553720D01*
X676910Y299720D02*
X681990Y294640D01*
X728980D01*
X734060Y289560D01*
X717550Y236220D02*
X734060Y252730D01*
Y289560D01*
X193675Y97155D02*
X194310Y97790D01*
X193040Y63500D02*
X193675Y64135D01*
Y97155D01*
X717550Y119380D02*
X734060Y102870D01*
X146050Y87630D02*
Y98640D01*
Y87630D02*
X153670Y80010D01*
X559100Y359585D02*
X559585Y360070D01*
Y383045D01*
X561340Y384800D02*
Y386080D01*
X559585Y383045D02*
X561340Y384800D01*
X459740Y383940D02*
X526650D01*
X555910Y354680D01*
X606140D01*
X535940Y481330D02*
X553720Y463550D01*
X514350Y481330D02*
X535940D01*
X531368Y473885D02*
X547370Y457883D01*
X508807Y473885D02*
X531368D01*
X483870Y474980D02*
X507712D01*
X508807Y473885D01*
X547370Y444500D02*
Y457883D01*
X527050Y429260D02*
X535940D01*
X554990Y410210D01*
Y400733D02*
Y410210D01*
Y400733D02*
X566245Y389478D01*
Y383715D02*
Y389478D01*
Y383715D02*
X575310Y374650D01*
X511074Y439595D02*
X523415D01*
X527050Y443230D01*
X491105Y459565D02*
X511074Y439595D01*
X486918Y459565D02*
X491105D01*
X527050Y443230D02*
X530685Y439595D01*
X561515D01*
X566420Y444500D01*
X572770Y415290D02*
X608030Y380030D01*
X621030Y397510D02*
X629920Y388620D01*
X606140Y354680D02*
X629920Y378460D01*
Y388620D01*
X608030Y380030D02*
X621030D01*
X482600Y455247D02*
X486918Y459565D01*
X488950Y454073D02*
X532813Y410210D01*
X488950Y454073D02*
Y454660D01*
X482600Y417830D02*
Y455247D01*
X533735Y360045D02*
X534370Y360680D01*
X501015Y360045D02*
X533735D01*
X500380Y359410D02*
X501015Y360045D01*
X588010Y422910D02*
X599440D01*
X482600Y417830D02*
X497840Y402590D01*
X574040Y468630D02*
X596900D01*
X566420Y444500D02*
X588010Y422910D01*
X532813Y410210D02*
X545440D01*
X412575Y227505D02*
X412781Y227711D01*
X447040Y232410D02*
X473535D01*
X573070Y234950D02*
X626110Y181910D01*
X445770Y231140D02*
X447040Y232410D01*
X283210Y234950D02*
X573070D01*
X473535Y232410D02*
X480060Y225885D01*
X412781Y227711D02*
X421259D01*
X426720Y232410D02*
X455930Y203200D01*
X157480Y360680D02*
X283210Y234950D01*
X407670Y232410D02*
X426720D01*
X405130Y229870D02*
X407670Y232410D01*
X389890Y245110D02*
X390255Y245475D01*
Y262525D01*
X361035Y248555D02*
X363210Y246380D01*
X359775Y248555D02*
X361035D01*
X363210Y246380D02*
X364490D01*
X347980Y260350D02*
X359775Y248555D01*
X378460Y222250D02*
X384810Y228600D01*
X143510Y424180D02*
X153670D01*
X143510Y449580D02*
X153670Y459740D01*
X546100Y276860D02*
X558800Y289560D01*
X596900D01*
X580390Y213360D02*
X593090Y200660D01*
X567690Y214930D02*
X568970D01*
X570540Y213360D01*
X580390D01*
X568595Y190435D02*
X570734D01*
X570799Y190500D01*
X567690Y189530D02*
X568595Y190435D01*
X570799Y190500D02*
X597851D01*
X601980Y121920D02*
X617220Y106680D01*
X154940Y194310D02*
X195580Y234950D01*
X132080Y134620D02*
X162560Y165100D01*
Y184150D01*
X56891Y178896D02*
X72390Y163397D01*
X54310Y182870D02*
Y184150D01*
Y182870D02*
X56891Y180289D01*
Y178896D02*
Y180289D01*
X72390Y162560D02*
Y163397D01*
X320215Y434165D02*
X324945Y429435D01*
Y363973D02*
Y429435D01*
X320215Y434165D02*
Y476587D01*
X256540Y439730D02*
X274630Y421640D01*
X320215Y476587D02*
X322580Y478952D01*
X274630Y421640D02*
X320040D01*
X317675Y297005D02*
Y356703D01*
X324945Y363973D01*
X317675Y297005D02*
X335280Y279400D01*
X255270Y412750D02*
X276860D01*
X240030Y397510D02*
X255270Y412750D01*
X345440Y307340D02*
X390255Y262525D01*
X345440Y307340D02*
Y363220D01*
X382270Y284480D02*
Y308610D01*
X337820Y300990D02*
X379730Y259080D01*
X337820Y300990D02*
Y337820D01*
X327660Y297180D02*
X346710Y278130D01*
X327660Y297180D02*
Y308610D01*
X322580Y313690D02*
X327660Y308610D01*
X337820Y337820D02*
Y360680D01*
X413005Y377190D02*
X422910Y367285D01*
X399411Y379099D02*
X401320Y377190D01*
X413005D01*
X399411Y379099D02*
Y390529D01*
X372110Y417830D02*
X399411Y390529D01*
X422910Y340360D02*
Y367285D01*
X365760Y417830D02*
X372110D01*
X379730Y360680D02*
X385110Y366060D01*
X402796D01*
X330375Y378285D02*
Y462105D01*
X325120Y467360D02*
X330375Y462105D01*
Y378285D02*
X345440Y363220D01*
X510540Y242570D02*
X532130Y264160D01*
X581660Y326390D02*
X604520Y303530D01*
X609480D01*
X477520Y171450D02*
X486204D01*
X421259Y227711D02*
X477520Y171450D01*
X434546Y190500D02*
X453390D01*
X430530Y194516D02*
X434546Y190500D01*
X453390D02*
X458676Y185214D01*
X445380Y181610D02*
X449190Y185420D01*
X449405D01*
X415290Y181610D02*
X445380D01*
X458676Y171450D02*
Y185214D01*
X405130Y224300D02*
Y229870D01*
Y224300D02*
X430530Y198900D01*
Y194516D02*
Y198900D01*
X405130Y167640D02*
Y215900D01*
Y167640D02*
X417830Y154940D01*
X445770Y218440D02*
Y231140D01*
Y218440D02*
X455930Y208280D01*
Y203200D02*
Y208280D01*
X464367Y197302D02*
Y216178D01*
X454660Y225885D02*
X464367Y216178D01*
Y197302D02*
X471170Y190500D01*
X185420Y129014D02*
Y153670D01*
X187434Y127000D02*
X194310D01*
X185420Y129014D02*
X187434Y127000D01*
X185420Y153670D02*
X226060Y194310D01*
X378460Y127000D02*
Y222250D01*
X322580Y71120D02*
X378460Y127000D01*
X509570Y300990D02*
X568442Y242118D01*
X582113D01*
X322580Y478952D02*
Y491490D01*
X597851Y190500D02*
X599881Y188470D01*
X600960D01*
X589280Y171612D02*
Y185420D01*
Y171612D02*
X590375Y170517D01*
Y154765D02*
Y170517D01*
X581660Y146050D02*
X590375Y154765D01*
X480060Y147320D02*
X490220Y157480D01*
X518160D01*
X439420Y262890D02*
X475765D01*
X429260Y273050D02*
X439420Y262890D01*
X475765D02*
X492760Y279885D01*
X617220Y49530D02*
Y106680D01*
X599440Y31750D02*
X617220Y49530D01*
X627380Y134620D02*
X640080Y147320D01*
X515620Y134620D02*
X627380D01*
X640080Y147320D02*
Y184150D01*
X582113Y242118D02*
X640080Y184150D01*
X208280Y31750D02*
X599440D01*
X539750Y157480D02*
X544830Y162560D01*
X585470D01*
X445770Y283860D02*
Y284480D01*
X462280Y300990D01*
X471170Y325110D02*
X474980Y321300D01*
X467360Y279885D02*
X474980Y287505D01*
Y321300D01*
X471170Y325110D02*
Y326390D01*
X462280Y300990D02*
X467660D01*
X334216Y154971D02*
Y196850D01*
X299720Y120475D02*
X334216Y154971D01*
X476250Y345440D02*
X525780D01*
X444500Y377190D02*
X476250Y345440D01*
X444500Y377190D02*
Y450008D01*
X466090Y471598D02*
Y507950D01*
X444500Y450008D02*
X466090Y471598D01*
X499110Y298935D02*
Y325120D01*
X480060Y279885D02*
X499110Y298935D01*
X506730Y193246D02*
Y203200D01*
X486204Y172720D02*
X506730Y193246D01*
X476250Y111760D02*
Y133350D01*
X462950Y98460D02*
X476250Y111760D01*
X434340Y98460D02*
X462950D01*
X501650Y115570D02*
X539750D01*
X417830Y154940D02*
X462280D01*
X501650Y115570D01*
X403860Y153670D02*
X448310Y109220D01*
X194620Y383230D02*
X269240D01*
X153670Y424180D02*
X194620Y383230D01*
X249230Y459740D02*
X269240Y439730D01*
X153670Y459740D02*
X249230D01*
X44837Y129153D02*
X55587Y118403D01*
X44837Y129153D02*
Y194160D01*
X59397Y118403D02*
X59690Y118110D01*
X55587Y118403D02*
X59397D01*
X67310Y327660D02*
X78740Y339090D01*
X121250Y184150D02*
Y212760D01*
X104140Y229870D02*
X121250Y212760D01*
X187960Y243840D02*
Y285750D01*
X150456Y206336D02*
X187960Y243840D01*
X135590Y233380D02*
X147320Y245110D01*
X135590Y184150D02*
Y233380D01*
X208280Y71120D02*
X322580D01*
X448310Y109220D02*
X459430D01*
X524810Y304510D02*
Y326390D01*
Y304510D02*
X527050Y302270D01*
Y300990D02*
Y302270D01*
D70*
X698820Y458430D02*
D03*
X173080Y154620D02*
D03*
X697550Y135380D02*
D03*
Y277220D02*
D03*
X507240Y494520D02*
D03*
X660080Y53850D02*
D03*
X597460Y88410D02*
D03*
X72750Y86040D02*
D03*
D71*
X718820Y317430D02*
D03*
Y342430D02*
D03*
Y367430D02*
D03*
Y392430D02*
D03*
Y417430D02*
D03*
X132080Y134620D02*
D03*
X107080D02*
D03*
X82080D02*
D03*
X57080D02*
D03*
X32080D02*
D03*
X717550Y119380D02*
D03*
Y94380D02*
D03*
Y186220D02*
D03*
Y211220D02*
D03*
Y236220D02*
D03*
X523240Y514520D02*
D03*
X548240D02*
D03*
X640080Y69850D02*
D03*
Y94850D02*
D03*
D72*
X718820Y442430D02*
D03*
X717550Y69380D02*
D03*
Y261220D02*
D03*
X640080Y119850D02*
D03*
D73*
X157080Y134620D02*
D03*
X573240Y514520D02*
D03*
D77*
X466090Y507950D02*
D03*
X440690D02*
D03*
X252730Y506730D02*
D03*
X227330D02*
D03*
X355600D02*
D03*
X330200D02*
D03*
D78*
X415290Y507950D02*
D03*
X201930Y506730D02*
D03*
X304800D02*
D03*
D79*
X411480Y412750D02*
D03*
D80*
Y387350D02*
D03*
D81*
X556460Y68410D02*
D03*
X31750Y66040D02*
D03*
D82*
X581460Y68410D02*
D03*
X56750Y66040D02*
D03*
D87*
X285750Y264160D02*
X291870Y258040D01*
X294110D01*
X300990Y251160D01*
X285750Y264160D02*
Y279640D01*
X338836Y450771D02*
X339237Y451172D01*
X382270Y384480D02*
X392481Y374269D01*
X410591D01*
X412750Y372110D01*
Y276860D02*
Y372110D01*
X397510Y261620D02*
X412750Y276860D01*
X335280Y431470D02*
X382270Y384480D01*
X337820Y443786D02*
X338836Y444802D01*
Y450771D01*
X337820Y441893D02*
Y443786D01*
X335280Y439353D02*
X337820Y441893D01*
X335280Y431470D02*
Y439353D01*
X397510Y110490D02*
Y227505D01*
X363220Y53340D02*
X363633D01*
X349250Y39370D02*
X363220Y53340D01*
X227330Y39370D02*
X349250D01*
D89*
X219710Y434340D02*
D03*
Y408940D02*
D03*
D90*
X92710Y500380D02*
D03*
Y398780D02*
D03*
D91*
X143510Y449580D02*
D03*
Y424180D02*
D03*
D92*
X459740Y433940D02*
D03*
Y408940D02*
D03*
D93*
Y383940D02*
D03*
D94*
X219710Y421640D02*
D03*
D95*
X201930Y39370D02*
D03*
X184150Y45720D02*
D03*
X68133Y194650D02*
D03*
X88900Y317500D02*
D03*
X85090Y157480D02*
D03*
X17780Y105410D02*
D03*
X170180Y63500D02*
D03*
X124460Y77470D02*
D03*
X106680Y119380D02*
D03*
X95250Y151130D02*
D03*
X120650Y114300D02*
D03*
X107950Y97790D02*
D03*
X78740Y210820D02*
D03*
X97790Y336550D02*
D03*
X57150Y274320D02*
D03*
X95250Y45720D02*
D03*
X171450Y98640D02*
D03*
X181610Y77470D02*
D03*
X194310Y97790D02*
D03*
X193040Y63500D02*
D03*
X158750Y98640D02*
D03*
X146050D02*
D03*
X559100Y359585D02*
D03*
X300990Y251160D02*
D03*
X553720Y463550D02*
D03*
X339237Y451172D02*
D03*
X514350Y481330D02*
D03*
X483870Y474980D02*
D03*
X527050Y429260D02*
D03*
Y443230D02*
D03*
X547370Y444500D02*
D03*
X575310Y374650D02*
D03*
X572770Y415290D02*
D03*
X561340Y386080D02*
D03*
X621030Y380030D02*
D03*
X488950Y454660D02*
D03*
X285750Y281940D02*
D03*
X574040Y468630D02*
D03*
X596900D02*
D03*
X545440Y410210D02*
D03*
X566420Y444500D02*
D03*
X599440Y422910D02*
D03*
X497840Y402590D02*
D03*
X533100Y360680D02*
D03*
X621030Y397510D02*
D03*
X500380Y359410D02*
D03*
X412575Y227505D02*
D03*
X389890Y245110D02*
D03*
X384810Y228600D02*
D03*
X364490Y246380D02*
D03*
X54310Y184150D02*
D03*
X596900Y289560D02*
D03*
X509570Y300990D02*
D03*
X379730Y360680D02*
D03*
X162560Y184150D02*
D03*
X72390Y162560D02*
D03*
X320040Y421640D02*
D03*
X276860Y412750D02*
D03*
X256540Y439730D02*
D03*
X382270Y285750D02*
D03*
X346710Y279400D02*
D03*
X379730Y260350D02*
D03*
X382270Y308610D02*
D03*
X322580Y313690D02*
D03*
X402796Y366060D02*
D03*
X325120Y469900D02*
D03*
X365760Y417830D02*
D03*
X532130Y264160D02*
D03*
X609480Y303530D02*
D03*
X581660Y326390D02*
D03*
X449405Y185420D02*
D03*
X458676Y171450D02*
D03*
X405130Y215900D02*
D03*
X430530Y194516D02*
D03*
X480060Y225885D02*
D03*
X455930Y203200D02*
D03*
X194310Y127000D02*
D03*
X226060Y194310D02*
D03*
X397510Y261620D02*
D03*
Y227505D02*
D03*
X510540Y242570D02*
D03*
X421640Y340360D02*
D03*
X382270Y384480D02*
D03*
X589280Y185420D02*
D03*
X581660Y146050D02*
D03*
X593090Y200660D02*
D03*
X567690Y214930D02*
D03*
X518160Y157480D02*
D03*
X480060Y147320D02*
D03*
X429260Y273050D02*
D03*
X546100Y276860D02*
D03*
X602230Y121920D02*
D03*
X208280Y31750D02*
D03*
X585470Y162560D02*
D03*
X492760Y279885D02*
D03*
X445770Y283860D02*
D03*
X467660Y300990D02*
D03*
X471170Y190500D02*
D03*
X415290Y181610D02*
D03*
X334216Y196850D02*
D03*
X299720Y120475D02*
D03*
X242570Y196850D02*
D03*
X525780Y345440D02*
D03*
X600960Y188470D02*
D03*
X567690Y189530D02*
D03*
X539750Y157480D02*
D03*
X467360Y279885D02*
D03*
X471170Y326390D02*
D03*
X480060Y279885D02*
D03*
X499110Y325120D02*
D03*
X486204Y171450D02*
D03*
X506730Y203200D02*
D03*
X515620Y134620D02*
D03*
X539750Y115570D02*
D03*
X347980Y260350D02*
D03*
X403860Y153670D02*
D03*
X335280Y279400D02*
D03*
X322580Y491490D02*
D03*
X337820Y337820D02*
D03*
Y360680D02*
D03*
X626110Y181910D02*
D03*
X454660Y225885D02*
D03*
X157480Y360680D02*
D03*
X240030Y398780D02*
D03*
X397510Y110490D02*
D03*
X269240Y383230D02*
D03*
Y439730D02*
D03*
X432840Y98460D02*
D03*
X476250Y133350D02*
D03*
X59690Y118110D02*
D03*
X121250Y184150D02*
D03*
X104140Y229870D02*
D03*
X187960Y285750D02*
D03*
X135590Y184150D02*
D03*
X147320Y245110D02*
D03*
X208280Y71120D02*
D03*
X459430Y109220D02*
D03*
X527050Y300990D02*
D03*
X524810Y326390D02*
D03*
X363633Y53340D02*
D03*
X227330Y39370D02*
D03*
X195580Y234950D02*
D03*
X78740Y339090D02*
D03*
M02*
