M48
;Layer_Color=9474304
;FILE_FORMAT=4:4
METRIC,LZ
;TYPE=PLATED
T1F00S00C0.3000
T2F00S00C0.7000
T3F00S00C0.8500
T4F00S00C0.9000
T5F00S00C0.9700
T6F00S00C1.0000
T7F00S00C2.0900
;TYPE=NON_PLATED
T8F00S00C1.1000
%
T01
X0001778Y0010541
X0005969Y0011811
X0010668Y0011938
X0012065Y001143
X0010795Y0009779
X0012446Y0007747
X0009525Y0004572
X0018415
X0020193Y0003937
X0020828Y0003175
X0022733Y0003937
X0020828Y0007112
X0019304Y000635
X0017018
X0018161Y0007747
X0017145Y0009864
X0015875
X0014605
X0019431Y0009779
Y00127
X0029972Y00120475
X0039751Y0011049
X0043284Y0009846
X0045943Y0010922
X0047625Y0013335
X0048006Y0014732
X0051562Y0013462
X00363633Y0005334
X0053975Y0011557
X0060223Y0012192
X0058166Y0014605
X0058547Y0016256
X0058928Y0018542
X0060096Y0018847
X0059309Y0020066
X0056769Y0018953
Y0021493
X005461Y0027686
X005969Y0028956
X0060948Y0030353
X0058166Y0032639
X0057531Y0037465
X0056134Y0038608
X005591Y00359585
X0054544Y0041021
X0057277Y0041529
X0059944Y0042291
X0062103Y0039751
Y0038003
X005969Y0046863
X0057404
X0055372Y0046355
X0054737Y004445
X0056642
X0053975Y0015748
X0062611Y0018191
X0051816Y0015748
X00486204Y0017145
X00458676
X00449405Y0018542
X0045593Y002032
X0045466Y00225885
X0048006
X0047117Y001905
X0043053Y00194516
X0041529Y0018161
X0040386Y0015367
X0040513Y002159
X00412575Y00227505
X0039751
X0038481Y002286
X0038989Y0024511
X0039751Y0026162
X0037973Y0026035
X0038227Y0028575
Y0030861
X0037973Y0036068
X0038227Y0038448
X00402796Y0036606
X0042164Y0034036
X0047117Y0032639
X0046766Y0030099
X0046736Y00279885
X0048006
X0049276
X0050957Y0030099
X0052705
X0052481Y0032639
X0052578Y0034544
X005331Y0036068
X0050038Y0035941
X0049911Y0032512
X0049784Y0040259
X0052705Y0042926
Y0044323
X0048895Y0045466
X0048387Y0047498
X0051435Y0048133
X0032512Y004699
X0032258Y0049149
X00339237Y00451172
X0032004Y0042164
X0036576Y0041783
X0033782Y0036068
Y0033782
X0032258Y0031369
X0033528Y002794
X0034671
X0034798Y0026035
X0036449Y0024638
X0030099Y0025116
X0028575Y0028194
X0018796Y0028575
X0019558Y0023495
X0014732Y0024511
X0016256Y0018415
X0022606Y0019431
X0024257Y0019685
X00334216
X0042926Y0027305
X0044577Y0028386
X0053213Y0026416
X0051054Y0024257
X0050673Y002032
X0026924Y0038323
X0027686Y0041275
X0026924Y0043973
X0025654
X0024003Y0039878
X0015748Y0036068
X0009779Y0033655
X0007874Y0033909
X000889Y003175
X0005715Y0027432
X0007874Y0021082
X00068133Y0019465
X0005431Y0018415
X0007239Y0016256
X0008509Y0015748
X0009525Y0015113
X0012125Y0018415
X0013559
X0010414Y0022987
T02
X0020193Y0050673
X0022733
X0025273
X003048
X003302
X003556
X0041529Y0050795
X0044069
X0046609
T03
X0041148Y0038735
Y0041275
T04
X0003208Y0013462
X0005708
X0008208
X0010708
X0013208
X0015708
X0064008Y0011985
Y0009485
Y0006985
X0071755Y0006938
Y0009438
Y0011938
Y0018622
Y0021122
Y0023622
Y0026122
X0071882Y0031743
Y0034243
Y0036743
Y0039243
Y0041743
Y0044243
X0057324Y0051452
X0054824
X0052324
X0021971Y0043434
Y0042164
Y0040894
T05
X0014351Y0042418
Y0044958
T06
X0003175Y0006604
X0005675
X0055646Y0006841
X0058146
X0045974Y0038394
Y0040894
Y0043394
T07
X0009271Y0039878
Y0050038
T08
X0007275Y0008604
X0059746Y0008841
X0066008Y0005385
X0069755Y0013538
Y0027722
X0069882Y0045843
X0050724Y0049452
X0017308Y0015462
M30
