G04*
G04 #@! TF.GenerationSoftware,Altium Limited,Altium Designer,23.2.1 (34)*
G04*
G04 Layer_Color=0*
%FSLAX44Y44*%
%MOMM*%
G71*
G04*
G04 #@! TF.SameCoordinates,68E4E8A6-7446-48DA-AA85-862DCAE7E0FD*
G04*
G04*
G04 #@! TF.FilePolarity,Positive*
G04*
G01*
G75*
%ADD97C,0.1000*%
D97*
X708570Y379930D02*
X718570D01*
X713570Y374930D02*
Y384930D01*
X89580Y139870D02*
X99580D01*
X94580Y134870D02*
Y144870D01*
X707300Y94380D02*
X717300D01*
X712300Y89380D02*
Y99380D01*
X707300Y223720D02*
X717300D01*
X712300Y218720D02*
Y228720D01*
X358220Y411480D02*
X368220D01*
X363220Y406480D02*
Y416480D01*
X572440Y398860D02*
Y408860D01*
X567440Y403860D02*
X577440D01*
X612220Y479854D02*
X622220D01*
X617220Y474854D02*
Y484854D01*
X640160Y389890D02*
X650160D01*
X645160Y384890D02*
Y394890D01*
X640160Y443024D02*
X650160D01*
X645160Y438024D02*
Y448024D01*
X336630Y287020D02*
X346630D01*
X341630Y282020D02*
Y292020D01*
X236220Y167720D02*
Y177720D01*
X231220Y172720D02*
X241220D01*
X548240Y504270D02*
Y514270D01*
X543240Y509270D02*
X553240D01*
X440690Y503000D02*
Y513000D01*
X435690Y508000D02*
X445690D01*
X179150Y453596D02*
X189150D01*
X184150Y448596D02*
Y458596D01*
X222250Y459820D02*
Y469820D01*
X217250Y464820D02*
X227250D01*
X406480Y400050D02*
X416480D01*
X411480Y395050D02*
Y405050D01*
X640330Y94850D02*
X650330D01*
X645330Y89850D02*
Y99850D01*
X568960Y68660D02*
Y78660D01*
X563960Y73660D02*
X573960D01*
X266780Y334010D02*
X276780D01*
X271780Y329010D02*
Y339010D01*
X227330Y501780D02*
Y511780D01*
X222330Y506780D02*
X232330D01*
X294720Y139700D02*
X304720D01*
X299720Y134700D02*
Y144700D01*
X44250Y66290D02*
Y76290D01*
X39250Y71290D02*
X49250D01*
X396240Y303610D02*
Y313610D01*
X391240Y308610D02*
X401240D01*
X424260Y260350D02*
X434260D01*
X429260Y255350D02*
Y265350D01*
X520494Y198200D02*
Y208200D01*
X515494Y203200D02*
X525494D01*
X425530Y208280D02*
X435530D01*
X430530Y203280D02*
Y213280D01*
X469900Y196930D02*
Y206930D01*
X464900Y201930D02*
X474900D01*
X472440Y166450D02*
Y176450D01*
X467440Y171450D02*
X477440D01*
X428070Y156210D02*
X438070D01*
X433070Y151210D02*
Y161210D01*
X392510Y124460D02*
X402510D01*
X397510Y119460D02*
Y129460D01*
X401400Y447040D02*
X411400D01*
X406400Y442040D02*
Y452040D01*
X377190Y75010D02*
Y85010D01*
X372190Y80010D02*
X382190D01*
X377396Y48340D02*
Y58340D01*
X372396Y53340D02*
X382396D01*
X330200Y501780D02*
Y511780D01*
X325200Y506780D02*
X335200D01*
X230030Y71120D02*
X240030D01*
X235030Y66120D02*
Y76120D01*
X280750Y71326D02*
X290750D01*
X285750Y66326D02*
Y76326D01*
X306230Y72184D02*
X316230D01*
X311230Y67184D02*
Y77184D01*
X331630Y72184D02*
X341630D01*
X336630Y67184D02*
Y77184D01*
X360886Y162640D02*
Y172640D01*
X355886Y167640D02*
X365886D01*
X347980Y191850D02*
Y201850D01*
X342980Y196850D02*
X352980D01*
X359616Y108030D02*
Y118030D01*
X354616Y113030D02*
X364616D01*
X360886Y134700D02*
Y144700D01*
X355886Y139700D02*
X365886D01*
X255350Y71326D02*
X265350D01*
X260350Y66326D02*
Y76326D01*
X297180Y191850D02*
Y201850D01*
X292180Y196850D02*
X302180D01*
X203280Y70914D02*
X213280D01*
X208280Y65914D02*
Y75914D01*
M02*
