G04*
G04 #@! TF.GenerationSoftware,Altium Limited,Altium Designer,23.2.1 (34)*
G04*
G04 Layer_Color=12632256*
%FSLAX44Y44*%
%MOMM*%
G71*
G04*
G04 #@! TF.SameCoordinates,68E4E8A6-7446-48DA-AA85-862DCAE7E0FD*
G04*
G04*
G04 #@! TF.FilePolarity,Positive*
G04*
G01*
G75*
%ADD70C,1.1000*%
%ADD71C,1.4000*%
%ADD72R,1.4000X1.4000*%
%ADD73R,1.4000X1.4000*%
%ADD77C,1.2000*%
%ADD78R,1.2000X1.2000*%
%ADD79C,1.3500*%
%ADD80R,1.3500X1.3500*%
%ADD81C,1.5500*%
%ADD82R,1.5500X1.5500*%
%ADD89O,2.0000X1.0000*%
%ADD90C,3.1400*%
%ADD91C,1.4700*%
%ADD92C,1.5000*%
%ADD93R,1.5000X1.5000*%
%ADD94O,2.0000X1.0000*%
D70*
X698820Y458430D02*
D03*
X173080Y154620D02*
D03*
X697550Y135380D02*
D03*
Y277220D02*
D03*
X507240Y494520D02*
D03*
X660080Y53850D02*
D03*
X597460Y88410D02*
D03*
X72750Y86040D02*
D03*
D71*
X718820Y317430D02*
D03*
Y342430D02*
D03*
Y367430D02*
D03*
Y392430D02*
D03*
Y417430D02*
D03*
X132080Y134620D02*
D03*
X107080D02*
D03*
X82080D02*
D03*
X57080D02*
D03*
X32080D02*
D03*
X717550Y119380D02*
D03*
Y94380D02*
D03*
Y186220D02*
D03*
Y211220D02*
D03*
Y236220D02*
D03*
X523240Y514520D02*
D03*
X548240D02*
D03*
X640080Y69850D02*
D03*
Y94850D02*
D03*
D72*
X718820Y442430D02*
D03*
X717550Y69380D02*
D03*
Y261220D02*
D03*
X640080Y119850D02*
D03*
D73*
X157080Y134620D02*
D03*
X573240Y514520D02*
D03*
D77*
X466090Y507950D02*
D03*
X440690D02*
D03*
X252730Y506730D02*
D03*
X227330D02*
D03*
X355600D02*
D03*
X330200D02*
D03*
D78*
X415290Y507950D02*
D03*
X201930Y506730D02*
D03*
X304800D02*
D03*
D79*
X411480Y412750D02*
D03*
D80*
Y387350D02*
D03*
D81*
X556460Y68410D02*
D03*
X31750Y66040D02*
D03*
D82*
X581460Y68410D02*
D03*
X56750Y66040D02*
D03*
D89*
X219710Y434340D02*
D03*
Y408940D02*
D03*
D90*
X92710Y500380D02*
D03*
Y398780D02*
D03*
D91*
X143510Y449580D02*
D03*
Y424180D02*
D03*
D92*
X459740Y433940D02*
D03*
Y408940D02*
D03*
D93*
Y383940D02*
D03*
D94*
X219710Y421640D02*
D03*
M02*
