G04*
G04 #@! TF.GenerationSoftware,Altium Limited,Altium Designer,23.2.1 (34)*
G04*
G04 Layer_Color=65535*
%FSLAX44Y44*%
%MOMM*%
G71*
G04*
G04 #@! TF.SameCoordinates,68E4E8A6-7446-48DA-AA85-862DCAE7E0FD*
G04*
G04*
G04 #@! TF.FilePolarity,Positive*
G04*
G01*
G75*
%ADD10C,0.2500*%
%ADD11C,0.6000*%
%ADD12C,0.5000*%
%ADD13C,0.1270*%
%ADD14C,0.4000*%
%ADD15C,0.2000*%
%ADD16R,1.5870X0.5080*%
%ADD17R,0.5080X1.5870*%
D10*
X88250Y46140D02*
G03*
X88250Y46140I-1250J0D01*
G01*
X720070Y472930D02*
G03*
X720070Y472930I-1250J0D01*
G01*
X187940Y111760D02*
G03*
X187940Y111760I-1250J0D01*
G01*
X718800Y40130D02*
G03*
X718800Y40130I-1250J0D01*
G01*
Y291720D02*
G03*
X718800Y291720I-1250J0D01*
G01*
X335128Y376479D02*
G03*
X335260Y375920I-1118J-559D01*
G01*
X533190Y422910D02*
G03*
X533190Y422910I-1250J0D01*
G01*
X323830Y246520D02*
G03*
X323830Y246520I-1250J0D01*
G01*
X447410Y225885D02*
G03*
X447410Y225885I-1250J0D01*
G01*
X262751Y162970D02*
G03*
X262751Y162970I-1250J0D01*
G01*
X517180Y49670D02*
G03*
X517180Y49670I-1250J0D01*
G01*
X603740Y514520D02*
G03*
X603740Y514520I-1250J0D01*
G01*
X385440Y508000D02*
G03*
X385440Y508000I-1250J0D01*
G01*
X641330Y149100D02*
G03*
X641330Y149100I-1250J0D01*
G01*
X593070Y106680D02*
G03*
X593070Y106680I-1250J0D01*
G01*
X172080Y506780D02*
G03*
X172080Y506780I-1250J0D01*
G01*
X265970Y106750D02*
G03*
X265970Y106750I-1250J0D01*
G01*
X208890Y106230D02*
G03*
X208890Y106230I-1250J0D01*
G01*
X57750Y107790D02*
G03*
X57750Y107790I-1250J0D01*
G01*
X434490Y383940D02*
G03*
X434490Y383940I-1250J0D01*
G01*
X207460Y449940D02*
G03*
X207460Y449940I-1250J0D01*
G01*
X274950Y506780D02*
G03*
X274950Y506780I-1250J0D01*
G01*
X304640Y439730D02*
G03*
X304640Y439730I-1250J0D01*
G01*
D11*
X102700Y66390D02*
G03*
X102700Y66390I-3000J0D01*
G01*
X461760Y247635D02*
G03*
X461760Y247635I-3000J0D01*
G01*
X496680Y62870D02*
G03*
X496680Y62870I-3000J0D01*
G01*
X293590Y417480D02*
G03*
X293590Y417480I-3000J0D01*
G01*
D12*
X348470Y404230D02*
G03*
X348470Y404230I-2500J0D01*
G01*
X567690Y421110D02*
G03*
X567690Y421110I-2500J0D01*
G01*
X326880Y279770D02*
G03*
X326880Y279770I-2500J0D01*
G01*
D13*
X46315Y200014D02*
G03*
X46315Y200014I-2500J0D01*
G01*
X50870Y225750D02*
Y345750D01*
X200870D01*
Y225750D02*
Y345750D01*
X50870Y225750D02*
X200870D01*
X208270Y205750D02*
X213270D01*
Y225750D01*
X208270Y365750D02*
X213270D01*
Y345750D02*
Y365750D01*
X152401Y68158D02*
X156633D01*
X157479Y69005D01*
Y70697D01*
X156633Y71544D01*
X152401D01*
Y76622D02*
X153247Y74929D01*
X154940Y73236D01*
X156633D01*
X157479Y74083D01*
Y75776D01*
X156633Y76622D01*
X155786D01*
X154940Y75776D01*
Y73236D01*
X681565Y332757D02*
X676487D01*
Y335296D01*
X677334Y336142D01*
X679026D01*
X679873Y335296D01*
Y332757D01*
X674794Y337835D02*
X679873D01*
X677334D01*
Y341220D01*
X674794D01*
X679873D01*
X680719Y342913D02*
Y346299D01*
X675641Y351377D02*
X674794Y350531D01*
Y348838D01*
X675641Y347991D01*
X676487D01*
X677334Y348838D01*
Y350531D01*
X678180Y351377D01*
X679026D01*
X679873Y350531D01*
Y348838D01*
X679026Y347991D01*
X679873Y355609D02*
Y353916D01*
X679026Y353070D01*
X677334D01*
X676487Y353916D01*
Y355609D01*
X677334Y356455D01*
X678180D01*
Y353070D01*
X679873Y358148D02*
X676487D01*
Y360687D01*
X677334Y361534D01*
X679873D01*
Y363227D02*
Y365766D01*
X679026Y366612D01*
X678180Y365766D01*
Y364073D01*
X677334Y363227D01*
X676487Y364073D01*
Y366612D01*
X679873Y369151D02*
Y370844D01*
X679026Y371690D01*
X677334D01*
X676487Y370844D01*
Y369151D01*
X677334Y368305D01*
X679026D01*
X679873Y369151D01*
X676487Y373383D02*
X679873D01*
X678180D01*
X677334Y374230D01*
X676487Y375076D01*
Y375922D01*
X680719Y378462D02*
Y381847D01*
X679873Y383540D02*
X676487D01*
X674794Y385233D01*
X676487Y386926D01*
X679873D01*
X677334D01*
Y383540D01*
X679873Y388618D02*
Y390311D01*
Y389465D01*
X674794D01*
Y388618D01*
X675641Y393697D02*
X676487D01*
Y392850D01*
Y394543D01*
Y393697D01*
X679026D01*
X679873Y394543D01*
Y399621D02*
Y397929D01*
X679026Y397082D01*
X677334D01*
X676487Y397929D01*
Y399621D01*
X677334Y400468D01*
X678180D01*
Y397082D01*
X676487Y402161D02*
X679873D01*
X678180D01*
X677334Y403007D01*
X676487Y403853D01*
Y404700D01*
X679873Y407239D02*
X676487D01*
Y409778D01*
X677334Y410625D01*
X679873D01*
X676487Y413164D02*
Y414856D01*
X677334Y415703D01*
X679873D01*
Y413164D01*
X679026Y412317D01*
X678180Y413164D01*
Y415703D01*
X675641Y418242D02*
X676487D01*
Y417396D01*
Y419088D01*
Y418242D01*
X679026D01*
X679873Y419088D01*
Y421628D02*
Y423320D01*
Y422474D01*
X676487D01*
Y421628D01*
Y425860D02*
X679873Y427552D01*
X676487Y429245D01*
X679873Y433477D02*
Y431784D01*
X679026Y430938D01*
X677334D01*
X676487Y431784D01*
Y433477D01*
X677334Y434324D01*
X678180D01*
Y430938D01*
X179070Y177799D02*
X177377D01*
X178224D01*
Y173567D01*
X177377Y172721D01*
X176531D01*
X175684Y173567D01*
X180763Y172721D02*
X182456D01*
X181609D01*
Y177799D01*
X180763Y176953D01*
X675218Y38117D02*
Y41503D01*
Y39810D01*
X680296D01*
X675218Y43196D02*
X680296D01*
Y45735D01*
X679449Y46581D01*
X676064D01*
X675218Y45735D01*
Y43196D01*
X676064Y51660D02*
X675218Y50813D01*
Y49120D01*
X676064Y48274D01*
X676910D01*
X677757Y49120D01*
Y50813D01*
X678603Y51660D01*
X679449D01*
X680296Y50813D01*
Y49120D01*
X679449Y48274D01*
X681142Y53352D02*
Y56738D01*
X676064Y61816D02*
X675218Y60970D01*
Y59277D01*
X676064Y58431D01*
X676910D01*
X677757Y59277D01*
Y60970D01*
X678603Y61816D01*
X679449D01*
X680296Y60970D01*
Y59277D01*
X679449Y58431D01*
X680296Y66048D02*
Y64355D01*
X679449Y63509D01*
X677757D01*
X676910Y64355D01*
Y66048D01*
X677757Y66895D01*
X678603D01*
Y63509D01*
X680296Y68587D02*
X676910D01*
Y71127D01*
X677757Y71973D01*
X680296D01*
Y73666D02*
Y76205D01*
X679449Y77051D01*
X678603Y76205D01*
Y74512D01*
X677757Y73666D01*
X676910Y74512D01*
Y77051D01*
X680296Y79591D02*
Y81283D01*
X679449Y82130D01*
X677757D01*
X676910Y81283D01*
Y79591D01*
X677757Y78744D01*
X679449D01*
X680296Y79591D01*
X676910Y83822D02*
X680296D01*
X678603D01*
X677757Y84669D01*
X676910Y85515D01*
Y86362D01*
X681142Y88901D02*
Y92286D01*
X680296Y93979D02*
X676910D01*
X675218Y95672D01*
X676910Y97365D01*
X680296D01*
X677757D01*
Y93979D01*
X680296Y99058D02*
Y100750D01*
Y99904D01*
X675218D01*
Y99058D01*
X676064Y104136D02*
X676910D01*
Y103289D01*
Y104982D01*
Y104136D01*
X679449D01*
X680296Y104982D01*
Y110061D02*
Y108368D01*
X679449Y107521D01*
X677757D01*
X676910Y108368D01*
Y110061D01*
X677757Y110907D01*
X678603D01*
Y107521D01*
X676910Y112600D02*
X680296D01*
X678603D01*
X677757Y113446D01*
X676910Y114293D01*
Y115139D01*
X680296Y117678D02*
X676910D01*
Y120217D01*
X677757Y121064D01*
X680296D01*
X676910Y123603D02*
Y125296D01*
X677757Y126142D01*
X680296D01*
Y123603D01*
X679449Y122757D01*
X678603Y123603D01*
Y126142D01*
X676064Y128681D02*
X676910D01*
Y127835D01*
Y129528D01*
Y128681D01*
X679449D01*
X680296Y129528D01*
Y132067D02*
Y133760D01*
Y132913D01*
X676910D01*
Y132067D01*
Y136299D02*
X680296Y137992D01*
X676910Y139684D01*
X680296Y143916D02*
Y142224D01*
X679449Y141377D01*
X677757D01*
X676910Y142224D01*
Y143916D01*
X677757Y144763D01*
X678603D01*
Y141377D01*
X671408Y170197D02*
Y173583D01*
Y171890D01*
X676486D01*
X671408Y175276D02*
X676486D01*
Y177815D01*
X675639Y178661D01*
X674793D01*
X673947Y177815D01*
Y175276D01*
Y177815D01*
X673100Y178661D01*
X672254D01*
X671408Y177815D01*
Y175276D01*
Y180354D02*
X676486D01*
Y182893D01*
X675639Y183740D01*
X672254D01*
X671408Y182893D01*
Y180354D01*
X677332Y185432D02*
Y188818D01*
X672254Y193896D02*
X671408Y193050D01*
Y191357D01*
X672254Y190511D01*
X673100D01*
X673947Y191357D01*
Y193050D01*
X674793Y193896D01*
X675639D01*
X676486Y193050D01*
Y191357D01*
X675639Y190511D01*
X676486Y198128D02*
Y196435D01*
X675639Y195589D01*
X673947D01*
X673100Y196435D01*
Y198128D01*
X673947Y198975D01*
X674793D01*
Y195589D01*
X676486Y200667D02*
X673100D01*
Y203207D01*
X673947Y204053D01*
X676486D01*
Y205746D02*
Y208285D01*
X675639Y209131D01*
X674793Y208285D01*
Y206592D01*
X673947Y205746D01*
X673100Y206592D01*
Y209131D01*
X676486Y211670D02*
Y213363D01*
X675639Y214210D01*
X673947D01*
X673100Y213363D01*
Y211670D01*
X673947Y210824D01*
X675639D01*
X676486Y211670D01*
X673100Y215902D02*
X676486D01*
X674793D01*
X673947Y216749D01*
X673100Y217595D01*
Y218442D01*
X677332Y220981D02*
Y224366D01*
X676486Y226059D02*
X673100D01*
X671408Y227752D01*
X673100Y229445D01*
X676486D01*
X673947D01*
Y226059D01*
X676486Y231138D02*
Y232830D01*
Y231984D01*
X671408D01*
Y231138D01*
X672254Y236216D02*
X673100D01*
Y235369D01*
Y237062D01*
Y236216D01*
X675639D01*
X676486Y237062D01*
Y242141D02*
Y240448D01*
X675639Y239601D01*
X673947D01*
X673100Y240448D01*
Y242141D01*
X673947Y242987D01*
X674793D01*
Y239601D01*
X673100Y244680D02*
X676486D01*
X674793D01*
X673947Y245526D01*
X673100Y246373D01*
Y247219D01*
X676486Y249758D02*
X673100D01*
Y252297D01*
X673947Y253144D01*
X676486D01*
X673100Y255683D02*
Y257376D01*
X673947Y258222D01*
X676486D01*
Y255683D01*
X675639Y254837D01*
X674793Y255683D01*
Y258222D01*
X672254Y260761D02*
X673100D01*
Y259915D01*
Y261608D01*
Y260761D01*
X675639D01*
X676486Y261608D01*
Y264147D02*
Y265840D01*
Y264993D01*
X673100D01*
Y264147D01*
Y268379D02*
X676486Y270072D01*
X673100Y271764D01*
X676486Y275996D02*
Y274303D01*
X675639Y273457D01*
X673947D01*
X673100Y274303D01*
Y275996D01*
X673947Y276843D01*
X674793D01*
Y273457D01*
X494878Y432651D02*
X499956D01*
Y436037D01*
X494878Y441115D02*
Y437730D01*
X499956D01*
Y441115D01*
X497417Y437730D02*
Y439422D01*
X494878Y442808D02*
X499956D01*
Y445347D01*
X499110Y446194D01*
X495724D01*
X494878Y445347D01*
Y442808D01*
X500802Y447886D02*
Y451272D01*
X499956Y452965D02*
X494878D01*
Y455504D01*
X495724Y456350D01*
X497417D01*
X498263Y455504D01*
Y452965D01*
Y454658D02*
X499956Y456350D01*
Y461429D02*
Y458043D01*
X496570Y461429D01*
X495724D01*
X494878Y460582D01*
Y458890D01*
X495724Y458043D01*
X516468Y416561D02*
Y421639D01*
X519007D01*
X519854Y420793D01*
Y419100D01*
X519007Y418254D01*
X516468D01*
X518161D02*
X519854Y416561D01*
X521546Y417407D02*
X522393Y416561D01*
X524086D01*
X524932Y417407D01*
Y420793D01*
X524086Y421639D01*
X522393D01*
X521546Y420793D01*
Y419946D01*
X522393Y419100D01*
X524932D01*
X263741Y216322D02*
Y211244D01*
X267126D01*
X272204Y216322D02*
X268819D01*
Y211244D01*
X272204D01*
X268819Y213783D02*
X270512D01*
X273897Y216322D02*
Y211244D01*
X276436D01*
X277283Y212090D01*
Y215476D01*
X276436Y216322D01*
X273897D01*
X278976Y210398D02*
X282361D01*
X284054Y211244D02*
Y216322D01*
X286593D01*
X287439Y215476D01*
Y213783D01*
X286593Y212937D01*
X284054D01*
X285747D02*
X287439Y211244D01*
X233681Y417408D02*
X237913D01*
X238759Y418255D01*
Y419948D01*
X237913Y420794D01*
X233681D01*
X238759Y422487D02*
Y424180D01*
Y423333D01*
X233681D01*
X234527Y422487D01*
X238759Y426719D02*
Y428412D01*
Y427565D01*
X233681D01*
X234527Y426719D01*
X205741Y172722D02*
X209973D01*
X210819Y173568D01*
Y175261D01*
X209973Y176108D01*
X205741D01*
X210819Y177800D02*
Y179493D01*
Y178647D01*
X205741D01*
X206587Y177800D01*
Y182032D02*
X205741Y182879D01*
Y184572D01*
X206587Y185418D01*
X209973D01*
X210819Y184572D01*
Y182879D01*
X209973Y182032D01*
X206587D01*
X294218Y142239D02*
Y138007D01*
X295065Y137161D01*
X296757D01*
X297604Y138007D01*
Y142239D01*
X299296Y138007D02*
X300143Y137161D01*
X301836D01*
X302682Y138007D01*
Y141393D01*
X301836Y142239D01*
X300143D01*
X299296Y141393D01*
Y140546D01*
X300143Y139700D01*
X302682D01*
X202778Y160019D02*
Y155787D01*
X203624Y154941D01*
X205317D01*
X206164Y155787D01*
Y160019D01*
X207856Y159173D02*
X208703Y160019D01*
X210396D01*
X211242Y159173D01*
Y158326D01*
X210396Y157480D01*
X211242Y156634D01*
Y155787D01*
X210396Y154941D01*
X208703D01*
X207856Y155787D01*
Y156634D01*
X208703Y157480D01*
X207856Y158326D01*
Y159173D01*
X208703Y157480D02*
X210396D01*
X569808Y410209D02*
Y405977D01*
X570654Y405131D01*
X572347D01*
X573194Y405977D01*
Y410209D01*
X574886D02*
X578272D01*
Y409363D01*
X574886Y405977D01*
Y405131D01*
X489798Y254154D02*
Y249922D01*
X490644Y249076D01*
X492337D01*
X493184Y249922D01*
Y254154D01*
X498262D02*
X494876D01*
Y251615D01*
X496569Y252461D01*
X497416D01*
X498262Y251615D01*
Y249922D01*
X497416Y249076D01*
X495723D01*
X494876Y249922D01*
X484718Y114299D02*
Y110067D01*
X485564Y109221D01*
X487257D01*
X488104Y110067D01*
Y114299D01*
X492336Y109221D02*
Y114299D01*
X489796Y111760D01*
X493182D01*
X351789Y293792D02*
X347557D01*
X346711Y292945D01*
Y291253D01*
X347557Y290406D01*
X351789D01*
X350943Y288714D02*
X351789Y287867D01*
Y286174D01*
X350943Y285328D01*
X350096D01*
X349250Y286174D01*
Y287021D01*
Y286174D01*
X348404Y285328D01*
X347557D01*
X346711Y286174D01*
Y287867D01*
X347557Y288714D01*
X361528Y410209D02*
Y405977D01*
X362374Y405131D01*
X364067D01*
X364914Y405977D01*
Y410209D01*
X369992Y405131D02*
X366606D01*
X369992Y408516D01*
Y409363D01*
X369146Y410209D01*
X367453D01*
X366606Y409363D01*
X270511Y409364D02*
X274743D01*
X275589Y410211D01*
Y411904D01*
X274743Y412750D01*
X270511D01*
X275589Y414443D02*
Y416136D01*
Y415289D01*
X270511D01*
X271357Y414443D01*
X430531Y404285D02*
Y407671D01*
Y405978D01*
X435609D01*
X430531Y409364D02*
X435609D01*
X433070D01*
Y412749D01*
X430531D01*
X435609D01*
Y414442D02*
Y416135D01*
Y415288D01*
X430531D01*
X431377Y414442D01*
X455929Y343747D02*
X456776Y342901D01*
X458468D01*
X459315Y343747D01*
Y344594D01*
X458468Y345440D01*
X456776D01*
X455929Y346286D01*
Y347133D01*
X456776Y347979D01*
X458468D01*
X459315Y347133D01*
X454236Y342901D02*
Y347979D01*
X452544Y346286D01*
X450851Y347979D01*
Y342901D01*
X449158Y347979D02*
X447465D01*
X448312D01*
Y342901D01*
X449158Y343747D01*
X394971Y246801D02*
X400049D01*
Y244262D01*
X399203Y243416D01*
X397510D01*
X396664Y244262D01*
Y246801D01*
Y245108D02*
X394971Y243416D01*
Y239184D02*
X400049D01*
X397510Y241723D01*
Y238337D01*
X395817Y236644D02*
X394971Y235798D01*
Y234105D01*
X395817Y233259D01*
X399203D01*
X400049Y234105D01*
Y235798D01*
X399203Y236644D01*
X398356D01*
X397510Y235798D01*
Y233259D01*
X256539Y284059D02*
X251461D01*
Y286598D01*
X252307Y287444D01*
X254000D01*
X254846Y286598D01*
Y284059D01*
Y285752D02*
X256539Y287444D01*
Y291676D02*
X251461D01*
X254000Y289137D01*
Y292523D01*
X252307Y294216D02*
X251461Y295062D01*
Y296755D01*
X252307Y297601D01*
X253154D01*
X254000Y296755D01*
X254846Y297601D01*
X255693D01*
X256539Y296755D01*
Y295062D01*
X255693Y294216D01*
X254846D01*
X254000Y295062D01*
X253154Y294216D01*
X252307D01*
X254000Y295062D02*
Y296755D01*
X272629Y535941D02*
Y541019D01*
X275168D01*
X276014Y540173D01*
Y538480D01*
X275168Y537634D01*
X272629D01*
X274322D02*
X276014Y535941D01*
X280246D02*
Y541019D01*
X277707Y538480D01*
X281093D01*
X282786Y541019D02*
X286171D01*
Y540173D01*
X282786Y536787D01*
Y535941D01*
X318349Y214631D02*
Y219709D01*
X320888D01*
X321734Y218863D01*
Y217170D01*
X320888Y216324D01*
X318349D01*
X320042D02*
X321734Y214631D01*
X325966D02*
Y219709D01*
X323427Y217170D01*
X326813D01*
X331891Y219709D02*
X330198Y218863D01*
X328506Y217170D01*
Y215477D01*
X329352Y214631D01*
X331045D01*
X331891Y215477D01*
Y216324D01*
X331045Y217170D01*
X328506D01*
X430951Y330199D02*
Y325121D01*
X428412D01*
X427566Y325967D01*
Y327660D01*
X428412Y328506D01*
X430951D01*
X429258D02*
X427566Y330199D01*
X423334D02*
Y325121D01*
X425873Y327660D01*
X422487D01*
X417409Y325121D02*
X420794D01*
Y327660D01*
X419102Y326814D01*
X418255D01*
X417409Y327660D01*
Y329353D01*
X418255Y330199D01*
X419948D01*
X420794Y329353D01*
X394971Y281091D02*
X400049D01*
Y278552D01*
X399203Y277706D01*
X397510D01*
X396664Y278552D01*
Y281091D01*
Y279398D02*
X394971Y277706D01*
Y273474D02*
X400049D01*
X397510Y276013D01*
Y272627D01*
X394971Y268395D02*
X400049D01*
X397510Y270934D01*
Y267549D01*
X284481Y301411D02*
X289559D01*
Y298872D01*
X288713Y298026D01*
X287020D01*
X286174Y298872D01*
Y301411D01*
Y299718D02*
X284481Y298026D01*
Y293794D02*
X289559D01*
X287020Y296333D01*
Y292947D01*
X288713Y291254D02*
X289559Y290408D01*
Y288715D01*
X288713Y287869D01*
X287866D01*
X287020Y288715D01*
Y289562D01*
Y288715D01*
X286174Y287869D01*
X285327D01*
X284481Y288715D01*
Y290408D01*
X285327Y291254D01*
X410631Y330199D02*
Y325121D01*
X408092D01*
X407246Y325967D01*
Y327660D01*
X408092Y328506D01*
X410631D01*
X408938D02*
X407246Y330199D01*
X403014D02*
Y325121D01*
X405553Y327660D01*
X402167D01*
X397089Y330199D02*
X400474D01*
X397089Y326814D01*
Y325967D01*
X397935Y325121D01*
X399628D01*
X400474Y325967D01*
X371474Y362584D02*
Y358776D01*
X369569D01*
X368934Y359410D01*
Y360680D01*
X369569Y361315D01*
X371474D01*
X370204D02*
X368934Y362584D01*
X365760D02*
Y358776D01*
X367665Y360680D01*
X365126D01*
X363856Y362584D02*
X362586D01*
X363221D01*
Y358776D01*
X363856Y359410D01*
X308609Y419949D02*
X303531D01*
Y422488D01*
X304377Y423335D01*
X306070D01*
X306916Y422488D01*
Y419949D01*
Y421642D02*
X308609Y423335D01*
Y427566D02*
X303531D01*
X306070Y425027D01*
Y428413D01*
X304377Y430106D02*
X303531Y430952D01*
Y432645D01*
X304377Y433491D01*
X307763D01*
X308609Y432645D01*
Y430952D01*
X307763Y430106D01*
X304377D01*
X302259Y351369D02*
X297181D01*
Y353908D01*
X298027Y354754D01*
X299720D01*
X300566Y353908D01*
Y351369D01*
Y353062D02*
X302259Y354754D01*
X298027Y356447D02*
X297181Y357294D01*
Y358986D01*
X298027Y359833D01*
X298874D01*
X299720Y358986D01*
Y358140D01*
Y358986D01*
X300566Y359833D01*
X301413D01*
X302259Y358986D01*
Y357294D01*
X301413Y356447D01*
Y361526D02*
X302259Y362372D01*
Y364065D01*
X301413Y364911D01*
X298027D01*
X297181Y364065D01*
Y362372D01*
X298027Y361526D01*
X298874D01*
X299720Y362372D01*
Y364911D01*
X284481Y272201D02*
X289559D01*
Y269662D01*
X288713Y268815D01*
X287020D01*
X286174Y269662D01*
Y272201D01*
Y270508D02*
X284481Y268815D01*
X288713Y267123D02*
X289559Y266276D01*
Y264584D01*
X288713Y263737D01*
X287866D01*
X287020Y264584D01*
Y265430D01*
Y264584D01*
X286174Y263737D01*
X285327D01*
X284481Y264584D01*
Y266276D01*
X285327Y267123D01*
X288713Y262044D02*
X289559Y261198D01*
Y259505D01*
X288713Y258659D01*
X287866D01*
X287020Y259505D01*
X286174Y258659D01*
X285327D01*
X284481Y259505D01*
Y261198D01*
X285327Y262044D01*
X286174D01*
X287020Y261198D01*
X287866Y262044D01*
X288713D01*
X287020Y261198D02*
Y259505D01*
X382271Y474131D02*
X387349D01*
Y471592D01*
X386503Y470746D01*
X384810D01*
X383964Y471592D01*
Y474131D01*
Y472438D02*
X382271Y470746D01*
X386503Y469053D02*
X387349Y468206D01*
Y466514D01*
X386503Y465667D01*
X385656D01*
X384810Y466514D01*
Y467360D01*
Y466514D01*
X383964Y465667D01*
X383117D01*
X382271Y466514D01*
Y468206D01*
X383117Y469053D01*
X387349Y463974D02*
Y460589D01*
X386503D01*
X383117Y463974D01*
X382271D01*
X380151Y326389D02*
Y321311D01*
X377612D01*
X376766Y322157D01*
Y323850D01*
X377612Y324696D01*
X380151D01*
X378458D02*
X376766Y326389D01*
X375073Y322157D02*
X374226Y321311D01*
X372534D01*
X371687Y322157D01*
Y323004D01*
X372534Y323850D01*
X373380D01*
X372534D01*
X371687Y324696D01*
Y325543D01*
X372534Y326389D01*
X374226D01*
X375073Y325543D01*
X366609Y321311D02*
X368302Y322157D01*
X369994Y323850D01*
Y325543D01*
X369148Y326389D01*
X367455D01*
X366609Y325543D01*
Y324696D01*
X367455Y323850D01*
X369994D01*
X302259Y328509D02*
X297181D01*
Y331048D01*
X298027Y331894D01*
X299720D01*
X300566Y331048D01*
Y328509D01*
Y330202D02*
X302259Y331894D01*
X298027Y333587D02*
X297181Y334434D01*
Y336126D01*
X298027Y336973D01*
X298874D01*
X299720Y336126D01*
Y335280D01*
Y336126D01*
X300566Y336973D01*
X301413D01*
X302259Y336126D01*
Y334434D01*
X301413Y333587D01*
X297181Y342051D02*
Y338666D01*
X299720D01*
X298874Y340358D01*
Y341205D01*
X299720Y342051D01*
X301413D01*
X302259Y341205D01*
Y339512D01*
X301413Y338666D01*
X308609Y381849D02*
X303531D01*
Y384388D01*
X304377Y385234D01*
X306070D01*
X306916Y384388D01*
Y381849D01*
Y383542D02*
X308609Y385234D01*
X304377Y386927D02*
X303531Y387774D01*
Y389466D01*
X304377Y390313D01*
X305224D01*
X306070Y389466D01*
Y388620D01*
Y389466D01*
X306916Y390313D01*
X307763D01*
X308609Y389466D01*
Y387774D01*
X307763Y386927D01*
X308609Y394545D02*
X303531D01*
X306070Y392006D01*
Y395391D01*
X543139Y265731D02*
Y270809D01*
X545678D01*
X546524Y269963D01*
Y268270D01*
X545678Y267424D01*
X543139D01*
X544832D02*
X546524Y265731D01*
X548217Y269963D02*
X549064Y270809D01*
X550756D01*
X551603Y269963D01*
Y269116D01*
X550756Y268270D01*
X549910D01*
X550756D01*
X551603Y267424D01*
Y266577D01*
X550756Y265731D01*
X549064D01*
X548217Y266577D01*
X553296Y269963D02*
X554142Y270809D01*
X555835D01*
X556681Y269963D01*
Y269116D01*
X555835Y268270D01*
X554988D01*
X555835D01*
X556681Y267424D01*
Y266577D01*
X555835Y265731D01*
X554142D01*
X553296Y266577D01*
X258659Y486641D02*
Y491719D01*
X261198D01*
X262044Y490873D01*
Y489180D01*
X261198Y488334D01*
X258659D01*
X260352D02*
X262044Y486641D01*
X263737Y490873D02*
X264584Y491719D01*
X266276D01*
X267123Y490873D01*
Y490026D01*
X266276Y489180D01*
X265430D01*
X266276D01*
X267123Y488334D01*
Y487487D01*
X266276Y486641D01*
X264584D01*
X263737Y487487D01*
X272201Y486641D02*
X268816D01*
X272201Y490026D01*
Y490873D01*
X271355Y491719D01*
X269662D01*
X268816Y490873D01*
X171875Y535941D02*
Y541019D01*
X174415D01*
X175261Y540173D01*
Y538480D01*
X174415Y537634D01*
X171875D01*
X173568D02*
X175261Y535941D01*
X176954Y540173D02*
X177800Y541019D01*
X179493D01*
X180339Y540173D01*
Y539326D01*
X179493Y538480D01*
X178646D01*
X179493D01*
X180339Y537634D01*
Y536787D01*
X179493Y535941D01*
X177800D01*
X176954Y536787D01*
X182032Y535941D02*
X183725D01*
X182878D01*
Y541019D01*
X182032Y540173D01*
X242571Y390311D02*
X247649D01*
Y387772D01*
X246803Y386926D01*
X245110D01*
X244264Y387772D01*
Y390311D01*
Y388618D02*
X242571Y386926D01*
X246803Y385233D02*
X247649Y384386D01*
Y382694D01*
X246803Y381847D01*
X245956D01*
X245110Y382694D01*
Y383540D01*
Y382694D01*
X244264Y381847D01*
X243417D01*
X242571Y382694D01*
Y384386D01*
X243417Y385233D01*
X246803Y380154D02*
X247649Y379308D01*
Y377615D01*
X246803Y376769D01*
X243417D01*
X242571Y377615D01*
Y379308D01*
X243417Y380154D01*
X246803D01*
X196851Y410631D02*
X201929D01*
Y408092D01*
X201083Y407246D01*
X199390D01*
X198544Y408092D01*
Y410631D01*
Y408938D02*
X196851Y407246D01*
Y402167D02*
Y405553D01*
X200236Y402167D01*
X201083D01*
X201929Y403014D01*
Y404706D01*
X201083Y405553D01*
X197697Y400474D02*
X196851Y399628D01*
Y397935D01*
X197697Y397089D01*
X201083D01*
X201929Y397935D01*
Y399628D01*
X201083Y400474D01*
X200236D01*
X199390Y399628D01*
Y397089D01*
X332741Y477941D02*
X337819D01*
Y475402D01*
X336973Y474556D01*
X335280D01*
X334434Y475402D01*
Y477941D01*
Y476248D02*
X332741Y474556D01*
Y469477D02*
Y472863D01*
X336126Y469477D01*
X336973D01*
X337819Y470324D01*
Y472016D01*
X336973Y472863D01*
Y467784D02*
X337819Y466938D01*
Y465245D01*
X336973Y464399D01*
X336126D01*
X335280Y465245D01*
X334434Y464399D01*
X333587D01*
X332741Y465245D01*
Y466938D01*
X333587Y467784D01*
X334434D01*
X335280Y466938D01*
X336126Y467784D01*
X336973D01*
X335280Y466938D02*
Y465245D01*
X505039Y337821D02*
Y342899D01*
X507578D01*
X508424Y342053D01*
Y340360D01*
X507578Y339514D01*
X505039D01*
X506732D02*
X508424Y337821D01*
X513503D02*
X510117D01*
X513503Y341206D01*
Y342053D01*
X512656Y342899D01*
X510964D01*
X510117Y342053D01*
X515196Y342899D02*
X518581D01*
Y342053D01*
X515196Y338667D01*
Y337821D01*
X468209D02*
Y342899D01*
X470748D01*
X471594Y342053D01*
Y340360D01*
X470748Y339514D01*
X468209D01*
X469902D02*
X471594Y337821D01*
X476673D02*
X473287D01*
X476673Y341206D01*
Y342053D01*
X475826Y342899D01*
X474134D01*
X473287Y342053D01*
X481751Y342899D02*
X480058Y342053D01*
X478366Y340360D01*
Y338667D01*
X479212Y337821D01*
X480905D01*
X481751Y338667D01*
Y339514D01*
X480905Y340360D01*
X478366D01*
X540599Y283211D02*
Y288289D01*
X543138D01*
X543984Y287443D01*
Y285750D01*
X543138Y284904D01*
X540599D01*
X542292D02*
X543984Y283211D01*
X549063D02*
X545677D01*
X549063Y286596D01*
Y287443D01*
X548216Y288289D01*
X546524D01*
X545677Y287443D01*
X554141Y288289D02*
X550756D01*
Y285750D01*
X552448Y286596D01*
X553295D01*
X554141Y285750D01*
Y284057D01*
X553295Y283211D01*
X551602D01*
X550756Y284057D01*
X554989Y209129D02*
X549911D01*
Y211668D01*
X550757Y212514D01*
X552450D01*
X553296Y211668D01*
Y209129D01*
Y210822D02*
X554989Y212514D01*
Y217593D02*
Y214207D01*
X551604Y217593D01*
X550757D01*
X549911Y216746D01*
Y215054D01*
X550757Y214207D01*
X554989Y221825D02*
X549911D01*
X552450Y219286D01*
Y222671D01*
X568539Y309881D02*
Y314959D01*
X571078D01*
X571924Y314113D01*
Y312420D01*
X571078Y311574D01*
X568539D01*
X570232D02*
X571924Y309881D01*
X577003D02*
X573617D01*
X577003Y313266D01*
Y314113D01*
X576156Y314959D01*
X574464D01*
X573617Y314113D01*
X578696D02*
X579542Y314959D01*
X581235D01*
X582081Y314113D01*
Y313266D01*
X581235Y312420D01*
X580388D01*
X581235D01*
X582081Y311574D01*
Y310727D01*
X581235Y309881D01*
X579542D01*
X578696Y310727D01*
X555839Y337821D02*
Y342899D01*
X558378D01*
X559224Y342053D01*
Y340360D01*
X558378Y339514D01*
X555839D01*
X557532D02*
X559224Y337821D01*
X564303D02*
X560917D01*
X564303Y341206D01*
Y342053D01*
X563456Y342899D01*
X561764D01*
X560917Y342053D01*
X569381Y337821D02*
X565996D01*
X569381Y341206D01*
Y342053D01*
X568535Y342899D01*
X566842D01*
X565996Y342053D01*
X612985Y204169D02*
Y199091D01*
X610446D01*
X609599Y199937D01*
Y201630D01*
X610446Y202476D01*
X612985D01*
X611292D02*
X609599Y204169D01*
X604521D02*
X607906D01*
X604521Y200784D01*
Y199937D01*
X605367Y199091D01*
X607060D01*
X607906Y199937D01*
X602828Y204169D02*
X601135D01*
X601982D01*
Y199091D01*
X602828Y199937D01*
X588009Y240579D02*
X582931D01*
Y243118D01*
X583777Y243965D01*
X585470D01*
X586316Y243118D01*
Y240579D01*
Y242272D02*
X588009Y243965D01*
Y249043D02*
Y245657D01*
X584624Y249043D01*
X583777D01*
X582931Y248196D01*
Y246504D01*
X583777Y245657D01*
Y250736D02*
X582931Y251582D01*
Y253275D01*
X583777Y254121D01*
X587163D01*
X588009Y253275D01*
Y251582D01*
X587163Y250736D01*
X583777D01*
X491809Y299086D02*
Y302894D01*
X493713D01*
X494348Y302260D01*
Y300990D01*
X493713Y300355D01*
X491809D01*
X493079D02*
X494348Y299086D01*
X495618D02*
X496887D01*
X496253D01*
Y302894D01*
X495618Y302260D01*
X498792Y299720D02*
X499427Y299086D01*
X500696D01*
X501331Y299720D01*
Y302260D01*
X500696Y302894D01*
X499427D01*
X498792Y302260D01*
Y301625D01*
X499427Y300990D01*
X501331D01*
X427021Y307338D02*
X432099D01*
Y304799D01*
X431253Y303952D01*
X429560D01*
X428714Y304799D01*
Y307338D01*
Y305645D02*
X427021Y303952D01*
Y302260D02*
Y300567D01*
Y301413D01*
X432099D01*
X431253Y302260D01*
Y298028D02*
X432099Y297181D01*
Y295488D01*
X431253Y294642D01*
X430406D01*
X429560Y295488D01*
X428714Y294642D01*
X427867D01*
X427021Y295488D01*
Y297181D01*
X427867Y298028D01*
X428714D01*
X429560Y297181D01*
X430406Y298028D01*
X431253D01*
X429560Y297181D02*
Y295488D01*
X415061Y105408D02*
X420139D01*
Y102869D01*
X419293Y102022D01*
X417600D01*
X416754Y102869D01*
Y105408D01*
Y103715D02*
X415061Y102022D01*
Y100330D02*
Y98637D01*
Y99483D01*
X420139D01*
X419293Y100330D01*
X420139Y96098D02*
Y92712D01*
X419293D01*
X415907Y96098D01*
X415061D01*
X443228Y42209D02*
Y37131D01*
X440689D01*
X439842Y37977D01*
Y39670D01*
X440689Y40516D01*
X443228D01*
X441535D02*
X439842Y42209D01*
X438149D02*
X436457D01*
X437303D01*
Y37131D01*
X438149Y37977D01*
X430532Y37131D02*
X432225Y37977D01*
X433918Y39670D01*
Y41363D01*
X433071Y42209D01*
X431378D01*
X430532Y41363D01*
Y40516D01*
X431378Y39670D01*
X433918D01*
X614682Y340361D02*
Y345439D01*
X617221D01*
X618068Y344593D01*
Y342900D01*
X617221Y342054D01*
X614682D01*
X616375D02*
X618068Y340361D01*
X619760D02*
X621453D01*
X620607D01*
Y345439D01*
X619760Y344593D01*
X627378Y345439D02*
X623992D01*
Y342900D01*
X625685Y343746D01*
X626532D01*
X627378Y342900D01*
Y341207D01*
X626532Y340361D01*
X624839D01*
X623992Y341207D01*
X582932Y455931D02*
Y461009D01*
X585471D01*
X586318Y460163D01*
Y458470D01*
X585471Y457624D01*
X582932D01*
X584625D02*
X586318Y455931D01*
X588010D02*
X589703D01*
X588857D01*
Y461009D01*
X588010Y460163D01*
X594782Y455931D02*
Y461009D01*
X592242Y458470D01*
X595628D01*
X623571Y444498D02*
X628649D01*
Y441959D01*
X627803Y441112D01*
X626110D01*
X625264Y441959D01*
Y444498D01*
Y442805D02*
X623571Y441112D01*
Y439420D02*
Y437727D01*
Y438573D01*
X628649D01*
X627803Y439420D01*
Y435188D02*
X628649Y434341D01*
Y432648D01*
X627803Y431802D01*
X626956D01*
X626110Y432648D01*
Y433495D01*
Y432648D01*
X625264Y431802D01*
X624417D01*
X623571Y432648D01*
Y434341D01*
X624417Y435188D01*
X487679Y401322D02*
X482601D01*
Y403861D01*
X483447Y404708D01*
X485140D01*
X485986Y403861D01*
Y401322D01*
Y403015D02*
X487679Y404708D01*
Y406400D02*
Y408093D01*
Y407247D01*
X482601D01*
X483447Y406400D01*
X487679Y414018D02*
Y410632D01*
X484294Y414018D01*
X483447D01*
X482601Y413172D01*
Y411479D01*
X483447Y410632D01*
X487679Y365339D02*
X482601D01*
Y367878D01*
X483447Y368724D01*
X485140D01*
X485986Y367878D01*
Y365339D01*
Y367031D02*
X487679Y368724D01*
Y370417D02*
Y372110D01*
Y371263D01*
X482601D01*
X483447Y370417D01*
X487679Y374649D02*
Y376342D01*
Y375495D01*
X482601D01*
X483447Y374649D01*
X519431Y365758D02*
X524509D01*
Y363219D01*
X523663Y362372D01*
X521970D01*
X521124Y363219D01*
Y365758D01*
Y364065D02*
X519431Y362372D01*
Y360680D02*
Y358987D01*
Y359833D01*
X524509D01*
X523663Y360680D01*
Y356448D02*
X524509Y355601D01*
Y353908D01*
X523663Y353062D01*
X520277D01*
X519431Y353908D01*
Y355601D01*
X520277Y356448D01*
X523663D01*
X555838Y455931D02*
Y461009D01*
X558377D01*
X559224Y460163D01*
Y458470D01*
X558377Y457624D01*
X555838D01*
X557531D02*
X559224Y455931D01*
X560916Y460163D02*
X561763Y461009D01*
X563456D01*
X564302Y460163D01*
Y459316D01*
X563456Y458470D01*
X564302Y457624D01*
Y456777D01*
X563456Y455931D01*
X561763D01*
X560916Y456777D01*
Y457624D01*
X561763Y458470D01*
X560916Y459316D01*
Y460163D01*
X561763Y458470D02*
X563456D01*
X394548Y537211D02*
Y542289D01*
X397087D01*
X397934Y541443D01*
Y539750D01*
X397087Y538904D01*
X394548D01*
X396241D02*
X397934Y537211D01*
X399626Y542289D02*
X403012D01*
Y541443D01*
X399626Y538057D01*
Y537211D01*
X583778Y358141D02*
Y363219D01*
X586317D01*
X587164Y362373D01*
Y360680D01*
X586317Y359834D01*
X583778D01*
X585471D02*
X587164Y358141D01*
X592242Y363219D02*
X590549Y362373D01*
X588856Y360680D01*
Y358987D01*
X589703Y358141D01*
X591396D01*
X592242Y358987D01*
Y359834D01*
X591396Y360680D01*
X588856D01*
X623148Y190501D02*
Y195579D01*
X625687D01*
X626534Y194733D01*
Y193040D01*
X625687Y192194D01*
X623148D01*
X624841D02*
X626534Y190501D01*
X631612Y195579D02*
X628226D01*
Y193040D01*
X629919Y193886D01*
X630766D01*
X631612Y193040D01*
Y191347D01*
X630766Y190501D01*
X629073D01*
X628226Y191347D01*
X152822Y185419D02*
Y180341D01*
X150283D01*
X149436Y181187D01*
Y182880D01*
X150283Y183726D01*
X152822D01*
X151129D02*
X149436Y185419D01*
X145204D02*
Y180341D01*
X147744Y182880D01*
X144358D01*
X30902Y186689D02*
Y181611D01*
X28363D01*
X27516Y182457D01*
Y184150D01*
X28363Y184996D01*
X30902D01*
X29209D02*
X27516Y186689D01*
X25824Y182457D02*
X24977Y181611D01*
X23284D01*
X22438Y182457D01*
Y183304D01*
X23284Y184150D01*
X24131D01*
X23284D01*
X22438Y184996D01*
Y185843D01*
X23284Y186689D01*
X24977D01*
X25824Y185843D01*
X71542Y185419D02*
Y180341D01*
X69003D01*
X68156Y181187D01*
Y182880D01*
X69003Y183726D01*
X71542D01*
X69849D02*
X68156Y185419D01*
X63078D02*
X66464D01*
X63078Y182034D01*
Y181187D01*
X63924Y180341D01*
X65617D01*
X66464Y181187D01*
X111336Y186689D02*
Y181611D01*
X108796D01*
X107950Y182457D01*
Y184150D01*
X108796Y184996D01*
X111336D01*
X109643D02*
X107950Y186689D01*
X106257D02*
X104564D01*
X105411D01*
Y181611D01*
X106257Y182457D01*
X117689Y281941D02*
Y287019D01*
X119382Y285326D01*
X121074Y287019D01*
Y281941D01*
X126153Y286173D02*
X125306Y287019D01*
X123614D01*
X122767Y286173D01*
Y282787D01*
X123614Y281941D01*
X125306D01*
X126153Y282787D01*
X127846Y287019D02*
Y282787D01*
X128692Y281941D01*
X130385D01*
X131231Y282787D01*
Y287019D01*
X625688Y256121D02*
X630766D01*
Y259507D01*
X625688Y264585D02*
Y261200D01*
X630766D01*
Y264585D01*
X628227Y261200D02*
Y262892D01*
X625688Y266278D02*
X630766D01*
Y268817D01*
X629920Y269664D01*
X626534D01*
X625688Y268817D01*
Y266278D01*
X631612Y271356D02*
Y274742D01*
X630766Y276435D02*
X625688D01*
Y278974D01*
X626534Y279820D01*
X628227D01*
X629073Y278974D01*
Y276435D01*
Y278127D02*
X630766Y279820D01*
X626534Y281513D02*
X625688Y282360D01*
Y284052D01*
X626534Y284899D01*
X627380D01*
X628227Y284052D01*
Y283206D01*
Y284052D01*
X629073Y284899D01*
X629920D01*
X630766Y284052D01*
Y282360D01*
X629920Y281513D01*
X540178Y475402D02*
Y470324D01*
X543563D01*
X548642Y475402D02*
X545256D01*
Y470324D01*
X548642D01*
X545256Y472863D02*
X546949D01*
X550334Y475402D02*
Y470324D01*
X552874D01*
X553720Y471170D01*
Y474556D01*
X552874Y475402D01*
X550334D01*
X555413Y469478D02*
X558798D01*
X560491Y470324D02*
Y475402D01*
X563030D01*
X563877Y474556D01*
Y472863D01*
X563030Y472017D01*
X560491D01*
X562184D02*
X563877Y470324D01*
X565569D02*
X567262D01*
X566416D01*
Y475402D01*
X565569Y474556D01*
X244262Y246800D02*
X239184D01*
Y243414D01*
X244262Y238336D02*
Y241721D01*
X239184D01*
Y238336D01*
X241723Y241721D02*
Y240028D01*
X244262Y236643D02*
X239184D01*
Y234104D01*
X240030Y233257D01*
X243416D01*
X244262Y234104D01*
Y236643D01*
X238338Y231564D02*
Y228179D01*
X243416Y223100D02*
X244262Y223947D01*
Y225640D01*
X243416Y226486D01*
X240030D01*
X239184Y225640D01*
Y223947D01*
X240030Y223100D01*
X241723D01*
Y224793D01*
X535948Y41062D02*
X539333D01*
X537641D01*
Y35984D01*
X541026Y41062D02*
Y35984D01*
X543565D01*
X544412Y36830D01*
Y40216D01*
X543565Y41062D01*
X541026D01*
X549490Y40216D02*
X548644Y41062D01*
X546951D01*
X546105Y40216D01*
Y39370D01*
X546951Y38523D01*
X548644D01*
X549490Y37677D01*
Y36830D01*
X548644Y35984D01*
X546951D01*
X546105Y36830D01*
X551183Y35138D02*
X554568D01*
X559647Y40216D02*
X558800Y41062D01*
X557108D01*
X556261Y40216D01*
Y39370D01*
X557108Y38523D01*
X558800D01*
X559647Y37677D01*
Y36830D01*
X558800Y35984D01*
X557108D01*
X556261Y36830D01*
X563879Y35984D02*
X562186D01*
X561340Y36830D01*
Y38523D01*
X562186Y39370D01*
X563879D01*
X564725Y38523D01*
Y37677D01*
X561340D01*
X566418Y35984D02*
Y39370D01*
X568957D01*
X569804Y38523D01*
Y35984D01*
X571496D02*
X574035D01*
X574882Y36830D01*
X574035Y37677D01*
X572343D01*
X571496Y38523D01*
X572343Y39370D01*
X574882D01*
X577421Y35984D02*
X579114D01*
X579960Y36830D01*
Y38523D01*
X579114Y39370D01*
X577421D01*
X576575Y38523D01*
Y36830D01*
X577421Y35984D01*
X581653Y39370D02*
Y35984D01*
Y37677D01*
X582499Y38523D01*
X583346Y39370D01*
X584192D01*
X524518Y549232D02*
X527903D01*
X526211D01*
Y544154D01*
X529596Y549232D02*
Y544154D01*
X532135D01*
X532982Y545000D01*
Y545847D01*
X532135Y546693D01*
X529596D01*
X532135D01*
X532982Y547540D01*
Y548386D01*
X532135Y549232D01*
X529596D01*
X534674D02*
Y544154D01*
X537214D01*
X538060Y545000D01*
Y548386D01*
X537214Y549232D01*
X534674D01*
X539753Y543308D02*
X543139D01*
X548217Y548386D02*
X547370Y549232D01*
X545678D01*
X544831Y548386D01*
Y547540D01*
X545678Y546693D01*
X547370D01*
X548217Y545847D01*
Y545000D01*
X547370Y544154D01*
X545678D01*
X544831Y545000D01*
X552449Y544154D02*
X550756D01*
X549910Y545000D01*
Y546693D01*
X550756Y547540D01*
X552449D01*
X553295Y546693D01*
Y545847D01*
X549910D01*
X554988Y544154D02*
Y547540D01*
X557527D01*
X558373Y546693D01*
Y544154D01*
X560066D02*
X562606D01*
X563452Y545000D01*
X562606Y545847D01*
X560913D01*
X560066Y546693D01*
X560913Y547540D01*
X563452D01*
X565991Y544154D02*
X567684D01*
X568530Y545000D01*
Y546693D01*
X567684Y547540D01*
X565991D01*
X565145Y546693D01*
Y545000D01*
X565991Y544154D01*
X570223Y547540D02*
Y544154D01*
Y545847D01*
X571069Y546693D01*
X571916Y547540D01*
X572762D01*
X619769Y38946D02*
X623154D01*
X621461D01*
Y33867D01*
X627386D02*
X625693D01*
X624847Y34714D01*
Y36406D01*
X625693Y37253D01*
X627386D01*
X628233Y36406D01*
Y35560D01*
X624847D01*
X629925Y33867D02*
Y37253D01*
X630772D01*
X631618Y36406D01*
Y33867D01*
Y36406D01*
X632464Y37253D01*
X633311Y36406D01*
Y33867D01*
X635004Y32174D02*
Y37253D01*
X637543D01*
X638389Y36406D01*
Y34714D01*
X637543Y33867D01*
X635004D01*
X640082Y33021D02*
X643468D01*
X648546Y38099D02*
X647700Y38946D01*
X646007D01*
X645160Y38099D01*
Y37253D01*
X646007Y36406D01*
X647700D01*
X648546Y35560D01*
Y34714D01*
X647700Y33867D01*
X646007D01*
X645160Y34714D01*
X652778Y33867D02*
X651085D01*
X650239Y34714D01*
Y36406D01*
X651085Y37253D01*
X652778D01*
X653624Y36406D01*
Y35560D01*
X650239D01*
X655317Y33867D02*
Y37253D01*
X657856D01*
X658703Y36406D01*
Y33867D01*
X660396D02*
X662935D01*
X663781Y34714D01*
X662935Y35560D01*
X661242D01*
X660396Y36406D01*
X661242Y37253D01*
X663781D01*
X666320Y33867D02*
X668013D01*
X668859Y34714D01*
Y36406D01*
X668013Y37253D01*
X666320D01*
X665474Y36406D01*
Y34714D01*
X666320Y33867D01*
X670552Y37253D02*
Y33867D01*
Y35560D01*
X671399Y36406D01*
X672245Y37253D01*
X673091D01*
X25407Y33021D02*
Y38099D01*
X27946D01*
X28793Y37253D01*
Y35560D01*
X27946Y34714D01*
X25407D01*
X31332Y33021D02*
X33024D01*
X33871Y33867D01*
Y35560D01*
X33024Y36406D01*
X31332D01*
X30485Y35560D01*
Y33867D01*
X31332Y33021D01*
X35564Y36406D02*
Y33867D01*
X36410Y33021D01*
X37257Y33867D01*
X38103Y33021D01*
X38949Y33867D01*
Y36406D01*
X43181Y33021D02*
X41488D01*
X40642Y33867D01*
Y35560D01*
X41488Y36406D01*
X43181D01*
X44028Y35560D01*
Y34714D01*
X40642D01*
X45720Y36406D02*
Y33021D01*
Y34714D01*
X46567Y35560D01*
X47413Y36406D01*
X48260D01*
X55877Y33021D02*
X57570D01*
X56723D01*
Y38099D01*
X55877Y37253D01*
X63495Y33021D02*
X60109D01*
X63495Y36406D01*
Y37253D01*
X62648Y38099D01*
X60956D01*
X60109Y37253D01*
X65187Y38099D02*
Y34714D01*
X66880Y33021D01*
X68573Y34714D01*
Y38099D01*
X48267Y531284D02*
Y536363D01*
X50806D01*
X51653Y535516D01*
Y533824D01*
X50806Y532977D01*
X48267D01*
X53345Y538056D02*
Y532977D01*
Y535516D01*
X56731D01*
Y538056D01*
Y532977D01*
X58424Y532131D02*
X61809D01*
X66888Y537209D02*
X66041Y538056D01*
X64349D01*
X63502Y537209D01*
Y536363D01*
X64349Y535516D01*
X66041D01*
X66888Y534670D01*
Y533824D01*
X66041Y532977D01*
X64349D01*
X63502Y533824D01*
X71120Y532977D02*
X69427D01*
X68580Y533824D01*
Y535516D01*
X69427Y536363D01*
X71120D01*
X71966Y535516D01*
Y534670D01*
X68580D01*
X73659Y532977D02*
Y536363D01*
X76198D01*
X77044Y535516D01*
Y532977D01*
X78737D02*
X81276D01*
X82123Y533824D01*
X81276Y534670D01*
X79584D01*
X78737Y535516D01*
X79584Y536363D01*
X82123D01*
X84662Y532977D02*
X86355D01*
X87201Y533824D01*
Y535516D01*
X86355Y536363D01*
X84662D01*
X83815Y535516D01*
Y533824D01*
X84662Y532977D01*
X88894Y536363D02*
Y532977D01*
Y534670D01*
X89740Y535516D01*
X90587Y536363D01*
X91433D01*
X585721Y169758D02*
X590799D01*
Y172297D01*
X589953Y173144D01*
X586567D01*
X585721Y172297D01*
Y169758D01*
Y178222D02*
X586567Y176529D01*
X588260Y174836D01*
X589953D01*
X590799Y175683D01*
Y177376D01*
X589953Y178222D01*
X589106D01*
X588260Y177376D01*
Y174836D01*
X540598Y187959D02*
Y182881D01*
X543137D01*
X543984Y183727D01*
Y187113D01*
X543137Y187959D01*
X540598D01*
X549062D02*
X545676D01*
Y185420D01*
X547369Y186266D01*
X548216D01*
X549062Y185420D01*
Y183727D01*
X548216Y182881D01*
X546523D01*
X545676Y183727D01*
X527051Y150708D02*
X532129D01*
Y153247D01*
X531283Y154094D01*
X527897D01*
X527051Y153247D01*
Y150708D01*
X532129Y158326D02*
X527051D01*
X529590Y155786D01*
Y159172D01*
X554568Y158749D02*
Y153671D01*
X557107D01*
X557954Y154517D01*
Y157903D01*
X557107Y158749D01*
X554568D01*
X559646Y157903D02*
X560493Y158749D01*
X562186D01*
X563032Y157903D01*
Y157056D01*
X562186Y156210D01*
X561339D01*
X562186D01*
X563032Y155364D01*
Y154517D01*
X562186Y153671D01*
X560493D01*
X559646Y154517D01*
X572348Y158749D02*
Y153671D01*
X574887D01*
X575734Y154517D01*
Y157903D01*
X574887Y158749D01*
X572348D01*
X580812Y153671D02*
X577426D01*
X580812Y157056D01*
Y157903D01*
X579966Y158749D01*
X578273D01*
X577426Y157903D01*
X412327Y122344D02*
X411481Y121498D01*
Y119805D01*
X412327Y118959D01*
X415713D01*
X416559Y119805D01*
Y121498D01*
X415713Y122344D01*
X412327Y124037D02*
X411481Y124884D01*
Y126576D01*
X412327Y127423D01*
X413174D01*
X414020Y126576D01*
Y125730D01*
Y126576D01*
X414866Y127423D01*
X415713D01*
X416559Y126576D01*
Y124884D01*
X415713Y124037D01*
X416559Y132501D02*
Y129116D01*
X413174Y132501D01*
X412327D01*
X411481Y131655D01*
Y129962D01*
X412327Y129116D01*
X424603Y457199D02*
X425449Y458046D01*
Y459738D01*
X424603Y460585D01*
X421217D01*
X420371Y459738D01*
Y458046D01*
X421217Y457199D01*
X424603Y455506D02*
X425449Y454660D01*
Y452967D01*
X424603Y452121D01*
X423756D01*
X422910Y452967D01*
Y453814D01*
Y452967D01*
X422064Y452121D01*
X421217D01*
X420371Y452967D01*
Y454660D01*
X421217Y455506D01*
X420371Y450428D02*
Y448735D01*
Y449582D01*
X425449D01*
X424603Y450428D01*
X404707Y76624D02*
X403861Y75778D01*
Y74085D01*
X404707Y73239D01*
X408093D01*
X408939Y74085D01*
Y75778D01*
X408093Y76624D01*
X404707Y78317D02*
X403861Y79164D01*
Y80856D01*
X404707Y81703D01*
X405554D01*
X406400Y80856D01*
Y80010D01*
Y80856D01*
X407246Y81703D01*
X408093D01*
X408939Y80856D01*
Y79164D01*
X408093Y78317D01*
X404707Y83396D02*
X403861Y84242D01*
Y85935D01*
X404707Y86781D01*
X408093D01*
X408939Y85935D01*
Y84242D01*
X408093Y83396D01*
X404707D01*
X408093Y52916D02*
X408939Y53762D01*
Y55455D01*
X408093Y56301D01*
X404707D01*
X403861Y55455D01*
Y53762D01*
X404707Y52916D01*
X403861Y47837D02*
Y51223D01*
X407246Y47837D01*
X408093D01*
X408939Y48684D01*
Y50376D01*
X408093Y51223D01*
X404707Y46144D02*
X403861Y45298D01*
Y43605D01*
X404707Y42759D01*
X408093D01*
X408939Y43605D01*
Y45298D01*
X408093Y46144D01*
X407246D01*
X406400Y45298D01*
Y42759D01*
X409786Y289137D02*
X410632Y288291D01*
X412325D01*
X413171Y289137D01*
Y292523D01*
X412325Y293369D01*
X410632D01*
X409786Y292523D01*
X404707Y293369D02*
X408093D01*
X404707Y289984D01*
Y289137D01*
X405554Y288291D01*
X407246D01*
X408093Y289137D01*
X403014D02*
X402168Y288291D01*
X400475D01*
X399629Y289137D01*
Y289984D01*
X400475Y290830D01*
X399629Y291676D01*
Y292523D01*
X400475Y293369D01*
X402168D01*
X403014Y292523D01*
Y291676D01*
X402168Y290830D01*
X403014Y289984D01*
Y289137D01*
X402168Y290830D02*
X400475D01*
X169757Y483024D02*
X168911Y482178D01*
Y480485D01*
X169757Y479639D01*
X173143D01*
X173989Y480485D01*
Y482178D01*
X173143Y483024D01*
X173989Y488103D02*
Y484717D01*
X170604Y488103D01*
X169757D01*
X168911Y487256D01*
Y485564D01*
X169757Y484717D01*
X168911Y489796D02*
Y493181D01*
X169757D01*
X173143Y489796D01*
X173989D01*
X218864Y489373D02*
X218018Y490219D01*
X216325D01*
X215479Y489373D01*
Y485987D01*
X216325Y485141D01*
X218018D01*
X218864Y485987D01*
X223943Y485141D02*
X220557D01*
X223943Y488526D01*
Y489373D01*
X223096Y490219D01*
X221404D01*
X220557Y489373D01*
X229021Y490219D02*
X227328Y489373D01*
X225636Y487680D01*
Y485987D01*
X226482Y485141D01*
X228175D01*
X229021Y485987D01*
Y486834D01*
X228175Y487680D01*
X225636D01*
X585894Y340783D02*
X585048Y341629D01*
X583355D01*
X582509Y340783D01*
Y337397D01*
X583355Y336551D01*
X585048D01*
X585894Y337397D01*
X590973Y336551D02*
X587587D01*
X590973Y339936D01*
Y340783D01*
X590126Y341629D01*
X588434D01*
X587587Y340783D01*
X596051Y341629D02*
X592666D01*
Y339090D01*
X594358Y339936D01*
X595205D01*
X596051Y339090D01*
Y337397D01*
X595205Y336551D01*
X593512D01*
X592666Y337397D01*
X610024Y317923D02*
X609178Y318769D01*
X607485D01*
X606639Y317923D01*
Y314537D01*
X607485Y313691D01*
X609178D01*
X610024Y314537D01*
X615103Y313691D02*
X611717D01*
X615103Y317076D01*
Y317923D01*
X614256Y318769D01*
X612564D01*
X611717Y317923D01*
X619335Y313691D02*
Y318769D01*
X616796Y316230D01*
X620181D01*
X408517Y242994D02*
X407671Y242148D01*
Y240455D01*
X408517Y239609D01*
X411903D01*
X412749Y240455D01*
Y242148D01*
X411903Y242994D01*
X412749Y248073D02*
Y244687D01*
X409364Y248073D01*
X408517D01*
X407671Y247226D01*
Y245534D01*
X408517Y244687D01*
Y249766D02*
X407671Y250612D01*
Y252305D01*
X408517Y253151D01*
X409364D01*
X410210Y252305D01*
Y251458D01*
Y252305D01*
X411056Y253151D01*
X411903D01*
X412749Y252305D01*
Y250612D01*
X411903Y249766D01*
X550333Y201506D02*
X551179Y202352D01*
Y204045D01*
X550333Y204891D01*
X546947D01*
X546101Y204045D01*
Y202352D01*
X546947Y201506D01*
X546101Y196427D02*
Y199813D01*
X549486Y196427D01*
X550333D01*
X551179Y197274D01*
Y198966D01*
X550333Y199813D01*
X546101Y191349D02*
Y194734D01*
X549486Y191349D01*
X550333D01*
X551179Y192195D01*
Y193888D01*
X550333Y194734D01*
X471171Y156633D02*
X470325Y157479D01*
X468632D01*
X467785Y156633D01*
Y153247D01*
X468632Y152401D01*
X470325D01*
X471171Y153247D01*
X476249Y152401D02*
X472864D01*
X476249Y155786D01*
Y156633D01*
X475403Y157479D01*
X473710D01*
X472864Y156633D01*
X477942Y152401D02*
X479635D01*
X478788D01*
Y157479D01*
X477942Y156633D01*
X471593Y205316D02*
X472439Y206162D01*
Y207855D01*
X471593Y208701D01*
X468207D01*
X467361Y207855D01*
Y206162D01*
X468207Y205316D01*
X467361Y200237D02*
Y203623D01*
X470746Y200237D01*
X471593D01*
X472439Y201084D01*
Y202776D01*
X471593Y203623D01*
Y198544D02*
X472439Y197698D01*
Y196005D01*
X471593Y195159D01*
X468207D01*
X467361Y196005D01*
Y197698D01*
X468207Y198544D01*
X471593D01*
X411057Y190078D02*
X410211Y189231D01*
Y187539D01*
X411057Y186692D01*
X414443D01*
X415289Y187539D01*
Y189231D01*
X414443Y190078D01*
X415289Y191770D02*
Y193463D01*
Y192617D01*
X410211D01*
X411057Y191770D01*
X414443Y196002D02*
X415289Y196849D01*
Y198542D01*
X414443Y199388D01*
X411057D01*
X410211Y198542D01*
Y196849D01*
X411057Y196002D01*
X411904D01*
X412750Y196849D01*
Y199388D01*
X413597Y155994D02*
X412751Y155148D01*
Y153455D01*
X413597Y152608D01*
X416983D01*
X417829Y153455D01*
Y155148D01*
X416983Y155994D01*
X417829Y157687D02*
Y159380D01*
Y158533D01*
X412751D01*
X413597Y157687D01*
Y161919D02*
X412751Y162765D01*
Y164458D01*
X413597Y165304D01*
X414444D01*
X415290Y164458D01*
X416136Y165304D01*
X416983D01*
X417829Y164458D01*
Y162765D01*
X416983Y161919D01*
X416136D01*
X415290Y162765D01*
X414444Y161919D01*
X413597D01*
X415290Y162765D02*
Y164458D01*
X510118Y185843D02*
X509271Y186689D01*
X507579D01*
X506732Y185843D01*
Y182457D01*
X507579Y181611D01*
X509271D01*
X510118Y182457D01*
X511810Y181611D02*
X513503D01*
X512657D01*
Y186689D01*
X511810Y185843D01*
X516042Y186689D02*
X519428D01*
Y185843D01*
X516042Y182457D01*
Y181611D01*
X664633Y443652D02*
X665479Y444499D01*
Y446191D01*
X664633Y447038D01*
X661247D01*
X660401Y446191D01*
Y444499D01*
X661247Y443652D01*
X660401Y441960D02*
Y440267D01*
Y441113D01*
X665479D01*
X664633Y441960D01*
X665479Y434342D02*
X664633Y436035D01*
X662940Y437728D01*
X661247D01*
X660401Y436881D01*
Y435188D01*
X661247Y434342D01*
X662094D01*
X662940Y435188D01*
Y437728D01*
X633307Y479638D02*
X632461Y478791D01*
Y477099D01*
X633307Y476252D01*
X636693D01*
X637539Y477099D01*
Y478791D01*
X636693Y479638D01*
X637539Y481330D02*
Y483023D01*
Y482177D01*
X632461D01*
X633307Y481330D01*
X632461Y488948D02*
Y485562D01*
X635000D01*
X634154Y487255D01*
Y488102D01*
X635000Y488948D01*
X636693D01*
X637539Y488102D01*
Y486409D01*
X636693Y485562D01*
X642198Y361103D02*
X641351Y361949D01*
X639659D01*
X638812Y361103D01*
Y357717D01*
X639659Y356871D01*
X641351D01*
X642198Y357717D01*
X643890Y356871D02*
X645583D01*
X644737D01*
Y361949D01*
X643890Y361103D01*
X650662Y356871D02*
Y361949D01*
X648122Y359410D01*
X651508D01*
X362902Y166370D02*
X363537Y165736D01*
X364806D01*
X365441Y166370D01*
Y168910D01*
X364806Y169544D01*
X363537D01*
X362902Y168910D01*
X361632Y169544D02*
X360363D01*
X360997D01*
Y165736D01*
X361632Y166370D01*
X358458D02*
X357823Y165736D01*
X356554D01*
X355919Y166370D01*
Y167005D01*
X356554Y167640D01*
X357189D01*
X356554D01*
X355919Y168275D01*
Y168910D01*
X356554Y169544D01*
X357823D01*
X358458Y168910D01*
Y140970D02*
X357823Y141604D01*
X356554D01*
X355919Y140970D01*
Y138430D01*
X356554Y137796D01*
X357823D01*
X358458Y138430D01*
X359728Y137796D02*
X360997D01*
X360363D01*
Y141604D01*
X359728Y140970D01*
X365441Y137796D02*
X362902D01*
X365441Y140335D01*
Y140970D01*
X364806Y141604D01*
X363537D01*
X362902Y140970D01*
X342054Y215053D02*
X341208Y215899D01*
X339515D01*
X338669Y215053D01*
Y211667D01*
X339515Y210821D01*
X341208D01*
X342054Y211667D01*
X343747Y210821D02*
X345440D01*
X344593D01*
Y215899D01*
X343747Y215053D01*
X347979Y210821D02*
X349672D01*
X348825D01*
Y215899D01*
X347979Y215053D01*
X378882Y94827D02*
X379729Y93981D01*
X381422D01*
X382268Y94827D01*
Y98213D01*
X381422Y99059D01*
X379729D01*
X378882Y98213D01*
X377189Y99059D02*
X375497D01*
X376343D01*
Y93981D01*
X377189Y94827D01*
X372958D02*
X372111Y93981D01*
X370418D01*
X369572Y94827D01*
Y98213D01*
X370418Y99059D01*
X372111D01*
X372958Y98213D01*
Y94827D01*
X298874Y215053D02*
X298027Y215899D01*
X296334D01*
X295488Y215053D01*
Y211667D01*
X296334Y210821D01*
X298027D01*
X298874Y211667D01*
X300566D02*
X301413Y210821D01*
X303106D01*
X303952Y211667D01*
Y215053D01*
X303106Y215899D01*
X301413D01*
X300566Y215053D01*
Y214206D01*
X301413Y213360D01*
X303952D01*
X343746Y41487D02*
X344593Y40641D01*
X346286D01*
X347132Y41487D01*
Y44873D01*
X346286Y45719D01*
X344593D01*
X343746Y44873D01*
X342054Y41487D02*
X341207Y40641D01*
X339514D01*
X338668Y41487D01*
Y42334D01*
X339514Y43180D01*
X338668Y44026D01*
Y44873D01*
X339514Y45719D01*
X341207D01*
X342054Y44873D01*
Y44026D01*
X341207Y43180D01*
X342054Y42334D01*
Y41487D01*
X341207Y43180D02*
X339514D01*
X317076Y41487D02*
X317923Y40641D01*
X319615D01*
X320462Y41487D01*
Y44873D01*
X319615Y45719D01*
X317923D01*
X317076Y44873D01*
X315384Y40641D02*
X311998D01*
Y41487D01*
X315384Y44873D01*
Y45719D01*
X292946Y41487D02*
X293793Y40641D01*
X295485D01*
X296332Y41487D01*
Y44873D01*
X295485Y45719D01*
X293793D01*
X292946Y44873D01*
X287868Y40641D02*
X289561Y41487D01*
X291254Y43180D01*
Y44873D01*
X290407Y45719D01*
X288714D01*
X287868Y44873D01*
Y44026D01*
X288714Y43180D01*
X291254D01*
X267546Y41694D02*
X268393Y40847D01*
X270086D01*
X270932Y41694D01*
Y45079D01*
X270086Y45925D01*
X268393D01*
X267546Y45079D01*
X262468Y40847D02*
X265854D01*
Y43386D01*
X264161Y42540D01*
X263314D01*
X262468Y43386D01*
Y45079D01*
X263314Y45925D01*
X265007D01*
X265854Y45079D01*
X196426Y115147D02*
X197273Y114301D01*
X198965D01*
X199812Y115147D01*
Y118533D01*
X198965Y119379D01*
X197273D01*
X196426Y118533D01*
X192194Y119379D02*
Y114301D01*
X194734Y116840D01*
X191348D01*
X240876Y41487D02*
X241723Y40641D01*
X243416D01*
X244262Y41487D01*
Y44873D01*
X243416Y45719D01*
X241723D01*
X240876Y44873D01*
X239184Y41487D02*
X238337Y40641D01*
X236644D01*
X235798Y41487D01*
Y42334D01*
X236644Y43180D01*
X237491D01*
X236644D01*
X235798Y44026D01*
Y44873D01*
X236644Y45719D01*
X238337D01*
X239184Y44873D01*
X210396Y41487D02*
X211243Y40641D01*
X212936D01*
X213782Y41487D01*
Y44873D01*
X212936Y45719D01*
X211243D01*
X210396Y44873D01*
X205318Y45719D02*
X208704D01*
X205318Y42334D01*
Y41487D01*
X206164Y40641D01*
X207857D01*
X208704Y41487D01*
X251037Y347980D02*
X250191Y347134D01*
Y345441D01*
X251037Y344594D01*
X254423D01*
X255269Y345441D01*
Y347134D01*
X254423Y347980D01*
X255269Y349673D02*
Y351366D01*
Y350519D01*
X250191D01*
X251037Y349673D01*
D14*
X147505Y343850D02*
G03*
X147505Y343850I-2835J0D01*
G01*
D15*
X204710Y401840D02*
G03*
X204710Y441440I15000J19800D01*
G01*
X89700Y56390D02*
X189700D01*
X89700Y88390D02*
X189700D01*
X89700Y56390D02*
Y88390D01*
X189700Y56390D02*
Y88390D01*
X684820Y292930D02*
X742320D01*
Y466930D01*
X684820D02*
X689570D01*
X708070D02*
X742320D01*
X684820Y292930D02*
Y466930D01*
X7580Y168620D02*
X181580D01*
Y111120D02*
Y145370D01*
Y163870D02*
Y168620D01*
X7580Y111120D02*
X181580D01*
X7580D02*
Y168620D01*
X683550Y44880D02*
X741050D01*
Y143880D01*
X683550D02*
X741050D01*
X683550Y44880D02*
Y143880D01*
Y161720D02*
X741050D01*
Y285720D01*
X683550D02*
X688300D01*
X706800D02*
X741050D01*
X683550Y161720D02*
Y285720D01*
X338220Y396480D02*
X388220D01*
Y426480D01*
X338220D02*
X388220D01*
X338220Y396480D02*
Y426480D01*
X268310Y224790D02*
Y252040D01*
X247310D02*
X268310D01*
X247310Y224790D02*
Y252040D01*
X508050Y453730D02*
X535300D01*
Y432730D02*
Y453730D01*
X508050Y432730D02*
X535300D01*
X515720Y396670D02*
Y398670D01*
X528220Y396670D02*
Y398670D01*
X289900Y219740D02*
Y246990D01*
X268900Y219740D02*
X289900D01*
X268900D02*
Y246990D01*
X596560Y250220D02*
Y277470D01*
Y250220D02*
X617560D01*
Y277470D01*
X510590Y454320D02*
X537840D01*
Y475320D01*
X510590D02*
X537840D01*
X557440Y378860D02*
Y428860D01*
Y378860D02*
X587440D01*
Y428860D01*
X557440D02*
X587440D01*
X505360Y411750D02*
Y413750D01*
X492860Y411750D02*
Y413750D01*
X584510Y368180D02*
X591510D01*
X584510Y353180D02*
X591510D01*
X542600Y353180D02*
X549600D01*
X542600Y368180D02*
X549600D01*
X491610Y369880D02*
Y376880D01*
X506610Y369880D02*
Y376880D01*
X595940Y437000D02*
X602940D01*
X595940Y452000D02*
X602940D01*
X608429Y475617D02*
Y484090D01*
X626011Y475617D02*
Y484090D01*
X613530Y363530D02*
Y370530D01*
X628530Y363530D02*
Y370530D01*
X556530Y438250D02*
X558530D01*
X556530Y450750D02*
X558530D01*
X613530Y406410D02*
Y413410D01*
X628530Y406410D02*
Y413410D01*
X636369Y385654D02*
Y394126D01*
X653951Y385654D02*
Y394126D01*
X636369Y438787D02*
Y447260D01*
X653951Y438787D02*
Y447260D01*
X364800Y222640D02*
X371800D01*
X364800Y239640D02*
X371800D01*
X279010Y282010D02*
Y289010D01*
X262010Y282010D02*
Y289010D01*
X63810Y176650D02*
X70810D01*
X63810Y191650D02*
X70810D01*
X166410Y375780D02*
Y523380D01*
X175650Y397820D02*
Y404820D01*
X192650Y397820D02*
Y404820D01*
X316630Y272020D02*
X366630D01*
Y302020D01*
X316630D02*
X366630D01*
X316630Y272020D02*
Y302020D01*
X493070Y293490D02*
X500070D01*
X493070Y308490D02*
X500070D01*
X363230Y353180D02*
X370230D01*
X363230Y368180D02*
X370230D01*
X363530Y330320D02*
X370530D01*
X363530Y345320D02*
X370530D01*
X389770Y269550D02*
Y276550D01*
X374770Y269550D02*
Y276550D01*
X307650Y477400D02*
X314650D01*
X307650Y462400D02*
X314650D01*
X579000Y243850D02*
Y250850D01*
X564000Y243850D02*
Y250850D01*
X536760Y237635D02*
Y268135D01*
X448760Y237635D02*
Y268135D01*
X536760D01*
X448760Y237635D02*
X536760D01*
X222220Y155720D02*
X250220D01*
X222220Y189720D02*
X250220D01*
X471680Y152870D02*
X503680D01*
X471680Y52870D02*
X503680D01*
X471680D02*
Y152870D01*
X503680Y52870D02*
Y152870D01*
X327540Y391470D02*
Y398470D01*
X312540Y391470D02*
Y398470D01*
X312540Y431140D02*
Y438140D01*
X327540Y431140D02*
Y438140D01*
X145090Y176650D02*
X152090D01*
X145090Y191650D02*
X152090D01*
X308490Y260660D02*
Y267660D01*
X293490Y260660D02*
Y267660D01*
X597740Y480520D02*
Y538020D01*
X498740D02*
X597740D01*
X498740Y480520D02*
Y538020D01*
Y480520D02*
X597740D01*
X489590Y483200D02*
Y532800D01*
X391790D02*
X489590D01*
X391790Y483200D02*
Y532800D01*
Y483200D02*
X489590D01*
X192941Y449360D02*
Y457832D01*
X175359Y449360D02*
Y457832D01*
X267010Y460090D02*
X274010D01*
X267010Y475090D02*
X274010D01*
X218014Y473611D02*
X226486D01*
X218014Y456029D02*
X226486D01*
X396480Y381050D02*
X400980D01*
X421980D02*
X426480D01*
Y419050D01*
X396480D02*
X400980D01*
X421980D02*
X426480D01*
X396480Y381050D02*
Y419050D01*
X582810Y284790D02*
Y291790D01*
X567810Y284790D02*
Y291790D01*
X467670Y333890D02*
X474670D01*
X467670Y318890D02*
X474670D01*
X560190Y198430D02*
Y205430D01*
X575190Y198430D02*
Y205430D01*
X618610Y165410D02*
Y172410D01*
X633610Y165410D02*
Y172410D01*
X593210Y179070D02*
X608710D01*
Y166370D02*
Y179070D01*
X593210Y166370D02*
Y179070D01*
X616580Y144350D02*
X674080D01*
X616580Y45350D02*
Y144350D01*
Y45350D02*
X674080D01*
Y144350D01*
X531960Y44910D02*
Y102410D01*
Y44910D02*
X605960D01*
Y97660D02*
Y102410D01*
Y44910D02*
Y79160D01*
X531960Y102410D02*
X605960D01*
X565150Y163700D02*
Y179200D01*
X552450Y163700D02*
X565150D01*
X552450Y179200D02*
X565150D01*
X573910Y137160D02*
X589410D01*
Y124460D02*
Y137160D01*
X573910Y124460D02*
Y137160D01*
X553590Y137670D02*
X569090D01*
Y124970D02*
Y137670D01*
X553590Y124970D02*
Y137670D01*
X532000Y124460D02*
X547500D01*
X532000D02*
Y137160D01*
X547500Y124460D02*
Y137160D01*
X281071Y329776D02*
Y338244D01*
X262489Y329776D02*
Y338244D01*
X276230Y481980D02*
Y531580D01*
X178430D02*
X276230D01*
X178430Y481980D02*
Y531580D01*
Y481980D02*
X276230D01*
X267195Y122175D02*
X332245D01*
Y157225D01*
X267195D02*
X332245D01*
X267195Y122175D02*
Y157225D01*
X244640Y138730D02*
X254140D01*
Y112730D02*
Y138730D01*
X208140D02*
X217640D01*
X208140Y112730D02*
Y138730D01*
X557410Y240640D02*
Y247640D01*
X542410Y240640D02*
Y247640D01*
X7250Y42540D02*
Y100040D01*
Y42540D02*
X81250D01*
Y95290D02*
Y100040D01*
Y42540D02*
Y76790D01*
X7250Y100040D02*
X81250D01*
X392004Y317401D02*
X400476D01*
X392004Y299819D02*
X400476D01*
X321620Y330320D02*
X328620D01*
X321620Y345320D02*
X328620D01*
X321620Y353180D02*
X328620D01*
X321620Y368180D02*
X328620D01*
X439740Y350940D02*
X479740D01*
Y466940D01*
X439740D02*
X479740D01*
X439740Y350940D02*
Y466940D01*
X536550Y308490D02*
X543550D01*
X536550Y293490D02*
X543550D01*
X508310Y333890D02*
X515310D01*
X508310Y318890D02*
X515310D01*
X599560Y223530D02*
Y230530D01*
X614560Y223530D02*
Y230530D01*
X438051Y256114D02*
Y264586D01*
X420469Y256114D02*
Y264586D01*
X451160Y293490D02*
X458160D01*
X451160Y308490D02*
X458160D01*
X516258Y211991D02*
X524730D01*
X516258Y194409D02*
X524730D01*
X439321Y204044D02*
Y212516D01*
X421739Y204044D02*
Y212516D01*
X465664Y193139D02*
X474136D01*
X465664Y210721D02*
X474136D01*
X468204Y162659D02*
X476676D01*
X468204Y180241D02*
X476676D01*
X424279Y151974D02*
Y160446D01*
X441861Y151974D02*
Y160446D01*
X441840Y61570D02*
Y68570D01*
X426840Y61570D02*
Y68570D01*
X425340Y107960D02*
Y114960D01*
X440340Y107960D02*
Y114960D01*
X548950Y318890D02*
X555950D01*
X548950Y333890D02*
X555950D01*
X357180Y472320D02*
X364180D01*
X357180Y457320D02*
X364180D01*
X408820Y349560D02*
Y356560D01*
X393820Y349560D02*
Y356560D01*
X308490Y301600D02*
Y308600D01*
X293490Y301600D02*
Y308600D01*
X429140Y349560D02*
Y356560D01*
X414140Y349560D02*
Y356560D01*
X314000Y239640D02*
X321000D01*
X314000Y222640D02*
X321000D01*
X204710Y401840D02*
Y441440D01*
X388719Y120224D02*
Y128696D01*
X406301Y120224D02*
Y128696D01*
X415191Y442804D02*
Y451276D01*
X397609Y442804D02*
Y451276D01*
X372954Y71219D02*
X381426D01*
X372954Y88801D02*
X381426D01*
X373160Y62131D02*
X381632D01*
X373160Y44549D02*
X381632D01*
X379100Y481980D02*
Y531580D01*
X281300D02*
X379100D01*
X281300Y481980D02*
Y531580D01*
Y481980D02*
X379100D01*
X250590Y395480D02*
Y427480D01*
X300590Y395480D02*
Y427480D01*
X250590Y395480D02*
X300590D01*
X250590Y427480D02*
X300590D01*
X217480Y391040D02*
X224480D01*
X217480Y376040D02*
X224480D01*
X243821Y66884D02*
Y75356D01*
X226239Y66884D02*
Y75356D01*
X276959Y67090D02*
Y75563D01*
X294541Y67090D02*
Y75563D01*
X320021Y67948D02*
Y76420D01*
X302439Y67948D02*
Y76420D01*
X345421Y67948D02*
Y76420D01*
X327839Y67948D02*
Y76420D01*
X356650Y176431D02*
X365122D01*
X356650Y158849D02*
X365122D01*
X343744Y205641D02*
X352216D01*
X343744Y188059D02*
X352216D01*
X355380Y121821D02*
X363853D01*
X355380Y104239D02*
X363853D01*
X356650Y148491D02*
X365122D01*
X356650Y130909D02*
X365122D01*
X251559Y67090D02*
Y75563D01*
X269141Y67090D02*
Y75563D01*
X292944Y188059D02*
X301416D01*
X292944Y205641D02*
X301416D01*
X22870Y176650D02*
X29870D01*
X22870Y191650D02*
X29870D01*
X104750Y176650D02*
X111750D01*
X104750Y191650D02*
X111750D01*
X217071Y66677D02*
Y75150D01*
X199489Y66677D02*
Y75150D01*
D16*
X601275Y176530D02*
D03*
X581975Y134620D02*
D03*
X561655Y135130D02*
D03*
X539435Y127000D02*
D03*
D17*
X562610Y171135D02*
D03*
M02*
